<?xml version="1.0" encoding="UTF-8" standalone="no"?>
<!-- Created with Inkscape (http://www.inkscape.org/) -->

<svg
   version="1.1"
   id="svg1"
   width="508mm"
   height="285.75mm"
   viewBox="0 0 508 285.75"
   sodipodi:docname="konosuba-title.svg"
   inkscape:version="1.4.4 (dcaf3e7, 2026-05-05)"
   xmlns:inkscape="http://www.inkscape.org/namespaces/inkscape"
   xmlns:sodipodi="http://sodipodi.sourceforge.net/DTD/sodipodi-0.dtd"
   xmlns="http://www.w3.org/2000/svg"
   xmlns:svg="http://www.w3.org/2000/svg">
  <defs
     id="defs1">
    <inkscape:path-effect
       effect="offset"
       id="path-effect30"
       is_visible="true"
       lpeversion="1.3"
       linejoin_type="round"
       unit="mm"
       offset="4.5"
       miter_limit="4"
       attempt_force_join="false"
       update_on_knot_move="true" />
    <inkscape:path-effect
       effect="clone_original"
       css_properties=""
       attributes="clip-path"
       linkeditem="#rect22"
       is_visible="true"
       method="d"
       allow_transforms="true"
       id="path-effect29"
       lpeversion="1" />
    <inkscape:path-effect
       effect="offset"
       id="path-effect28"
       is_visible="true"
       lpeversion="1.3"
       linejoin_type="round"
       unit="mm"
       offset="5.7"
       miter_limit="0"
       attempt_force_join="false"
       update_on_knot_move="true" />
    <inkscape:path-effect
       effect="offset"
       id="path-effect27"
       is_visible="false"
       lpeversion="1.3"
       linejoin_type="miter"
       unit="mm"
       offset="-159.8"
       miter_limit="4"
       attempt_force_join="false"
       update_on_knot_move="true" />
    <inkscape:path-effect
       effect="offset"
       id="path-effect26"
       is_visible="true"
       lpeversion="1.3"
       linejoin_type="round"
       unit="mm"
       offset="5.3"
       miter_limit="4"
       attempt_force_join="false"
       update_on_knot_move="true" />
    <rect
       x="775"
       y="0"
       width="370"
       height="54.5"
       id="rect25" />
    <inkscape:path-effect
       effect="offset"
       id="path-effect25"
       is_visible="true"
       lpeversion="1.3"
       linejoin_type="round"
       unit="mm"
       offset="4.5"
       miter_limit="4"
       attempt_force_join="false"
       update_on_knot_move="true" />
    <inkscape:path-effect
       effect="clone_original"
       css_properties=""
       attributes="clip-path"
       linkeditem="#rect20"
       is_visible="true"
       method="d"
       allow_transforms="true"
       id="path-effect24"
       lpeversion="1" />
    <inkscape:path-effect
       effect="offset"
       id="path-effect23"
       is_visible="true"
       lpeversion="1.3"
       linejoin_type="round"
       unit="mm"
       offset="4.5"
       miter_limit="4"
       attempt_force_join="false"
       update_on_knot_move="true" />
    <inkscape:path-effect
       effect="clone_original"
       css_properties=""
       attributes="clip-path"
       linkeditem="#path21"
       is_visible="true"
       method="d"
       allow_transforms="true"
       id="path-effect22"
       lpeversion="1" />
    <inkscape:path-effect
       effect="offset"
       id="path-effect20"
       is_visible="true"
       lpeversion="1.3"
       linejoin_type="round"
       unit="mm"
       offset="4.5"
       miter_limit="4"
       attempt_force_join="false"
       update_on_knot_move="true" />
    <inkscape:path-effect
       effect="clone_original"
       css_properties=""
       attributes="clip-path"
       linkeditem="#rect17"
       is_visible="true"
       method="d"
       allow_transforms="true"
       id="path-effect19"
       lpeversion="1" />
    <inkscape:path-effect
       effect="offset"
       id="path-effect17"
       is_visible="true"
       lpeversion="1.3"
       linejoin_type="round"
       unit="mm"
       offset="4.5"
       miter_limit="4"
       attempt_force_join="false"
       update_on_knot_move="true" />
    <inkscape:path-effect
       effect="clone_original"
       css_properties=""
       attributes="clip-path"
       linkeditem="#path8"
       is_visible="true"
       method="d"
       allow_transforms="true"
       id="path-effect16"
       lpeversion="1" />
    <inkscape:path-effect
       effect="offset"
       id="path-effect14"
       is_visible="true"
       lpeversion="1.3"
       linejoin_type="round"
       unit="mm"
       offset="4.5"
       miter_limit="4"
       attempt_force_join="false"
       update_on_knot_move="true" />
    <inkscape:path-effect
       effect="clone_original"
       css_properties=""
       attributes="clip-path"
       linkeditem="#path8-2"
       is_visible="true"
       method="d"
       allow_transforms="true"
       id="path-effect9"
       lpeversion="1" />
    <inkscape:path-effect
       effect="offset"
       id="path-effect7"
       is_visible="true"
       lpeversion="1.3"
       linejoin_type="round"
       unit="mm"
       offset="4.5"
       miter_limit="4"
       attempt_force_join="false"
       update_on_knot_move="true" />
    <inkscape:path-effect
       effect="clone_original"
       css_properties=""
       attributes="clip-path"
       linkeditem="#path9"
       is_visible="true"
       method="d"
       allow_transforms="true"
       id="path-effect3"
       lpeversion="1" />
    <inkscape:path-effect
       effect="offset"
       id="path-effect15"
       is_visible="false"
       lpeversion="1.3"
       linejoin_type="miter"
       unit="mm"
       offset="0.3"
       miter_limit="4"
       attempt_force_join="false"
       update_on_knot_move="true" />
    <inkscape:path-effect
       effect="offset"
       id="path-effect13"
       is_visible="true"
       lpeversion="1.3"
       linejoin_type="miter"
       unit="mm"
       offset="0.3"
       miter_limit="4"
       attempt_force_join="false"
       update_on_knot_move="true" />
    <inkscape:path-effect
       effect="offset"
       id="path-effect12"
       is_visible="true"
       lpeversion="1.3"
       linejoin_type="miter"
       unit="mm"
       offset="0.3"
       miter_limit="4"
       attempt_force_join="false"
       update_on_knot_move="true" />
    <inkscape:path-effect
       effect="offset"
       id="path-effect11"
       is_visible="true"
       lpeversion="1.3"
       linejoin_type="miter"
       unit="mm"
       offset="2"
       miter_limit="4"
       attempt_force_join="false"
       update_on_knot_move="true" />
    <inkscape:path-effect
       effect="offset"
       id="path-effect10"
       is_visible="true"
       lpeversion="1.3"
       linejoin_type="miter"
       unit="mm"
       offset="2"
       miter_limit="4"
       attempt_force_join="false"
       update_on_knot_move="true" />
    <inkscape:path-effect
       effect="offset"
       id="path-effect8"
       is_visible="true"
       lpeversion="1.3"
       linejoin_type="miter"
       unit="mm"
       offset="-16.032351"
       miter_limit="4"
       attempt_force_join="false"
       update_on_knot_move="true" />
    <inkscape:path-effect
       effect="offset"
       id="path-effect6"
       is_visible="true"
       lpeversion="1.3"
       linejoin_type="miter"
       unit="mm"
       offset="-0.80003"
       miter_limit="4"
       attempt_force_join="false"
       update_on_knot_move="true" />
    <inkscape:path-effect
       effect="simplify"
       id="path-effect5"
       is_visible="true"
       lpeversion="1.3"
       threshold="5"
       steps="1"
       smooth_angles="360"
       helper_size="10"
       simplify_individual_paths="false"
       simplify_just_coalesce="false" />
    <inkscape:path-effect
       effect="offset"
       id="path-effect2"
       is_visible="true"
       lpeversion="1.3"
       linejoin_type="miter"
       unit="mm"
       offset="2"
       miter_limit="4"
       attempt_force_join="false"
       update_on_knot_move="true" />
    <inkscape:path-effect
       effect="copy_rotate"
       starting_point="262.69866,142.80612"
       origin="257.14337,142.80612"
       id="path-effect1"
       is_visible="true"
       lpeversion="1.2"
       lpesatellites=""
       method="normal"
       num_copies="74"
       starting_angle="0.1"
       rotation_angle="4.8648649"
       gap="0"
       copies_to_360="true"
       mirror_copies="false"
       split_items="false"
       link_styles="true" />
    <inkscape:path-effect
       effect="offset"
       id="path-effect12-4"
       is_visible="true"
       lpeversion="1.3"
       linejoin_type="miter"
       unit="mm"
       offset="0.3"
       miter_limit="4"
       attempt_force_join="false"
       update_on_knot_move="true" />
    <inkscape:path-effect
       effect="clone_original"
       css_properties=""
       attributes="clip-path"
       linkeditem="#use1"
       is_visible="true"
       method="d"
       allow_transforms="true"
       id="path-effect3-4"
       lpeversion="1" />
    <inkscape:path-effect
       effect="offset"
       id="path-effect7-8"
       is_visible="true"
       lpeversion="1.3"
       linejoin_type="round"
       unit="mm"
       offset="4"
       miter_limit="4"
       attempt_force_join="false"
       update_on_knot_move="true" />
  </defs>
  <sodipodi:namedview
     id="namedview1"
     pagecolor="#ffffff"
     bordercolor="#000000"
     borderopacity="0.25"
     inkscape:showpageshadow="2"
     inkscape:pageopacity="0.0"
     inkscape:pagecheckerboard="0"
     inkscape:deskcolor="#d1d1d1"
     inkscape:zoom="0.35355339"
     inkscape:cx="837.21443"
     inkscape:cy="567.09964"
     inkscape:window-width="2560"
     inkscape:window-height="1009"
     inkscape:window-x="-8"
     inkscape:window-y="1063"
     inkscape:window-maximized="1"
     inkscape:current-layer="layer4"
     inkscape:document-units="mm" />
  <g
     inkscape:groupmode="layer"
     id="layer1"
     inkscape:label="ornament"
     style="display:inline">
    <g
       id="g4"
       inkscape:path-effect="#path-effect1"
       style="display:inline"
       inkscape:label="circular-repeat">
      <path
         d="m 371.88168,122.28025 -5.52792,5.79144 6.84534,4.00476 m -3.47148,-19.45274 -5.01686,6.23937 7.16031,3.40981 m -5.10868,-19.08826 -4.46965,6.64236 7.42368,2.79028 m -6.70908,-18.586245 -3.89023,6.997475 7.63357,2.15067 m -8.26113,-17.950324 -3.28279,7.302185 7.78846,1.495541 m -9.75366,-17.18506 -2.6517,7.554279 7.88723,0.829646 m -11.17592,-16.295983 -2.0015,7.751945 7.92918,0.157773 M 340.7112,61.54968 l -1.33688,7.893757 7.914,-0.515236 m -13.7692,-14.172841 -0.66263,7.978695 7.84179,-1.184534 m -14.92153,-12.954073 0.0164,8.006146 7.71308,-1.845296 m -15.96636,-11.641972 0.69532,7.975913 7.5288,-2.492764 m -16.89615,-10.245989 1.36921,7.888213 7.29028,-3.122272 m -17.7042,-8.776183 2.03325,7.743678 6.99923,-3.729283 m -18.3847,-7.243146 2.68263,7.54335 6.65775,-4.309424 m -18.93272,-5.657921 3.31268,7.288672 6.26831,-4.858516 m -19.34435,-4.031931 3.91888,6.981478 5.83369,-5.372602 m -19.6166,-2.37689 4.49684,6.623983 5.35704,-5.847978 m -19.7475,-0.704725 5.04239,6.218762 4.8418,-6.28122 m -19.73612,0.972519 5.55161,5.768735 4.29167,-6.669205 m -19.58254,2.642755 6.02083,5.277144 3.71062,-7.009139 m -19.28788,4.293951 6.44668,4.747531 3.10284,-7.298572 m -18.85424,5.914208 6.82607,4.183712 2.4727,-7.535417 m -18.28476,7.491853 7.15628,3.589749 1.82474,-7.717971 m -17.58353,9.015519 7.43493,2.969922 1.16364,-7.844916 m -16.75561,10.474229 7.66001,2.328697 0.49415,-7.915339 m -15.80698,11.857471 7.82991,1.670693 -0.17889,-7.928731 m -14.74445,13.15528 7.94338,1.000652 -0.85065,-7.884996 m -13.57569,14.358305 7.99963,0.323401 -1.51628,-7.78445 m -12.30912,15.457877 7.99824,-0.35618 -2.17099,-7.627817 m -10.95385,16.446077 7.93922,-1.033195 -2.81005,-7.416225 m -9.51967,17.31578 7.823,-1.702765 -3.42887,-7.151199 m -8.01689,18.060726 7.65041,-2.36007 -4.02298,-6.834648 m -6.45635,18.675538 7.4227,-3.00036 -4.5881,-6.46886 m -4.8493,19.1558 7.14151,-3.61904 -5.12017,-6.05646 m -3.2073,19.49804 6.80886,-4.21165 -5.61535,-5.60041 m -1.54219,19.69979 6.42716,-4.77391 -6.07007,-5.10402 m 0.13402,19.75961 5.99915,-5.30177 -6.48105,-4.57086 m 1.80927,19.67707 5.52792,-5.79144 -6.84534,-4.00476 m 3.47148,19.45274 5.01686,-6.23937 -7.16031,-3.40981 m 5.10868,19.08826 4.46965,-6.64236 -7.42368,-2.79028 m 6.70908,18.58625 3.89023,-6.99748 -7.63357,-2.15067 m 8.26113,17.95032 3.28279,-7.30218 -7.78846,-1.49554 m 9.75366,17.18506 2.6517,-7.55428 -7.88723,-0.82965 m 11.17592,16.29599 2.0015,-7.75195 -7.92918,-0.15777 m 12.51765,15.28949 1.33688,-7.89376 -7.914,0.51524 m 13.7692,14.17284 0.66263,-7.9787 -7.84179,1.18454 m 14.92153,12.95407 -0.0164,-8.00614 -7.71308,1.84529 m 15.96636,11.64197 -0.69532,-7.97591 -7.5288,2.49277 m 16.89615,10.24598 -1.36921,-7.88821 -7.29028,3.12227 m 17.7042,8.77619 -2.03325,-7.74368 -6.99923,3.72928 m 18.3847,7.24315 -2.68263,-7.54335 -6.65775,4.30942 m 18.93272,5.65792 -3.31268,-7.28867 -6.26831,4.85852 m 19.34435,4.03193 -3.91888,-6.98148 -5.83369,5.3726 m 19.6166,2.37689 -4.49684,-6.62398 -5.35704,5.84798 m 19.7475,0.70472 -5.04239,-6.21876 -4.8418,6.28122 m 19.73612,-0.97252 -5.55161,-5.76874 -4.29167,6.66921 m 19.58254,-2.64276 -6.02083,-5.27714 -3.71062,7.00914 m 19.28788,-4.29395 -6.44668,-4.74753 -3.10284,7.29857 m 18.85424,-5.91421 -6.82607,-4.18371 -2.4727,7.53542 m 18.28476,-7.49186 -7.15628,-3.58974 -1.82474,7.71797 m 17.58353,-9.01552 -7.43493,-2.96993 -1.16364,7.84492 m 16.75561,-10.47423 -7.66001,-2.32869 -0.49415,7.91533 m 15.80698,-11.85747 -7.82991,-1.67069 0.17889,7.92873 m 14.74445,-13.15528 -7.94338,-1.00065 0.85065,7.885 m 13.57569,-14.35831 -7.99963,-0.3234 1.51628,7.78445 m 12.30912,-15.45788 -7.99824,0.35618 2.17099,7.62782 m 10.95385,-16.44608 -7.93922,1.0332 2.81005,7.41622 m 9.51967,-17.31578 -7.823,1.70277 3.42887,7.1512 m 8.01689,-18.06073 -7.65041,2.36007 4.02298,6.83465 m 6.45635,-18.67554 -7.4227,3.00036 4.5881,6.46886 m 4.8493,-19.1558 -7.14151,3.61904 5.12017,6.05646 m 3.2073,-19.49804 -6.80886,4.21165 5.61535,5.60041 m 1.54219,-19.69979 -6.42716,4.77391 6.07007,5.10402 m -0.13402,-19.75961 -5.99915,5.30177 6.48105,4.57086"
         style="display:inline;fill:none;fill-opacity:1;stroke:#66160b;stroke-width:0.7;stroke-linecap:round;stroke-linejoin:round;stroke-dasharray:none;stroke-opacity:1"
         id="path1-1"
         sodipodi:nodetypes="ccc"
         inkscape:original-d="m 371.91733,122.48054 -5.53802,5.78178 6.83834,4.0167"
         inkscape:label="line-mid" />
      <path
         d="m 369.98835,122.71544 -5.52278,5.6648 6.83882,3.98453 m -3.42638,-19.14688 -5.02247,6.11276 7.1521,3.3902 m -5.03781,-18.78732 -4.48598,6.51667 7.41384,2.77145 m -6.61293,-18.292404 -3.91717,6.873634 7.62217,2.13272 m -8.14041,-17.665684 -3.32014,7.181069 7.77558,1.478639 m -9.60924,-16.911693 -2.69918,7.436766 7.87297,0.813897 m -11.00884,-16.035848 -2.05877,7.638881 7.91363,0.143291 m -12.32911,-15.044464 -1.40354,7.785958 7.89727,-0.528348 m -13.56055,-13.944684 -0.73818,7.876937 7.82401,-1.19618 m -14.6943,-12.744433 -0.0675,7.911162 7.69439,-1.855393 m -15.72216,-11.452358 0.60364,7.888388 7.50931,-2.501238 m -16.63674,-10.077769 1.27045,7.808777 7.27014,-3.129061 m -17.43147,-8.630569 1.92811,7.672904 6.97859,-3.73434 m -18.1006,-7.121185 2.57187,7.481747 6.63675,-4.312713 m -18.6393,-5.560493 3.1971,7.236685 6.2471,-4.860013 m -19.04372,-3.959737 3.79929,6.939481 5.81244,-5.372295 m -19.31092,-2.330453 4.37411,6.59228 5.3359,-5.845871 m -19.43899,-0.684376 4.91742,6.197579 4.82091,-6.277327 m -19.427,0.966631 5.4253,5.758226 4.27118,-6.663554 m -19.27504,2.610674 5.89409,5.277384 3.69069,-7.001771 m -18.9842,4.235907 6.32041,4.758519 3.0836,-7.28954 m -18.55658,5.83062 6.70119,4.205368 2.4543,-7.524787 m -17.99526,7.383323 7.03369,3.621918 1.80731,-7.705818 m -17.30428,8.882829 7.3155,3.012372 1.14731,-7.831328 m -16.48863,10.318333 7.54462,2.381122 0.47903,-7.900414 m -15.55417,11.679495 7.71937,1.732715 -0.1927,-7.912577 m -14.50765,12.956505 7.83851,1.071824 -0.86304,-7.867729 m -13.35659,14.140164 7.90117,0.40321 -1.52717,-7.766194 m -12.1093,15.221942 7.9069,-0.268308 -2.18028,-7.608705 m -10.77478,16.194046 7.85567,-0.937894 -2.81769,-7.396393 m -9.36261,17.049471 7.74782,-1.600721 -3.43479,-7.130791 m -7.88298,17.78205 7.58416,-2.25201 -4.02716,-6.813813 m -6.34656,18.386523 7.36586,-2.88709 -4.5905,-6.44774 m -4.76441,18.85851 7.09448,-3.50135 -5.12077,-6.03521 m -3.14793,19.19462 6.77198,-4.0904 -5.61414,-5.57919 m -1.50878,19.39243 6.4007,-4.64996 -6.06707,-5.08298 m 0.14126,19.45052 5.98329,-5.17602 -6.47627,-4.55015 m 1.79026,19.36847 5.52278,-5.6648 -6.83882,-3.98453 m 3.42638,19.14688 5.02247,-6.11276 -7.1521,-3.3902 m 5.03781,18.78732 4.48598,-6.51667 -7.41384,-2.77145 m 6.61293,18.2924 3.91717,-6.87363 -7.62217,-2.13272 m 8.14041,17.66568 3.32014,-7.18106 -7.77558,-1.47864 m 9.60924,16.91169 2.69918,-7.43677 -7.87297,-0.81389 m 11.00884,16.03584 2.05877,-7.63888 -7.91363,-0.14329 m 12.32911,15.04447 1.40354,-7.78596 -7.89727,0.52835 m 13.56055,13.94468 0.73818,-7.87694 -7.82401,1.19618 m 14.6943,12.74444 0.0675,-7.91117 -7.69439,1.8554 m 15.72216,11.45235 -0.60364,-7.88838 -7.50931,2.50124 m 16.63674,10.07776 -1.27045,-7.80877 -7.27014,3.12906 m 17.43147,8.63057 -1.92811,-7.67291 -6.97859,3.73434 m 18.1006,7.12119 -2.57187,-7.48175 -6.63675,4.31271 m 18.6393,5.5605 -3.1971,-7.23669 -6.2471,4.86001 m 19.04372,3.95974 -3.79929,-6.93948 -5.81244,5.3723 m 19.31092,2.33045 -4.37411,-6.59228 -5.3359,5.84587 m 19.43899,0.68438 -4.91742,-6.19758 -4.82091,6.27732 m 19.427,-0.96663 -5.4253,-5.75822 -4.27118,6.66355 m 19.27504,-2.61067 -5.89409,-5.27739 -3.69069,7.00177 m 18.9842,-4.2359 -6.32041,-4.75852 -3.0836,7.28954 m 18.55658,-5.83062 -6.70119,-4.20537 -2.4543,7.52479 m 17.99526,-7.38333 -7.03369,-3.62191 -1.80731,7.70581 m 17.30428,-8.88283 -7.3155,-3.01237 -1.14731,7.83133 m 16.48863,-10.31833 -7.54462,-2.38112 -0.47903,7.90041 m 15.55417,-11.67949 -7.71937,-1.73272 0.1927,7.91258 m 14.50765,-12.95651 -7.83851,-1.07182 0.86304,7.86773 m 13.35659,-14.14017 -7.90117,-0.40321 1.52717,7.7662 m 12.1093,-15.22194 -7.9069,0.2683 2.18028,7.60871 m 10.77478,-16.19405 -7.85567,0.9379 2.81769,7.39639 m 9.36261,-17.04947 -7.74782,1.60072 3.43479,7.13079 m 7.88298,-17.78205 -7.58416,2.25201 4.02716,6.81381 m 6.34656,-18.38652 -7.36586,2.88709 4.5905,6.44774 m 4.76441,-18.85851 -7.09448,3.50135 5.12077,6.03521 m 3.14793,-19.19462 -6.77198,4.0904 5.61414,5.57919 m 1.50878,-19.39243 -6.4007,4.64996 6.06707,5.08298 m -0.14126,-19.45052 -5.98329,5.17602 6.47627,4.55015"
         style="display:inline;fill:none;fill-opacity:1;stroke:#66160b;stroke-width:0.499999;stroke-linecap:round;stroke-linejoin:round;stroke-opacity:1"
         id="path1-8"
         sodipodi:nodetypes="ccc"
         inkscape:original-d="m 370.02324,122.91242 -5.53266,5.65515 6.83186,3.99646"
         inkscape:label="line-inner" />
      <path
         style="display:inline;fill:none;fill-opacity:1;stroke:#66160b;stroke-width:0.499999;stroke-linecap:round;stroke-linejoin:round;stroke-opacity:1"
         d="m 373.61636,121.9132 -5.30145,5.6747 6.73509,4.23732 m -3.62508,-19.71435 -4.8011,6.10384 7.07018,3.65089 m -5.28392,-19.3359 -4.26617,6.48902 7.35433,3.03813 m -6.90467,-18.818131 -3.7005,6.827431 7.58549,2.4035 m -8.47569,-18.164778 -3.10816,7.116664 7.76199,1.751547 m -9.98564,-17.380554 -2.49342,7.354616 7.88257,1.086974 m -11.42364,-16.471099 -1.86073,7.539578 7.94636,0.41457 m -12.77934,-15.442969 -1.21462,7.670217 7.95289,-0.260822 m -14.04295,-14.303572 -0.55977,7.745592 7.90211,-0.934334 m -15.20538,-13.061118 0.0991,7.76516 7.79441,-1.601115 m -16.25827,-11.724558 0.7573,7.72878 7.63054,-2.256359 m -17.19401,-10.303522 1.41002,7.636713 7.4117,-2.895346 m -18.00587,-8.80825 2.05258,7.489625 7.13946,-3.513472 m -18.688,-7.249513 2.68035,7.288572 6.81578,-4.106283 m -19.23548,-5.638544 3.28881,7.035006 6.44298,-4.669509 m -19.64436,-3.986949 3.87357,6.730752 6.02377,-5.19909 m -19.9117,-2.306628 4.43041,6.378004 5.56116,-5.691213 m -20.03559,-0.609687 4.95535,5.979301 5.05848,-6.142329 m -20.01512,1.091645 5.44458,5.537518 4.51935,-6.54919 m -19.85043,2.785113 5.89457,5.055837 3.94766,-6.908865 m -19.54273,4.458515 6.30211,4.537727 3.34752,-7.21876 m -19.09421,6.099792 6.66423,3.986924 2.72327,-7.476644 m -18.50814,7.697121 6.97834,3.407395 2.0794,-7.680659 m -17.7887,9.23899 7.24217,2.803316 1.42054,-7.829335 m -16.94109,10.714294 7.45381,2.179038 0.75145,-7.921599 m -15.97142,12.1124 7.61175,1.53906 0.0769,-7.956788 m -14.88668,13.423236 7.71486,0.887994 -0.59812,-7.93465 m -13.69469,14.637358 7.76238,0.23053 -1.26887,-7.855341 m -12.40402,15.746017 7.75396,-0.428596 -1.93048,-7.719435 m -11.02397,16.741226 7.68968,-1.084633 -2.57818,-7.52791 m -9.5645,17.615814 7.56999,-1.732856 -3.2073,-7.282146 m -8.03613,18.363479 7.39577,-2.36859 -3.81332,-6.983917 m -6.44984,18.978837 7.16825,-2.98727 -4.39185,-6.63536 m -4.81709,19.45745 6.88909,-3.58441 -4.93875,-6.23901 m -3.14963,19.79587 6.56029,-4.15573 -5.45006,-5.79769 m -1.45947,19.99166 6.18422,-4.69712 -5.92211,-5.31461 m 0.2412,20.04342 5.7636,-5.20465 -6.35148,-4.79324 m 1.94013,19.95076 5.30145,-5.6747 -6.73509,-4.23732 m 3.62508,19.71435 4.8011,-6.10384 -7.07018,-3.65089 m 5.28392,19.3359 4.26617,-6.48902 -7.35433,-3.03813 m 6.90467,18.81813 3.7005,-6.82743 -7.58549,-2.4035 m 8.47569,18.16478 3.10816,-7.11667 -7.76199,-1.75154 m 9.98564,17.38055 2.49342,-7.35462 -7.88257,-1.08697 m 11.42364,16.4711 1.86073,-7.53958 -7.94636,-0.41457 m 12.77934,15.44297 1.21462,-7.67022 -7.95289,0.26083 m 14.04295,14.30357 0.55977,-7.74559 -7.90211,0.93433 m 15.20538,13.06112 -0.0991,-7.76516 -7.79441,1.60111 m 16.25827,11.72456 -0.7573,-7.72878 -7.63054,2.25636 m 17.19401,10.30352 -1.41002,-7.63671 -7.4117,2.89534 m 18.00587,8.80825 -2.05258,-7.48962 -7.13946,3.51347 m 18.688,7.24952 -2.68035,-7.28858 -6.81578,4.10629 m 19.23548,5.63854 -3.28881,-7.03501 -6.44298,4.66951 m 19.64436,3.98695 -3.87357,-6.73075 -6.02377,5.19909 m 19.9117,2.30663 -4.43041,-6.37801 -5.56116,5.69122 m 20.03559,0.60968 -4.95535,-5.9793 -5.05848,6.14233 m 20.01512,-1.09164 -5.44458,-5.53752 -4.51935,6.54919 m 19.85043,-2.78511 -5.89457,-5.05584 -3.94766,6.90886 m 19.54273,-4.45851 -6.30211,-4.53773 -3.34752,7.21876 m 19.09421,-6.09979 -6.66423,-3.98692 -2.72327,7.47664 m 18.50814,-7.69712 -6.97834,-3.4074 -2.0794,7.68066 m 17.7887,-9.23899 -7.24217,-2.80331 -1.42054,7.82933 m 16.94109,-10.71429 -7.45381,-2.17904 -0.75145,7.9216 m 15.97142,-12.1124 -7.61175,-1.53906 -0.0769,7.95679 m 14.88668,-13.42324 -7.71486,-0.88799 0.59812,7.93465 m 13.69469,-14.63736 -7.76238,-0.23053 1.26887,7.85534 m 12.40402,-15.74602 -7.75396,0.4286 1.93048,7.71943 m 11.02397,-16.74122 -7.68968,1.08463 2.57818,7.52791 m 9.5645,-17.61581 -7.56999,1.73285 3.2073,7.28215 m 8.03613,-18.36348 -7.39577,2.36859 3.81332,6.98392 m 6.44984,-18.97884 -7.16825,2.98727 4.39185,6.63536 m 4.81709,-19.45745 -6.88909,3.58441 4.93875,6.23901 m 3.14963,-19.79587 -6.56029,4.15573 5.45006,5.79769 m 1.45947,-19.99166 -6.18422,4.69712 5.92211,5.31461 m -0.2412,-20.04342 -5.7636,5.20465 6.35148,4.79324"
         id="path3"
         sodipodi:nodetypes="ccc"
         inkscape:original-d="m 373.65265,122.11652 -5.31135,5.66543 6.72769,4.24907"
         inkscape:label="line-outer" />
      <path
         style="display:inline;fill:#66160b;fill-opacity:1;stroke:#66160b;stroke-width:0.2;stroke-linecap:round;stroke-linejoin:round;stroke-dasharray:none;stroke-opacity:1"
         d="m 371.62464,124.64533 0.69761,5.19416 2.96801,-3.00973 z m -1.95256,-9.64326 1.13559,5.11628 2.70207,-3.25059 z m -2.76334,-9.44294 1.5654,5.00154 2.41666,-3.46802 z m -3.55419,-9.174568 1.98391,4.850768 2.11385,-3.660483 z m -4.31945,-8.840103 2.38814,4.665044 1.7958,-3.826561 z m -5.05359,-8.441941 2.77517,4.445709 1.46482,-3.965071 z m -5.7513,-7.982955 3.14219,4.194342 1.12328,-4.075011 z m -6.40759,-7.466452 3.48658,3.912756 0.77365,-4.155592 z m -7.0177,-6.896153 3.80584,3.602978 0.41844,-4.206231 z m -7.57725,-6.276166 4.09768,3.26724 0.0602,-4.226565 z m -8.08222,-5.610961 4.36,2.907963 -0.29843,-4.216446 z m -8.52894,-4.905327 4.59091,2.527732 -0.65494,-4.175947 z m -8.91422,-4.164351 4.78874,2.12929 -1.00672,-4.105361 z m -9.23526,-3.393371 4.95206,1.715506 -1.35125,-4.005194 z m -9.48977,-2.597941 5.07971,1.289362 -1.68606,-3.876171 z m -9.67591,-1.783792 5.17076,0.853927 -2.0087,-3.71922 z m -9.79232,-0.956793 5.22454,0.412341 -2.31687,-3.535472 z m -9.83819,-0.122899 5.24069,-0.03222 -2.60836,-3.326251 z m -9.81317,0.711881 5.21908,-0.476542 -2.88105,-3.093064 z m -9.71744,1.541531 5.15986,-0.917434 -3.13298,-2.837591 z m -9.55171,2.360075 5.06347,-1.351716 -3.36234,-2.561673 z m -9.31715,3.161614 4.9306,-1.776259 -3.56747,-2.267299 z m -9.01546,3.940373 4.7622,-2.188003 -3.7469,-1.956588 z m -8.64882,4.690743 4.55949,-2.583983 -3.89933,-1.631781 z m -8.21985,5.407315 4.32392,-2.961346 -4.02366,-1.295216 z m -7.73167,6.084928 4.0572,-3.317372 -4.11901,-0.949319 z m -7.18778,6.718697 3.76126,-3.649495 -4.18469,-0.596583 z m -6.5921,7.30406 3.43821,-3.955325 -4.2202,-0.239547 z m -5.94892,7.836796 3.09038,-4.232656 -4.22531,0.119213 z m -5.26289,8.313068 2.7203,-4.479491 -4.19998,0.477115 z m -4.53893,8.729444 2.33061,-4.694051 -4.14438,0.83158 z m -3.78227,9.082928 1.92414,-4.874794 -4.05894,1.180052 z m -2.99835,9.37096 1.50379,-5.02041 -3.94424,1.52002 z m -2.19285,9.59148 1.07262,-5.12985 -3.80113,1.84904 z m -1.37152,9.74289 0.6337,-5.20233 -3.63062,2.16474 z m -0.54034,9.82411 0.19024,-5.23733 -3.43396,2.46483 z m 0.29476,9.83454 -0.25461,-5.2346 -3.21255,2.74718 z m 1.12772,9.77412 -0.69761,-5.19416 -2.96801,3.00973 z m 1.95256,9.64326 -1.13559,-5.11628 -2.70207,3.25059 z m 2.76334,9.44294 -1.5654,-5.00154 -2.41666,3.46802 z m 3.55419,9.17457 -1.98391,-4.85077 -2.11385,3.66048 z m 4.31945,8.8401 -2.38814,-4.66504 -1.7958,3.82656 z m 5.05359,8.44194 -2.77517,-4.44571 -1.46482,3.96507 z m 5.7513,7.98296 -3.14219,-4.19435 -1.12328,4.07502 z m 6.40759,7.46645 -3.48658,-3.91276 -0.77365,4.1556 z m 7.0177,6.89615 -3.80584,-3.60298 -0.41844,4.20624 z m 7.57725,6.27617 -4.09768,-3.26724 -0.0602,4.22656 z m 8.08222,5.61096 -4.36,-2.90796 0.29843,4.21644 z m 8.52894,4.90533 -4.59091,-2.52774 0.65494,4.17595 z m 8.91422,4.16435 -4.78874,-2.12929 1.00672,4.10536 z m 9.23526,3.39337 -4.95206,-1.71551 1.35125,4.0052 z m 9.48977,2.59794 -5.07971,-1.28936 1.68606,3.87617 z m 9.67591,1.78379 -5.17076,-0.85393 2.0087,3.71922 z m 9.79232,0.95679 -5.22454,-0.41234 2.31687,3.53548 z m 9.83819,0.1229 -5.24069,0.0322 2.60836,3.32625 z m 9.81317,-0.71188 -5.21908,0.47654 2.88105,3.09307 z m 9.71744,-1.54153 -5.15986,0.91743 3.13298,2.8376 z m 9.55171,-2.36007 -5.06347,1.35171 3.36234,2.56168 z m 9.31715,-3.16162 -4.9306,1.77626 3.56747,2.2673 z m 9.01546,-3.94037 -4.7622,2.188 3.7469,1.95659 z m 8.64882,-4.69074 -4.55949,2.58398 3.89933,1.63178 z m 8.21985,-5.40732 -4.32392,2.96135 4.02366,1.29521 z m 7.73167,-6.08493 -4.0572,3.31738 4.11901,0.94931 z m 7.18778,-6.71869 -3.76126,3.64949 4.18469,0.59658 z m 6.5921,-7.30406 -3.43821,3.95532 4.2202,0.23955 z m 5.94892,-7.8368 -3.09038,4.23266 4.22531,-0.11922 z m 5.26289,-8.31307 -2.7203,4.47949 4.19998,-0.47711 z m 4.53893,-8.72944 -2.33061,4.69405 4.14438,-0.83158 z m 3.78227,-9.08293 -1.92414,4.87479 4.05894,-1.18005 z m 2.99835,-9.37096 -1.50379,5.02041 3.94424,-1.52002 z m 2.19285,-9.59148 -1.07262,5.12985 3.80113,-1.84904 z m 1.37152,-9.74289 -0.6337,5.20233 3.63062,-2.16474 z m 0.54034,-9.82411 -0.19024,5.23733 3.43396,-2.46483 z m -0.29476,-9.83454 0.25461,5.2346 3.21255,-2.74718 z"
         id="path1"
         inkscape:original-d="m 371.65616,124.84517 0.68855,5.19536 2.97325,-3.00454 z"
         inkscape:label="triangles-outer" />
      <path
         style="display:inline;fill:#66160b;fill-opacity:1;stroke:#66160b;stroke-width:0.2;stroke-linecap:round;stroke-linejoin:round;stroke-dasharray:none;stroke-opacity:1"
         d="m 367.00225,130.16175 -2.81191,2.79037 3.29004,2.18508 z m -1.46809,-9.27113 -2.56513,3.01878 3.46349,1.8982 z m -2.24904,-9.11323 -2.29988,3.22545 3.61199,1.59763 z m -3.0138,-8.88967 -2.01806,3.40887 3.73447,1.28556 z m -3.75683,-8.602055 -1.7217,3.567736 3.83004,0.964221 z m -4.47281,-8.252464 -1.41293,3.700894 3.89801,0.635937 z m -5.15655,-7.843413 -1.09398,3.807385 3.9379,0.303072 z m -5.80315,-7.377852 -0.76715,3.886446 3.94942,-0.03198 z m -6.40792,-6.859132 -0.43479,3.937504 3.93247,-0.366797 z m -6.96653,-6.290992 -0.0993,3.960192 3.88721,-0.698973 z m -7.47495,-5.677525 0.2369,3.954347 3.81392,-1.026113 z m -7.92951,-5.023152 0.5714,3.920011 3.71316,-1.34586 z m -8.32694,-4.332586 0.90178,3.857431 3.58565,-1.65591 z m -8.66437,-3.610805 1.22567,3.767058 3.4323,-1.954029 z m -8.93937,-2.863007 1.54072,3.649543 3.25423,-2.238069 z m -9.14996,-2.094582 1.84467,3.505734 3.0527,-2.505984 z m -9.29464,-1.311064 2.13533,3.336665 2.82918,-2.755843 z m -9.37234,-0.518101 2.41061,3.143556 2.58528,-2.985846 z m -9.38251,0.278596 2.66851,2.927797 2.32275,-3.194337 z m -9.32509,1.073284 2.9072,2.690944 2.04348,-3.379812 z m -9.20047,1.860241 3.12493,2.434702 1.74949,-3.540936 z m -9.00957,2.633793 3.32016,2.160918 1.44289,-3.676546 z m -8.75375,3.38837 3.49145,1.871565 1.12591,-3.785667 z m -8.43486,4.118533 3.6376,1.568727 0.8008,-3.867513 z m -8.05519,4.819022 3.75752,1.254586 0.46993,-3.921493 z m -7.6175,5.48479 3.85039,0.931406 0.13566,-3.947218 z m -7.12491,6.111039 3.9155,0.601515 -0.19957,-3.944503 z m -6.58099,6.693259 3.95241,0.267291 -0.53337,-3.913369 z m -5.98966,7.227254 3.96084,-0.06886 -0.86332,-3.854039 z m -5.35516,7.709176 3.94073,-0.404515 -1.18706,-3.766939 z m -4.68209,8.135553 3.89223,-0.737255 -1.50224,-3.6527 z m -3.97528,8.50331 3.81569,-1.06468 -1.8066,-3.512142 z m -3.23982,8.80981 3.71164,-1.38444 -2.09794,-3.34628 z m -2.48103,9.05283 3.58086,-1.69423 -2.37416,-3.1563 z m -1.70436,9.23062 3.42428,-1.9918 -2.63328,-2.94359 z m -0.91541,9.3419 3.24304,-2.27502 -2.87344,-2.70967 z m -0.11986,9.38588 3.03842,-2.54185 -3.09288,-2.45622 z m 0.67655,9.36224 2.81191,-2.79037 -3.29004,-2.18508 z m 1.46809,9.27113 2.56513,-3.01878 -3.46349,-1.8982 z m 2.24904,9.11323 2.29988,-3.22545 -3.61199,-1.59763 z m 3.0138,8.88967 2.01806,-3.40887 -3.73447,-1.28556 z m 3.75683,8.60205 1.7217,-3.56773 -3.83004,-0.96422 z m 4.47281,8.25247 1.41293,-3.70089 -3.89801,-0.63594 z m 5.15655,7.84341 1.09398,-3.80738 -3.9379,-0.30307 z m 5.80315,7.37785 0.76715,-3.88644 -3.94942,0.032 z m 6.40792,6.85914 0.43479,-3.93751 -3.93247,0.3668 z m 6.96653,6.29099 0.0993,-3.96019 -3.88721,0.69897 z m 7.47495,5.67752 -0.2369,-3.95434 -3.81392,1.02611 z m 7.92951,5.02315 -0.5714,-3.92001 -3.71316,1.34586 z m 8.32694,4.33259 -0.90178,-3.85743 -3.58565,1.65591 z m 8.66437,3.61081 -1.22567,-3.76706 -3.4323,1.95403 z m 8.93937,2.863 -1.54072,-3.64954 -3.25423,2.23807 z m 9.14996,2.09458 -1.84467,-3.50573 -3.0527,2.50598 z m 9.29464,1.31107 -2.13533,-3.33667 -2.82918,2.75585 z m 9.37234,0.5181 -2.41061,-3.14356 -2.58528,2.98585 z m 9.38251,-0.2786 -2.66851,-2.92779 -2.32275,3.19433 z m 9.32509,-1.07328 -2.9072,-2.69094 -2.04348,3.37981 z m 9.20047,-1.86024 -3.12493,-2.4347 -1.74949,3.54093 z m 9.00957,-2.63379 -3.32016,-2.16092 -1.44289,3.67654 z m 8.75375,-3.38837 -3.49145,-1.87157 -1.12591,3.78567 z m 8.43486,-4.11854 -3.6376,-1.56872 -0.8008,3.86751 z m 8.05519,-4.81902 -3.75752,-1.25458 -0.46993,3.92149 z m 7.6175,-5.48479 -3.85039,-0.9314 -0.13566,3.94721 z m 7.12491,-6.11104 -3.9155,-0.60151 0.19957,3.9445 z m 6.58099,-6.69326 -3.95241,-0.26729 0.53337,3.91337 z m 5.98966,-7.22725 -3.96084,0.0689 0.86332,3.85404 z m 5.35516,-7.70918 -3.94073,0.40452 1.18706,3.76694 z m 4.68209,-8.13555 -3.89223,0.73725 1.50224,3.6527 z m 3.97528,-8.50331 -3.81569,1.06468 1.8066,3.51214 z m 3.23982,-8.80981 -3.71164,1.38444 2.09794,3.34628 z m 2.48103,-9.05283 -3.58086,1.69423 2.37416,3.1563 z m 1.70436,-9.23062 -3.42428,1.9918 2.63328,2.94359 z m 0.91541,-9.3419 -3.24304,2.27502 2.87344,2.70967 z m 0.11986,-9.38588 -3.03842,2.54185 3.09288,2.45622 z"
         id="path2"
         sodipodi:nodetypes="cccc"
         inkscape:original-d="m 367.02415,130.35351 -2.81677,2.78546 3.28622,2.19082 z"
         inkscape:label="triangles-inner" />
    </g>
    <path
       style="display:inline;fill:none;fill-opacity:0.260038;stroke:#66160b;stroke-width:1.24995;stroke-linecap:round;stroke-linejoin:round;stroke-dasharray:none;stroke-opacity:1"
       id="path5"
       inkscape:path-effect="#path-effect6"
       sodipodi:type="arc"
       sodipodi:cx="257.14337"
       sodipodi:cy="142.80612"
       sodipodi:rx="121.466"
       sodipodi:ry="121.87558"
       d="m 257.14258,21.740234 c -66.64458,0 -120.6543,54.192656 -120.6543,121.066406 0,66.87375 54.0097,121.06445 120.6543,121.06445 66.64459,0 120.65625,-54.19071 120.65625,-121.06445 0,-66.873734 -54.01167,-121.066406 -120.65625,-121.066406 z"
       inkscape:label="circle-outer"
       transform="matrix(1.0018141,0,0,0.99827516,-0.48211816,0.44421837)" />
    <path
       style="display:inline;fill:none;fill-opacity:0.260038;stroke:#66160b;stroke-width:1.2;stroke-linecap:round;stroke-linejoin:round;stroke-dasharray:none;stroke-opacity:1"
       id="path6"
       inkscape:path-effect="#path-effect8"
       sodipodi:type="arc"
       sodipodi:cx="257.14337"
       sodipodi:cy="142.80612"
       sodipodi:rx="121.466"
       sodipodi:ry="121.87558"
       d="m 257.14258,36.939453 c -58.40198,0 -105.45508,47.180348 -105.45508,105.867187 0,58.68684 47.05279,105.86523 105.45508,105.86523 58.40229,10e-6 105.45703,-47.1787 105.45703,-105.86523 0,-58.686529 -47.05505,-105.867187 -105.45703,-105.867187 z"
       inkscape:label="circle-inner"
       transform="matrix(1.0041644,0,0,0.99988403,-1.0686506,0.27106284)" />
  </g>
  <g
     inkscape:groupmode="layer"
     id="layer2"
     inkscape:label="writing"
     style="display:inline">
    <g
       inkscape:groupmode="layer"
       id="layer5"
       inkscape:label="ko"
       style="display:inline">
      <path
         original-d="m 169.61472,47.395757 0.0484,20.58341 67.2065,0.07199 -0.10858,-20.49458 z"
         d="m 169.625,42.896484 a 4.5,4.5 0 0 0 -4.50977,4.509766 l 0.0488,20.582031 a 4.5,4.5 0 0 0 4.4961,4.490235 l 67.20507,0.07227 a 4.5,4.5 0 0 0 4.50391,-4.523437 l -0.10742,-20.494141 a 4.5,4.5 0 0 0 -4.49024,-4.476562 z"
         id="use8"
         inkscape:path-effect="#path-effect16;#path-effect17"
         inkscape:original-d="m 169.61472,47.395757 0.0484,20.58341 67.2065,0.07199 -0.10858,-20.49458 z"
         class="fromclone"
         style="display:inline;opacity:1;fill:#ffffff;fill-opacity:1;stroke:none;stroke-width:9;stroke-linecap:round;stroke-linejoin:round;stroke-miterlimit:0;stroke-dasharray:none;stroke-opacity:1;paint-order:stroke markers fill"
         inkscape:label="up-outline" />
      <path
         id="path8"
         d="m 169.61472,47.395757 0.0484,20.58341 67.2065,0.07199 -0.10858,-20.49458 z"
         style="display:inline;opacity:1;fill:#e3006c;fill-opacity:1;stroke:none;stroke-width:9;stroke-linecap:round;stroke-linejoin:round;stroke-miterlimit:0;stroke-dasharray:none;stroke-opacity:1;paint-order:stroke markers fill"
         inkscape:label="up"
         sodipodi:nodetypes="ccccc" />
      <path
         original-d="m 176.42101,42.362589 -16.56483,13.572412 c 12.86298,15.335284 41.06269,27.09253 85.68952,19.130402 L 241.65337,54.84752 c -20.20152,3.593858 -49.24901,4.883452 -65.23236,-12.484931 z"
         d="m 176.42773,37.863281 a 4.5,4.5 0 0 0 -2.85742,1.019531 l -16.5664,13.572266 a 4.5,4.5 0 0 0 -0.59571,6.373047 c 14.20249,16.932246 44.26886,28.812276 89.92774,20.666016 a 4.5,4.5 0 0 0 3.62695,-5.279297 l -3.89062,-20.216797 a 4.5,4.5 0 0 0 -5.20704,-3.580078 c -11.7912,2.097659 -26.62343,3.308671 -39.42578,0.484375 -8.5349,-1.882864 -16.07961,-5.470875 -21.70703,-11.585938 a 4.5,4.5 0 0 0 -3.30469,-1.453125 z"
         id="use7"
         inkscape:path-effect="#path-effect9;#path-effect14"
         inkscape:original-d="m 176.42101,42.362589 -16.56483,13.572412 c 12.86298,15.335284 41.06269,27.09253 85.68952,19.130402 L 241.65337,54.84752 c -20.20152,3.593858 -49.24901,4.883452 -65.23236,-12.484931 z"
         transform="translate(-2.2983872,49.453145)"
         class="fromclone"
         style="fill:#ffffff;fill-opacity:1;stroke:none"
         inkscape:label="down-outline" />
      <path
         id="path8-2"
         d="m 176.42101,42.362589 -16.56483,13.572412 c 12.86298,15.335284 41.06269,27.09253 85.68952,19.130402 L 241.65337,54.84752 c -20.20152,3.593858 -49.24901,4.883452 -65.23236,-12.484931 z"
         style="display:inline;opacity:1;fill:#e3006c;fill-opacity:1;stroke:none;stroke-width:9;stroke-linecap:round;stroke-linejoin:round;stroke-miterlimit:0;stroke-dasharray:none;stroke-opacity:1;paint-order:stroke markers fill"
         inkscape:label="down"
         sodipodi:nodetypes="ccccc"
         transform="translate(-2.2983872,49.453145)" />
    </g>
    <g
       inkscape:groupmode="layer"
       id="g9"
       inkscape:label="no"
       style="display:inline">
      <path
         original-d="m 210.78612,39.857864 -19.36017,-9.729065 -16.02574,27.288537 c -7.66687,-12.500994 0.5158,-34.228873 23.46968,-34.53558 22.95388,-0.306707 37.52976,26.004186 17.11158,50.012394 l 17.25057,12.547788 C 261.17208,54.510803 248.02837,2.0412048 199.36282,2.2529654 150.69727,2.464726 133.90277,57.074715 169.53107,82.563273 l 13.10615,5.386185 z"
         d="m 199.34375,-2.2460938 c -52.86562,0.2300366 -71.7006,60.3756578 -32.43164,88.4687498 a 4.5,4.5 0 0 0 0.9082,0.501953 l 13.10547,5.386719 a 4.5,4.5 0 0 0 5.59375,-1.888672 l 28.14844,-48.091797 a 4.5,4.5 0 0 0 -1.86133,-6.294922 l -16.5332,-8.308593 c 0.85197,-0.08431 1.73757,-0.134209 2.65625,-0.146485 9.74521,-0.130214 17.33148,5.230009 20.60547,13.115235 1.63699,3.942613 2.18216,8.537471 1.19921,13.544922 -0.98294,5.00745 -3.50914,10.445763 -8.17968,15.9375 a 4.5,4.5 0 0 0 0.78125,6.554687 l 17.25,12.546875 a 4.5,4.5 0 0 0 5.98633,-0.623047 C 267.09955,54.661675 251.97102,-2.4750931 199.34375,-2.2460938 Z"
         id="use1"
         inkscape:path-effect="#path-effect3;#path-effect7"
         inkscape:original-d="m 210.78612,39.857864 -19.36017,-9.729065 -16.02574,27.288537 c -7.66687,-12.500994 0.5158,-34.228873 23.46968,-34.53558 22.95388,-0.306707 37.52976,26.004186 17.11158,50.012394 l 17.25057,12.547788 C 261.17208,54.510803 248.02837,2.0412048 199.36282,2.2529654 150.69727,2.464726 133.90277,57.074715 169.53107,82.563273 l 13.10615,5.386185 z"
         transform="translate(102.98594,42.317347)"
         class="fromclone"
         style="display:inline;opacity:1;mix-blend-mode:normal;fill:#ffffff;fill-opacity:1;stroke:none;stroke-width:0.5;stroke-linecap:round;stroke-linejoin:round;stroke-miterlimit:0;stroke-dasharray:none;stroke-opacity:0.250471;paint-order:stroke markers fill"
         inkscape:label="outline" />
      <path
         id="path9"
         d="m 210.78612,39.857864 -19.36017,-9.729065 -16.02574,27.288537 c -7.66687,-12.500994 0.5158,-34.228873 23.46968,-34.53558 22.95388,-0.306707 37.52976,26.004186 17.11158,50.012394 l 17.25057,12.547788 C 261.17208,54.510803 248.02837,2.0412048 199.36282,2.2529654 150.69727,2.464726 133.90277,57.074715 169.53107,82.563273 l 13.10615,5.386185 z"
         style="display:inline;opacity:1;mix-blend-mode:normal;fill:#ee8100;fill-opacity:1;stroke:none;stroke-width:0.5;stroke-linecap:round;stroke-linejoin:round;stroke-miterlimit:0;stroke-dasharray:none;stroke-opacity:0.250471;paint-order:stroke markers fill"
         inkscape:label="main"
         sodipodi:nodetypes="ccczcczccc"
         transform="translate(102.98594,42.317347)" />
    </g>
    <g
       inkscape:groupmode="layer"
       id="layer3"
       inkscape:label="su">
      <path
         original-d="m 195.79993,136.26507 -0.005,7.41091 h -33.85065 v 20.64681 h 33.83618 l -0.001,1.22111 c -0.69497,-0.0343 -1.40699,-0.0517 -2.1363,-0.0517 -14.2096,0 -29.34911,9.67473 -29.34911,28.11767 0,13.33081 11.13439,24.49049 25.32507,24.49049 5.26862,0 9.52041,-1.49723 12.95114,-3.91397 -2.894,9.86257 -8.07754,17.60099 -8.07754,17.60099 l 18.14928,9.83351 c 0,0 11.36158,-15.33118 11.36158,-39.52317 0,-6.51021 -0.86932,-17.85814 -7.09104,-26.19788 l 0.0109,-11.57707 h 22.53816 v -20.64681 h -22.51852 l 0.007,-7.41091 z m -0.0346,48.83578 -0.006,8.75812 c 0,0 -1.26649,4.75991 -5.80688,4.75991 -3.22848,0 -4.45709,-2.91727 -4.45709,-5.23947 0,-7.76478 8.23908,-8.30626 10.27017,-8.27856 z"
         d="m 195.80078,131.76562 a 4.5,4.5 0 0 0 -4.5,4.4961 l -0.002,2.91406 h -29.35547 a 4.5,4.5 0 0 0 -4.5,4.5 v 20.64649 a 4.5,4.5 0 0 0 4.5,4.5 h 9.24805 c -6.75555,5.50902 -11.39649,13.85053 -11.39649,24.7871 0,15.8982 13.20972,28.99024 29.82422,28.99024 1.7698,0 3.45114,-0.14251 5.04688,-0.41602 -0.41373,0.86914 -0.82126,1.67695 -1.20704,2.41407 -1.56006,2.98085 -1.54726,2.95713 -2.70507,4.68554 a 4.5,4.5 0 0 0 1.59375,6.46094 l 18.15039,9.83398 a 4.5,4.5 0 0 0 5.75976,-1.27734 c 0.29464,-0.39759 0.99264,-1.45346 1.39258,-2.09961 3.19327,-5.15907 10.85352,-19.66281 10.85352,-40.10351 0,-6.45464 -0.80806,-18.27954 -7.08985,-27.625 l 0.006,-5.65039 h 18.04102 a 4.5,4.5 0 0 0 4.5,-4.5 v -20.64649 a 4.5,4.5 0 0 0 -4.5,-4.5 h -18.01367 l 0.002,-2.90625 a 4.5,4.5 0 0 0 -4.5,-4.50391 z m -4.53906,58.91602 -0.002,2.35547 c -0.2248,0.45364 -0.61426,0.89427 -0.83985,0.99805 -0.07,0.0322 -0.13875,0.0627 -0.2832,0.0762 -0.0616,-0.19125 -0.14063,-0.49293 -0.14063,-0.73242 0,-1.14545 0.23368,-1.60691 0.49805,-1.98243 0.17981,-0.25539 0.42791,-0.49357 0.76758,-0.71484 z"
         id="use19"
         inkscape:path-effect="#path-effect19;#path-effect20"
         inkscape:original-d="m 195.79993,136.26507 -0.005,7.41091 h -33.85065 v 20.64681 h 33.83618 l -0.001,1.22111 c -0.69497,-0.0343 -1.40699,-0.0517 -2.1363,-0.0517 -14.2096,0 -29.34911,9.67473 -29.34911,28.11767 0,13.33081 11.13439,24.49049 25.32507,24.49049 5.26862,0 9.52041,-1.49723 12.95114,-3.91397 -2.894,9.86257 -8.07754,17.60099 -8.07754,17.60099 l 18.14928,9.83351 c 0,0 11.36158,-15.33118 11.36158,-39.52317 0,-6.51021 -0.86932,-17.85814 -7.09104,-26.19788 l 0.0109,-11.57707 h 22.53816 v -20.64681 h -22.51852 l 0.007,-7.41091 z m -0.0346,48.83578 -0.006,8.75812 c 0,0 -1.26649,4.75991 -5.80688,4.75991 -3.22848,0 -4.45709,-2.91727 -4.45709,-5.23947 0,-7.76478 8.23908,-8.30626 10.27017,-8.27856 z"
         class="fromclone"
         style="display:inline;fill:#ffffff;fill-opacity:1;stroke:none;stroke-width:0.499999;stroke-linecap:round;stroke-linejoin:round;stroke-miterlimit:0;stroke-dasharray:none;stroke-opacity:0.250471;paint-order:stroke markers fill"
         inkscape:label="outline" />
      <path
         id="rect17"
         style="display:inline;fill:#90c31c;fill-opacity:1;stroke:none;stroke-width:0.499999;stroke-linecap:round;stroke-linejoin:round;stroke-miterlimit:0;stroke-dasharray:none;stroke-opacity:0.250471;paint-order:stroke markers fill"
         d="m 195.79993,136.26507 -0.005,7.41091 h -33.85065 v 20.64681 h 33.83618 l -0.001,1.22111 c -0.69497,-0.0343 -1.40699,-0.0517 -2.1363,-0.0517 -14.2096,0 -29.34911,9.67473 -29.34911,28.11767 0,13.33081 11.13439,24.49049 25.32507,24.49049 5.26862,0 9.52041,-1.49723 12.95114,-3.91397 -2.894,9.86257 -8.07754,17.60099 -8.07754,17.60099 l 18.14928,9.83351 c 0,0 11.36158,-15.33118 11.36158,-39.52317 0,-6.51021 -0.86932,-17.85814 -7.09104,-26.19788 l 0.0109,-11.57707 h 22.53816 v -20.64681 h -22.51852 l 0.007,-7.41091 z m -0.0346,48.83578 -0.006,8.75812 c 0,0 -1.26649,4.75991 -5.80688,4.75991 -3.22848,0 -4.45709,-2.91727 -4.45709,-5.23947 0,-7.76478 8.23908,-8.30626 10.27017,-8.27856 z"
         inkscape:label="main" />
    </g>
    <g
       inkscape:groupmode="layer"
       id="layer4"
       inkscape:label="ba">
      <path
         original-d="m 349.79149,171.68894 11.40657,-10.55298 -8.59775,-7.95875 8.59775,-7.87363 -11.41826,-10.42434 -11.40656,10.42434 8.58647,7.87363 -8.58647,7.95875 z"
         d="m 349.47461,130.38867 a 4.5,4.5 0 0 0 -2.73047,1.16797 l -11.40625,10.42383 a 4.5,4.5 0 0 0 -0.006,6.63867 l 4.98828,4.57617 -5.00586,4.64063 a 4.5,4.5 0 0 0 0.004,6.60547 l 11.41797,10.55273 a 4.5,4.5 0 0 0 6.11133,-0.002 l 11.40625,-10.55274 a 4.5,4.5 0 0 0 0,-6.60547 l -5.01172,-4.63867 4.99414,-4.57422 a 4.5,4.5 0 0 0 -0.006,-6.64257 L 352.8125,131.55469 a 4.5,4.5 0 0 0 -3.33789,-1.16602 z"
         id="use22"
         inkscape:path-effect="#path-effect22;#path-effect23"
         inkscape:original-d="m 349.79149,171.68894 11.40657,-10.55298 -8.59775,-7.95875 8.59775,-7.87363 -11.41826,-10.42434 -11.40656,10.42434 8.58647,7.87363 -8.58647,7.95875 z"
         class="fromclone"
         style="display:inline;fill:#ffffff;fill-opacity:1;stroke:none;stroke-width:0.499999;stroke-linecap:round;stroke-linejoin:round;stroke-miterlimit:0;stroke-dasharray:none;stroke-opacity:0.250471;paint-order:stroke markers fill"
         inkscape:label="squares-outline" />
      <path
         original-d="m 309.49222,144.14417 v 8.50698 l -24.73544,0.0522 v 20.66437 h 24.73544 v 11.23446 c -0.16196,-0.001 -0.31789,-0.002 -0.46767,-0.002 -16.05938,0 -33.17679,9.82157 -33.17679,29.38477 0,13.38938 10.42601,26.32088 27.38748,26.32088 20.72202,0 28.53469,-17.85086 28.65871,-26.32088 l -0.0124,-6.90242 c 3.6234,0.53676 7.1106,1.19683 10.00559,1.99161 l 4.9537,-20.25613 c -4.56484,-1.07627 -9.8207,-1.91941 -14.99598,-2.55953 l -0.0227,-12.89069 h 8.05222 l -0.0165,-20.78012 -8.07289,0.017 -0.015,-8.46047 z m -0.52607,61.02987 c 0.31741,0.005 0.50724,0.0176 0.52607,0.0176 v 8.79326 c 0,0 -0.93203,5.74487 -6.25698,5.74487 -3.09536,0 -4.97438,-2.46067 -4.97438,-5.74487 0,-8.44328 8.48346,-8.8428 10.70529,-8.81083 z"
         d="m 309.49219,139.64453 a 4.5,4.5 0 0 0 -4.5,4.5 v 4.01563 l -20.2461,0.043 a 4.5,4.5 0 0 0 -4.49023,4.5 v 20.66407 a 4.5,4.5 0 0 0 4.5,4.5 h 20.23633 v 2.41992 c -16.87217,1.56085 -33.64453,12.8881 -33.64453,33.69726 0,15.87881 12.44981,30.82227 31.88671,30.82227 23.12448,0 32.99826,-19.69866 33.16016,-30.75586 a 4.5,4.5 0 0 0 0,-0.0762 l -0.004,-1.55664 c 1.56475,0.30967 3.0223,0.64403 4.30469,0.99609 a 4.5,4.5 0 0 0 5.5625,-3.27148 l 4.95508,-20.25586 A 4.5,4.5 0 0 0 347.875,184.4375 c -3.58094,-0.84429 -7.55756,-1.54646 -11.53711,-2.11914 l -0.008,-4.45117 h 3.54492 a 4.5,4.5 0 0 0 4.5,-4.50391 l -0.0176,-20.7793 a 4.5,4.5 0 0 0 -4.50976,-4.49609 l -3.57032,0.008 -0.008,-3.95898 a 4.5,4.5 0 0 0 -4.5,-4.49219 z m -4.5,70.69727 v 3.12109 c -0.006,0.018 -0.0126,0.0388 -0.0195,0.0606 -0.0859,0.27107 -0.24326,0.65243 -0.42774,0.94726 -0.18448,0.29484 -0.37256,0.48094 -0.52344,0.57813 -0.15087,0.0972 -0.26518,0.18164 -0.78711,0.18164 -0.12741,0 -0.18082,0.004 -0.19921,0.006 0.003,-6.3e-4 0.007,-0.003 0.01,-0.004 0,0 0.002,-0.002 0.002,-0.002 0,0 0.002,0 0.002,0 0,0 0.002,-0.002 0.002,-0.002 0,0 0,-0.002 0,-0.002 0,0 0.002,0 0.002,0 0,0 0,-0.002 0,-0.002 0,0 0,-0.002 0,-0.002 0,0 0,-0.002 0,-0.002 0,0 0,-0.002 0,-0.002 0,0 -0.002,0 -0.002,0 0,0 0,-0.002 0,-0.002 0,0 -0.002,-0.002 -0.002,-0.002 -6e-4,-8.4e-4 -0.001,-0.003 -0.002,-0.004 -0.009,-0.0104 -0.026,-0.0323 -0.0508,-0.0742 -0.0826,-0.13988 -0.23437,-0.5246 -0.23437,-1.15235 0,-1.35726 0.28155,-1.97188 0.58398,-2.41796 0.30244,-0.44609 0.73009,-0.79609 1.38282,-1.10938 0.0848,-0.0407 0.17269,-0.0783 0.26367,-0.11523 z"
         id="use23"
         inkscape:path-effect="#path-effect24;#path-effect25"
         inkscape:original-d="m 309.49222,144.14417 v 8.50698 l -24.73544,0.0522 v 20.66437 h 24.73544 v 11.23446 c -0.16196,-0.001 -0.31789,-0.002 -0.46767,-0.002 -16.05938,0 -33.17679,9.82157 -33.17679,29.38477 0,13.38938 10.42601,26.32088 27.38748,26.32088 20.72202,0 28.53469,-17.85086 28.65871,-26.32088 l -0.0124,-6.90242 c 3.6234,0.53676 7.1106,1.19683 10.00559,1.99161 l 4.9537,-20.25613 c -4.56484,-1.07627 -9.8207,-1.91941 -14.99598,-2.55953 l -0.0227,-12.89069 h 8.05222 l -0.0165,-20.78012 -8.07289,0.017 -0.015,-8.46047 z m -0.52607,61.02987 c 0.31741,0.005 0.50724,0.0176 0.52607,0.0176 v 8.79326 c 0,0 -0.93203,5.74487 -6.25698,5.74487 -3.09536,0 -4.97438,-2.46067 -4.97438,-5.74487 0,-8.44328 8.48346,-8.8428 10.70529,-8.81083 z"
         class="fromclone"
         style="fill:#ffffff;fill-opacity:1;stroke:none;stroke-width:0.499999;stroke-linecap:round;stroke-linejoin:round;stroke-miterlimit:0;stroke-opacity:0.250471;paint-order:stroke markers fill"
         inkscape:label="main-outline" />
      <path
         original-d="m 251.7345,146.34766 h 22.36393 v 76.1073 H 251.7345 Z"
         d="m 251.73437,141.84766 a 4.5,4.5 0 0 0 -4.5,4.5 v 76.10742 a 4.5,4.5 0 0 0 4.5,4.5 h 22.36329 a 4.5,4.5 0 0 0 4.5,-4.5 v -76.10742 a 4.5,4.5 0 0 0 -4.5,-4.5 z"
         id="use28"
         inkscape:path-effect="#path-effect29;#path-effect30"
         inkscape:original-d="m 251.7345,146.34766 h 22.36393 v 76.1073 H 251.7345 Z"
         class="fromclone"
         style="display:inline;fill:#ffffff;stroke:none;stroke-width:0.499999;stroke-linecap:round;stroke-linejoin:round;stroke-miterlimit:0;stroke-opacity:1;paint-order:stroke markers fill;fill-opacity:1"
         inkscape:label="left-outline" />
      <path
         style="display:inline;fill:#009edf;fill-opacity:1;stroke:none;stroke-width:0.499999;stroke-linecap:round;stroke-linejoin:round;stroke-miterlimit:0;stroke-dasharray:none;stroke-opacity:0.250471;paint-order:stroke markers fill"
         d="m 349.79149,171.68894 11.40657,-10.55298 -8.59775,-7.95875 8.59775,-7.87363 -11.41826,-10.42434 -11.40656,10.42434 8.58647,7.87363 -8.58647,7.95875 z"
         id="path21"
         sodipodi:nodetypes="ccccccccc"
         inkscape:label="sqares" />
      <path
         id="rect20"
         style="fill:#009edf;fill-opacity:1;stroke:none;stroke-width:0.499999;stroke-linecap:round;stroke-linejoin:round;stroke-miterlimit:0;stroke-opacity:0.250471;paint-order:stroke markers fill"
         d="m 309.49222,144.14417 v 8.50698 l -24.73544,0.0522 v 20.66437 h 24.73544 v 11.23446 c -0.16196,-0.001 -0.31789,-0.002 -0.46767,-0.002 -16.05938,0 -33.17679,9.82157 -33.17679,29.38477 0,13.38938 10.42601,26.32088 27.38748,26.32088 20.72202,0 28.53469,-17.85086 28.65871,-26.32088 l -0.0124,-6.90242 c 3.6234,0.53676 7.1106,1.19683 10.00559,1.99161 l 4.9537,-20.25613 c -4.56484,-1.07627 -9.8207,-1.91941 -14.99598,-2.55953 l -0.0227,-12.89069 h 8.05222 l -0.0165,-20.78012 -8.07289,0.017 -0.015,-8.46047 z m -0.52607,61.02987 c 0.31741,0.005 0.50724,0.0176 0.52607,0.0176 v 8.79326 c 0,0 -0.93203,5.74487 -6.25698,5.74487 -3.09536,0 -4.97438,-2.46067 -4.97438,-5.74487 0,-8.44328 8.48346,-8.8428 10.70529,-8.81083 z"
         inkscape:label="main" />
      <path
         id="rect22"
         style="display:inline;fill:#009edf;stroke-width:0.499999;stroke-linecap:round;stroke-linejoin:round;stroke-miterlimit:0;stroke-opacity:1;paint-order:stroke markers fill;stroke:none"
         inkscape:label="left"
         d="m 251.7345,146.34766 h 22.36393 v 76.1073 H 251.7345 Z" />
    </g>
  </g>
</svg>
