<?xml version="1.0" encoding="UTF-8" standalone="no"?>
<!-- Created with Inkscape (http://www.inkscape.org/) -->

<svg
   version="1.1"
   id="svg1"
   width="297mm"
   height="210mm"
   viewBox="0 0 297 210"
   sodipodi:docname="asobi-asobase-title.svg"
   inkscape:version="1.4.4 (dcaf3e7, 2026-05-05)"
   xmlns:inkscape="http://www.inkscape.org/namespaces/inkscape"
   xmlns:sodipodi="http://sodipodi.sourceforge.net/DTD/sodipodi-0.dtd"
   xmlns="http://www.w3.org/2000/svg"
   xmlns:svg="http://www.w3.org/2000/svg">
  <defs
     id="defs1">
    <inkscape:path-effect
       effect="bspline"
       id="path-effect29"
       is_visible="true"
       lpeversion="1.3"
       weight="33.333333"
       steps="2"
       helper_size="0"
       apply_no_weight="true"
       apply_with_weight="true"
       only_selected="false"
       uniform="false" />
    <inkscape:path-effect
       effect="bspline"
       id="path-effect28"
       is_visible="true"
       lpeversion="1.3"
       weight="33.333333"
       steps="2"
       helper_size="0"
       apply_no_weight="true"
       apply_with_weight="true"
       only_selected="false"
       uniform="false" />
    <inkscape:path-effect
       effect="spiro"
       id="path-effect27"
       is_visible="false"
       lpeversion="1" />
    <inkscape:path-effect
       effect="ellipse_5pts"
       id="path-effect26"
       is_visible="false"
       lpeversion="1" />
    <inkscape:path-effect
       effect="bspline"
       id="path-effect25"
       is_visible="false"
       lpeversion="1.3"
       weight="5"
       steps="5"
       helper_size="1"
       apply_no_weight="false"
       apply_with_weight="false"
       only_selected="false"
       uniform="false" />
    <inkscape:path-effect
       effect="bspline"
       id="path-effect24"
       is_visible="true"
       lpeversion="1.3"
       weight="33.333333"
       steps="2"
       helper_size="0"
       apply_no_weight="true"
       apply_with_weight="true"
       only_selected="false"
       uniform="false" />
    <inkscape:path-effect
       effect="bspline"
       id="path-effect23"
       is_visible="true"
       lpeversion="1.3"
       weight="33.333333"
       steps="2"
       helper_size="0"
       apply_no_weight="true"
       apply_with_weight="true"
       only_selected="false"
       uniform="false" />
    <inkscape:path-effect
       effect="spiro"
       id="path-effect22"
       is_visible="false"
       lpeversion="1" />
    <inkscape:path-effect
       effect="simplify"
       id="path-effect21"
       is_visible="false"
       lpeversion="1.3"
       threshold="66.91293"
       steps="1"
       smooth_angles="54.052478"
       helper_size="2.5364431"
       simplify_individual_paths="false"
       simplify_just_coalesce="false" />
    <inkscape:path-effect
       effect="bspline"
       id="path-effect20"
       is_visible="true"
       lpeversion="1.3"
       weight="33.333333"
       steps="2"
       helper_size="0"
       apply_no_weight="true"
       apply_with_weight="true"
       only_selected="false"
       uniform="false" />
    <inkscape:path-effect
       effect="fillet_chamfer"
       id="path-effect19"
       is_visible="true"
       lpeversion="1"
       nodesatellites_param="F,0,0,1,0,0,0,1 @ F,0,0,1,0,0,0,1 @ F,0,0,1,0,0,0,1 @ F,0,0,1,0,1.1995036,0,1 @ F,0,0,1,0,0,0,1 @ F,0,0,1,0,0,0,1"
       radius="0"
       unit="px"
       method="auto"
       mode="F"
       chamfer_steps="1"
       flexible="false"
       use_knot_distance="true"
       apply_no_radius="true"
       apply_with_radius="true"
       only_selected="false"
       hide_knots="false" />
    <inkscape:path-effect
       effect="spiro"
       id="path-effect18"
       is_visible="false"
       lpeversion="1" />
    <inkscape:path-effect
       effect="powerstroke"
       message=""
       id="path-effect16"
       is_visible="true"
       lpeversion="1.3"
       scale_width="1"
       interpolator_type="CubicBezierJohan"
       interpolator_beta="0.2"
       start_linecap_type="zerowidth"
       end_linecap_type="zerowidth"
       offset_points="0,4.9921385"
       linejoin_type="extrp_arc"
       miter_limit="4"
       not_jump="false"
       sort_points="true" />
    <inkscape:path-effect
       effect="spiro"
       id="path-effect15"
       is_visible="true"
       lpeversion="1" />
    <inkscape:path-effect
       effect="powerstroke"
       message=""
       id="path-effect13"
       is_visible="true"
       lpeversion="1.3"
       scale_width="1"
       interpolator_type="CubicBezierJohan"
       interpolator_beta="0.2"
       start_linecap_type="zerowidth"
       end_linecap_type="zerowidth"
       offset_points="0,4.9921385"
       linejoin_type="extrp_arc"
       miter_limit="4"
       not_jump="false"
       sort_points="true" />
    <inkscape:path-effect
       effect="spiro"
       id="path-effect12"
       is_visible="true"
       lpeversion="1" />
    <inkscape:path-effect
       effect="powerstroke"
       message=""
       id="path-effect10"
       is_visible="true"
       lpeversion="1.3"
       scale_width="1"
       interpolator_type="CubicBezierJohan"
       interpolator_beta="0.2"
       start_linecap_type="zerowidth"
       end_linecap_type="zerowidth"
       offset_points="0,4.9921385"
       linejoin_type="extrp_arc"
       miter_limit="4"
       not_jump="false"
       sort_points="true" />
    <inkscape:path-effect
       effect="spiro"
       id="path-effect9"
       is_visible="true"
       lpeversion="1" />
    <inkscape:path-effect
       effect="powerstroke"
       message=""
       id="path-effect7"
       is_visible="true"
       lpeversion="1.3"
       scale_width="1"
       interpolator_type="CubicBezierJohan"
       interpolator_beta="0.2"
       start_linecap_type="zerowidth"
       end_linecap_type="zerowidth"
       offset_points="0,4.9921385"
       linejoin_type="extrp_arc"
       miter_limit="4"
       not_jump="false"
       sort_points="true" />
    <inkscape:path-effect
       effect="spiro"
       id="path-effect6"
       is_visible="true"
       lpeversion="1" />
    <inkscape:path-effect
       effect="bspline"
       id="path-effect4"
       is_visible="true"
       lpeversion="1.3"
       weight="33.333333"
       steps="2"
       helper_size="0"
       apply_no_weight="true"
       apply_with_weight="true"
       only_selected="false"
       uniform="false" />
    <inkscape:path-effect
       effect="spiro"
       id="path-effect3"
       is_visible="true"
       lpeversion="1" />
    <inkscape:path-effect
       effect="fill_between_many"
       method="bsplinespiro"
       autoreverse="false"
       close="false"
       join="false"
       linkedpaths="#path6,0,1"
       id="path-effect8" />
    <inkscape:path-effect
       effect="fill_between_many"
       method="bsplinespiro"
       autoreverse="false"
       close="false"
       join="false"
       linkedpaths="#path9,0,1"
       id="path-effect11" />
    <inkscape:path-effect
       effect="fill_between_many"
       method="bsplinespiro"
       autoreverse="false"
       close="false"
       join="false"
       linkedpaths="#path11,0,1"
       id="path-effect14" />
    <inkscape:path-effect
       effect="fill_between_many"
       method="bsplinespiro"
       autoreverse="false"
       close="false"
       join="false"
       linkedpaths="#path14,0,1"
       id="path-effect17" />
  </defs>
  <sodipodi:namedview
     id="namedview1"
     pagecolor="#ffffff"
     bordercolor="#000000"
     borderopacity="0.25"
     inkscape:showpageshadow="true"
     inkscape:pageopacity="0.0"
     inkscape:pagecheckerboard="false"
     inkscape:deskcolor="#d1d1d1"
     inkscape:document-units="mm"
     showborder="true"
     borderlayer="true"
     labelstyle="default"
     inkscape:antialias-rendering="true"
     inkscape:zoom="0.7472222"
     inkscape:cx="165.94796"
     inkscape:cy="461.04091"
     inkscape:window-width="2560"
     inkscape:window-height="1009"
     inkscape:window-x="-8"
     inkscape:window-y="1063"
     inkscape:window-maximized="1"
     inkscape:current-layer="svg1" />
  <g
     inkscape:groupmode="layer"
     id="layer3"
     inkscape:label="Asobi asobase"
     style="display:inline;mix-blend-mode:normal"
     transform="matrix(1.3443777,0,0,1.3443777,-50.649588,-31.267865)">
    <path
       style="display:inline;opacity:1;fill:#fc873d;fill-opacity:1;stroke:#a33737;stroke-width:0;stroke-linecap:round;stroke-linejoin:round;stroke-dasharray:none"
       d="m 70.824096,85.168274 c 0.615205,-0.484077 -1.804551,-3.892539 -2.49159,-3.489226 -0.687039,0.403313 -2.882306,5.034244 -4.621915,8.298178 -1.73961,3.263935 -2.415096,4.648997 -4.389909,9.173115 -1.974813,4.524119 -3.549959,9.752829 -3.908989,11.416349 -0.35903,1.66352 -1.027719,3.01401 -2.858978,2.3767 -1.831259,-0.63731 -0.514965,-3.68653 0.309635,-5.56866 0.8246,-1.88213 4.729368,-10.400488 7.78298,-16.790673 3.053612,-6.390185 5.423431,-11.008326 5.847259,-11.915948 0.423828,-0.907622 1.072251,-1.080763 1.633867,-1.047012 0.561616,0.03375 1.246574,0.150951 1.460293,1.598932 0.213719,1.447982 2.511657,5.235946 4.002,6.400811 1.490343,1.164866 1.949454,2.26026 0.931058,3.757749 -1.018396,1.49749 -6.941211,0.02226 -11.668189,-1.122889 -4.726978,-1.145149 -8.450606,-3.760292 -9.661105,-6.260995 -1.210499,-2.500702 -0.412171,-5.161582 -0.06959,-5.133771 0.342581,0.02781 0.08152,2.468391 1.821345,4.371919 1.739826,1.903528 3.469578,2.52483 8.573119,3.443018 5.103541,0.918189 6.693504,0.97648 7.308709,0.492403 z"
       id="path38"
       sodipodi:nodetypes="zzzzzzzzzzzzzzzzzzz" />
    <path
       style="display:inline;opacity:1;fill:#fc873d;fill-opacity:1;stroke:#000000;stroke-width:0;stroke-linecap:round;stroke-linejoin:round;stroke-dasharray:none;stroke-opacity:1"
       d="m 55.920327,104.50301 c -12.420182,4.70724 -13.103753,3.80804 -14.330584,2.63368 -1.226831,-1.17435 4.399304,-12.324567 19.564244,-12.525881 15.16494,-0.201313 17.926231,9.751511 17.035353,14.541191 -0.890877,4.78968 -4.61458,11.07146 -12.893479,13.6564 -8.278899,2.58494 -15.896492,1.25007 -15.940872,2.11122 -0.04438,0.86115 10.431561,1.91069 16.330846,1.11707 5.899286,-0.79362 15.321419,-6.21738 15.581566,-15.80885 0.260147,-9.59147 -6.453817,-17.939463 -21.652599,-17.300722 -15.198781,0.638741 -23.229965,13.426692 -20.751995,17.176992 2.47797,3.7503 8.299408,2.55013 19.021313,-3.20414 10.721905,-5.75427 4.674839,-14.823243 3.494723,-14.663532 -1.180115,0.15971 6.961666,7.559327 -5.458516,12.266572 z"
       id="path39"
       sodipodi:nodetypes="zzzzzzzzzzzzz" />
  </g>
  <g
     inkscape:groupmode="layer"
     id="layer1"
     inkscape:label="aSObi asobase"
     style="display:inline"
     transform="matrix(1.3443777,0,0,1.3443777,-50.649588,-31.267865)">
    <path
       style="display:inline;fill:#fb716a;fill-opacity:1;stroke:#000000;stroke-width:0;stroke-linecap:round;stroke-linejoin:round"
       d="m 81.453514,99.530522 c 1.818765,-1.571323 2.579782,2.642498 4.44992,2.537998 1.870138,-0.1045 2.761994,-1.91696 5.226661,-3.833925 2.464667,-1.916964 3.826098,-1.807423 5.171887,-0.555528 1.345789,1.251895 1.305711,2.288305 -0.219081,3.505313 -1.524792,1.21701 -3.500945,2.8296 -6.327384,5.61805 -2.826439,2.78845 -5.643051,5.68549 -5.215971,6.18753 0.42708,0.50204 0.462477,0.19682 4.818833,-2.00027 4.356357,-2.19709 10.675591,-4.25704 12.047761,-4.53551 1.37217,-0.27847 2.47929,-0.41145 2.58013,0.94305 0.10084,1.3545 -0.38092,1.47901 -1.40916,1.70537 -1.02824,0.22636 -12.13777,3.56298 -12.284355,9.38452 -0.146585,5.82154 6.242082,5.66277 7.641981,5.63086 1.399899,-0.0319 2.829954,-0.16707 2.715124,1.34027 -0.11483,1.50734 -1.905936,1.13779 -2.744187,1.15079 -0.83825,0.013 -8.830674,-0.41369 -8.801384,-6.88032 0.02929,-6.46663 7.765528,-9.27406 7.502777,-9.89822 -0.262751,-0.62416 -1.584664,-0.21402 -7.372259,2.57557 -5.787595,2.78959 -5.596185,6.16784 -7.739023,5.06903 -2.142838,-1.09881 3.123645,-7.02867 7.240285,-11.44307 4.11664,-4.4144 7.641512,-6.76046 4.843098,-7.302268 -2.798414,-0.541808 -5.889507,5.213118 -7.727821,5.018048 -1.838314,-0.19507 -6.216598,-2.64597 -4.397832,-4.217288 z"
       id="path3"
       sodipodi:nodetypes="zzzzzzzzzzzzzzzzzzzzzzz" />
  </g>
  <g
     inkscape:groupmode="layer"
     id="layer2"
     inkscape:label="asoBI asobase"
     style="display:inline"
     transform="matrix(1.3443777,0,0,1.3443777,-50.649588,-31.267865)">
    <path
       style="fill:#dd44ac;fill-opacity:1;stroke:#000000;stroke-width:0;stroke-linecap:round;stroke-linejoin:round"
       d="m 137.73969,81.404439 c 0.68532,-1.013378 -2.2019,-2.6622 -4.45986,-1.846547 -2.25796,0.815654 -5.70201,3.844493 -5.33622,4.530296 0.36579,0.685803 1.78394,-1.071936 5.39879,-1.791775 3.61485,-0.719839 3.71197,0.121403 4.39729,-0.891974 z"
       id="path29"
       sodipodi:nodetypes="zzzzz" />
    <path
       style="fill:#dd44ac;fill-opacity:1;stroke:#000000;stroke-width:0;stroke-linecap:round;stroke-linejoin:round"
       d="m 126.25356,81.2636 c 0.66309,0.360664 1.26754,-2.049975 3.84957,-3.974764 2.58203,-1.924789 3.5679,-1.533572 3.5679,-2.644628 1e-5,-1.111057 -2.89501,-1.956085 -4.99193,0.532054 -2.09693,2.488139 -3.08863,5.726674 -2.42554,6.087338 z"
       id="path30"
       sodipodi:nodetypes="zzzzz" />
    <path
       style="fill:#dd44ac;fill-opacity:1;stroke:#000000;stroke-width:0;stroke-linecap:round;stroke-linejoin:round"
       d="m 96.268951,90.137271 c 0.599561,-0.277933 1.893318,2.140178 4.962369,1.157136 3.06905,-0.983042 5.45951,-4.59883 6.5074,-5.838463 1.04789,-1.239633 1.87066,-2.313062 3.13756,-1.670221 1.2669,0.642841 0.54146,2.784935 -0.30474,3.986103 -0.84619,1.201169 -3.20717,6.604549 -3.65977,12.617224 -0.4526,6.01268 0.92113,15.66437 9.71639,15.48665 8.79526,-0.17772 10.32788,-10.00782 9.36381,-14.75659 -0.96406,-4.748778 -1.22358,-5.616689 -3.7801,-11.480959 -2.55652,-5.864271 -3.99763,-7.401704 -2.09814,-8.374673 1.89949,-0.972969 2.49263,1.382041 4.54783,4.359723 2.0552,2.977681 5.70016,6.071937 9.708,6.822245 4.00784,0.750309 6.33895,0.09325 5.97073,3.178555 -0.36823,3.085301 -3.35524,1.743774 -6.4311,0.527525 -3.07587,-1.21625 -6.73188,-3.811209 -8.6435,-5.80688 -1.91163,-1.995671 -1.97866,-1.193131 -1.23486,0.634155 0.74381,1.827287 2.62567,4.667087 3.70929,12.356399 1.08362,7.68931 -3.30044,16.21385 -11.0232,16.33645 -7.72277,0.1226 -11.82045,-5.98072 -11.79673,-14.09696 0.0237,-8.116238 3.06506,-14.440649 3.391,-15.082212 0.32594,-0.641563 0.50175,-1.832458 -0.57952,-0.863642 -1.08127,0.968816 -3.27266,3.030107 -6.57815,3.352783 -3.305493,0.322676 -5.48413,-2.566415 -4.884569,-2.844348 z"
       id="path5"
       sodipodi:nodetypes="zzzzzzzzzzzzzzzzzzzzzzz" />
  </g>
  <g
     inkscape:groupmode="layer"
     id="layer4"
     inkscape:label="asobi Asobase"
     style="display:inline"
     transform="matrix(1.3443777,0,0,1.3443777,-50.649588,-31.267865)">
    <path
       style="display:inline;mix-blend-mode:normal;fill:#8768aa;fill-opacity:1;stroke:#a33737;stroke-width:0;stroke-linecap:round;stroke-linejoin:round;stroke-dasharray:none"
       d="m 147.48334,99.597454 c 0.16743,-0.484836 -2.37422,-1.505415 -2.60987,-1.039628 -0.23564,0.465789 0.19613,3.795924 0.39444,6.211224 0.19831,2.4153 0.31703,3.41801 0.83242,6.61113 0.51539,3.19313 1.50079,6.63287 1.8926,7.67686 0.39181,1.04398 0.50202,2.02523 -0.73304,2.32315 -1.23506,0.29792 -1.59054,-1.84901 -1.80328,-3.17849 -0.21274,-1.32949 -1.08042,-7.40784 -1.66278,-12.01171 -0.58236,-4.60386 -0.91341,-7.988815 -1.00157,-8.63922 -0.0882,-0.650399 0.20779,-0.975656 0.52924,-1.156131 0.32144,-0.180505 0.74047,-0.358689 1.3715,0.363496 0.63105,0.722191 3.24009,1.995087 4.47428,2.108727 1.2342,0.113649 1.87548,0.554548 1.84509,1.740758 -0.0304,1.18622 -3.81721,2.47274 -6.82805,3.51722 -3.01082,1.04451 -5.9898,0.92328 -7.5433,-0.0257 -1.55349,-0.94898 -2.05675,-2.6983 -1.85811,-2.80441 0.19864,-0.10611 0.91988,1.33137 2.5534,1.76364 1.63351,0.43227 2.80696,0.16151 5.94486,-1.14155 3.13788,-1.30307 4.03473,-1.83453 4.20216,-2.319362 z"
       id="path38-8"
       sodipodi:nodetypes="zzzzzzzzzzzzzzzzzzz" />
    <path
       style="display:inline;mix-blend-mode:normal;fill:#8768aa;fill-opacity:1;stroke:#000000;stroke-width:0;stroke-linecap:round;stroke-linejoin:round;stroke-dasharray:none;stroke-opacity:1"
       d="m 146.12384,115.53521 c -5.17585,6.9966 -5.87129,6.74338 -6.96363,6.5311 -1.09235,-0.21228 -1.94434,-8.35115 6.34128,-13.83759 8.28563,-5.48643 13.33526,-0.9805 14.54212,1.97475 1.20685,2.95525 1.38151,7.73691 -2.26448,12.09601 -3.64599,4.3591 -8.31701,6.32369 -8.03622,6.81397 0.28079,0.4903 6.42583,-2.64473 9.39545,-5.17318 2.96962,-2.52846 6.23935,-8.8572 2.98283,-14.23501 -3.25651,-5.37781 -9.9155,-7.59826 -18.06472,-1.85878 -8.14922,5.73949 -8.04205,15.63338 -5.34715,16.82171 2.69491,1.18832 5.47752,-1.53658 9.34636,-8.50818 3.86884,-6.9716 -2.6782,-9.82577 -3.27192,-9.31944 -0.59371,0.50632 6.51593,1.69804 1.34008,8.69464 z"
       id="path39-2"
       sodipodi:nodetypes="zzzzzzzzzzzzz" />
  </g>
  <g
     inkscape:groupmode="layer"
     id="g6"
     inkscape:label="asobi aSObase"
     style="display:inline"
     transform="matrix(1.3443777,0,0,1.3443777,-50.649588,-31.267865)">
    <path
       style="display:inline;fill:#5d80c0;fill-opacity:1;stroke:#000000;stroke-width:0;stroke-linecap:round;stroke-linejoin:round"
       d="m 81.542917,99.752583 c 1.938458,-1.581248 2.924758,2.681577 4.500756,2.513967 1.575998,-0.16761 2.623586,-1.91373 5.088253,-3.830698 2.464667,-1.916966 3.762553,-1.77739 5.108342,-0.525495 1.345789,1.251895 1.517892,2.324183 -0.0069,3.541193 -1.524792,1.21701 -3.435614,2.75585 -6.262053,5.5443 -2.826439,2.78845 -5.492235,5.80253 -5.16235,6.07566 0.329885,0.27313 0.333399,0.20286 4.689756,-1.99423 4.356356,-2.19709 7.439364,-3.39453 10.287617,-4.16851 2.848252,-0.77398 4.079242,-1.10543 4.214472,0.68371 0.13523,1.78914 -1.89835,1.85412 -2.94809,2.19948 -1.04974,0.34536 -10.593703,3.39407 -10.585078,9.0323 0.0086,5.63823 6.400194,5.14626 7.800093,5.11435 1.399899,-0.0319 2.641715,0.006 2.526885,1.51341 -0.11483,1.50738 -2.050696,1.14402 -2.888947,1.15702 -0.838251,0.013 -8.853836,-0.50358 -8.824546,-6.97021 0.02929,-6.46663 7.592047,-9.10678 7.329296,-9.73094 -0.262751,-0.62416 -1.088379,-0.16917 -6.875974,2.62042 -5.787595,2.78959 -5.542265,6.14236 -7.873331,5.11052 -2.331066,-1.03184 3.138951,-7.07827 7.130402,-11.55527 3.991451,-4.477 7.079907,-6.294584 4.712616,-6.926376 -2.367291,-0.631792 -5.406651,4.826166 -7.358907,4.949266 -1.952256,0.1231 -6.54077,-2.77262 -4.602312,-4.353867 z"
       id="path6"
       sodipodi:nodetypes="sssssssssssssssssssssss"
       transform="matrix(1.0064815,0.47568443,-0.47568443,1.0064815,130.27126,-59.671634)" />
  </g>
  <g
     inkscape:groupmode="layer"
     id="layer5"
     inkscape:label="asobi asoBAse"
     style="display:inline"
     transform="matrix(1.3443777,0,0,1.3443777,-50.649588,-31.267865)">
    <path
       style="fill:#02c1a2;fill-opacity:1;stroke:#000000;stroke-width:0;stroke-linecap:round;stroke-linejoin:round"
       d="m 189.49781,75.830421 c 0.5025,-0.540124 4.26234,2.268842 4.11724,7.074976 -0.14509,4.806134 -5.45531,9.859982 -7.39575,17.433943 -1.94044,7.57396 -2.22571,12.32742 -2.18142,14.18639 0.0443,1.85897 0.25291,4.42343 -2.05278,4.38186 -2.30569,-0.0416 -2.24056,-1.79258 -1.68729,-4.75808 0.55327,-2.9655 3.15259,-12.86819 5.8589,-19.162017 2.7063,-6.293832 4.74561,-10.699756 4.89545,-14.305512 0.14984,-3.605757 -2.05686,-4.311436 -1.55435,-4.85156 z"
       id="path32"
       sodipodi:nodetypes="zzzzzzzzz" />
    <path
       style="fill:#02c1a2;fill-opacity:1;stroke:#000000;stroke-width:0;stroke-linecap:round;stroke-linejoin:round"
       d="m 236.09711,90.005701 c 0.45059,-1.24811 -2.2019,-2.881285 -5.05451,-2.081281 -2.85261,0.800005 -6.24971,4.000988 -5.68049,4.592896 0.56922,0.591908 1.78394,-0.868507 5.50833,-1.463158 3.72439,-0.59465 4.77608,0.199654 5.22667,-1.048457 z"
       id="path29-7"
       sodipodi:nodetypes="zzzzz" />
    <path
       style="fill:#02c1a2;fill-opacity:1;stroke:#000000;stroke-width:0;stroke-linecap:round;stroke-linejoin:round"
       d="m 223.57817,89.567537 c 0.58484,0.485849 1.7057,-1.924789 4.42857,-3.677443 2.72287,-1.752653 4.44421,-1.643111 4.28774,-3.035845 -0.15648,-1.392733 -3.91218,-1.7683 -5.99345,0.719839 -2.08127,2.488139 -3.30771,5.507599 -2.72286,5.993449 z"
       id="path30-6"
       sodipodi:nodetypes="zzzzz" />
    <path
       style="display:inline;mix-blend-mode:normal;fill:#02c1a2;fill-opacity:1;stroke:#a33737;stroke-width:0;stroke-linecap:round;stroke-linejoin:round;stroke-dasharray:none"
       d="m 219.07218,91.966714 c -1.15793,-0.873652 -1.8988,-1.806651 -2.88962,-3.201972 -0.99082,-1.395321 -1.27888,-1.63827 -1.45299,1.615671 -0.17411,3.253941 -0.77501,5.782197 -1.40706,8.882312 -0.63205,3.100115 -1.24564,5.476125 -2.26741,8.891965 -1.02177,3.41584 -3.60482,9.2841 -5.192,10.22404 -1.58719,0.93994 -2.01867,1.97698 -3.81565,2.26329 -1.79698,0.2863 -4.30562,0.51102 -6.62781,-0.24715 -2.3222,-0.75818 -2.67342,-2.19388 -2.5827,-2.9376 0.0907,-0.74372 0.6047,-1.56367 1.88204,-2.08034 1.27733,-0.51668 2.64613,-0.20965 3.40325,-0.0504 0.75711,0.15928 3.16664,0.90422 3.75074,1.13676 0.5841,0.23254 3.58758,1.7352 5.46464,3.12858 1.87705,1.39337 4.40327,3.65534 5.54479,4.85735 1.14153,1.20202 1.59382,2.59295 0.33148,3.8169 -0.79005,0.76603 -2.44712,0.57278 -3.07875,-0.25155 -0.91539,-1.19466 -2.83621,-3.47321 -3.88951,-4.46671 -2.42967,-2.29173 -4.49013,-3.38813 -4.35188,-3.6279 0.13825,-0.23977 -0.0803,-1.44227 2.2691,-2.75113 2.3494,-1.30886 5.70427,-10.62799 6.63343,-17.908255 0.92916,-7.280265 0.74181,-8.86167 0.616,-12.087063 -0.12581,-3.225393 0.57007,-3.243914 1.59973,-3.710207 1.02966,-0.466293 2.41838,0.38342 3.29687,2.521623 0.87849,2.138203 1.99656,4.285809 4.42766,5.32941 2.4311,1.043601 3.74485,2.241157 3.13298,4.333735 -0.61187,2.092578 -6.15292,1.490363 -10.31513,1.493578 -4.16221,0.0032 -8.18009,-1.610953 -10.53401,-3.499741 -2.35392,-1.888788 -2.40949,-5.843623 -1.8814,-5.749621 0.52809,0.094 0.40914,2.638227 3.13596,4.009555 2.72682,1.371328 4.50636,1.285799 7.88036,1.115552 3.374,-0.170246 8.07482,-0.17706 6.91689,-1.050712 z"
       id="path38-2"
       sodipodi:nodetypes="zzzzzzzzzzzzzzssszzzzzzzzzzzzzzz" />
  </g>
  <g
     inkscape:groupmode="layer"
     id="layer5-7"
     inkscape:label="asobi asobaSE"
     style="display:inline"
     transform="matrix(1.3443777,0,0,1.3443777,-50.649588,-31.267865)">
    <path
       style="fill:#61d064;fill-opacity:1;stroke:#000000;stroke-width:0;stroke-linecap:round;stroke-linejoin:round"
       d="m 214.21321,117.3583 c -0.48449,0.85835 -1.10758,2.78278 2.62351,3.39308 3.73109,0.6103 5.48401,-1.38875 6.76055,-2.72466 1.27654,-1.33591 3.33779,-3.95168 5.74459,-6.62336 2.4068,-2.67168 3.36069,-3.66784 6.54554,-6.84111 3.18485,-3.17327 4.44504,-4.25261 6.72975,-6.272887 2.28471,-2.020277 6.5881,-3.630494 4.99193,-5.93085 -1.59617,-2.300356 -2.03433,-0.829372 -3.97477,-0.813731 -1.94044,0.01564 -6.0965,-1.257131 -7.24534,0.504555 -1.14884,1.761686 0.70418,4.941192 2.25341,8.368253 1.54923,3.42706 2.2967,5.52725 3.16104,7.26098 0.86434,1.73373 0.63321,1.7644 -0.81373,1.50228 -1.44694,-0.26212 -10.48493,-1.96723 -13.09838,-2.57203 -2.61345,-0.6048 -4.9602,-1.63748 -5.78959,-0.60466 -0.82939,1.03282 0.0434,2.39028 2.48813,7.33923 2.44475,4.94895 5.33904,12.75904 10.24226,14.82931 4.90322,2.07027 14.87403,-3.86661 18.80224,-6.40188 3.9282,-2.53528 5.08528,-3.29465 3.583,-5.12555 -1.50227,-1.83091 -2.2534,-1.2832 -6.07169,1.83089 -3.81828,3.11409 -11.51463,8.81213 -15.72569,7.7649 -4.21106,-1.04723 -8.68408,-13.78192 -9.46142,-15.77009 -0.77733,-1.98817 -1.55166,-2.95178 2.12932,-2.42632 3.68098,0.52546 10.56024,2.48286 12.39188,3.19002 1.83164,0.70716 2.68508,1.38894 3.59271,0.59085 0.90763,-0.79809 0.0313,-2.81675 -1.1267,-5.3049 -1.158,-2.48815 -2.40571,-5.85299 -3.21047,-7.690294 -0.80476,-1.837304 -2.68908,-4.961664 -2.16485,-5.978828 0.52423,-1.017165 4.52751,-0.312099 4.86674,0.46946 0.33923,0.781559 -0.23966,1.214488 -1.86082,2.830299 -1.62116,1.615811 -3.2639,3.994003 -5.96204,7.181053 -2.69813,3.18705 -5.69521,6.19953 -6.27661,6.8501 -0.5814,0.65057 -4.9282,4.82915 -7.0935,6.39079 -2.1653,1.56164 -2.94733,1.04788 -4.26774,0.34307 -1.32041,-0.70481 -2.27877,-0.41632 -2.76326,0.44203 z"
       id="path33"
       sodipodi:nodetypes="zzzzzzzzzzzzzzzzzzzzzzzzzzzzzzzzzz" />
  </g>
</svg>
