<?xml version="1.0" encoding="UTF-8" standalone="no"?>
<!-- Created with Inkscape (http://www.inkscape.org/) -->

<svg
   version="1.1"
   id="svg1"
   width="297mm"
   height="210mm"
   viewBox="0 0 297 210"
   sodipodi:docname="asobi-asobase-title.svg"
   inkscape:version="1.4.4 (dcaf3e7, 2026-05-05)"
   xmlns:inkscape="http://www.inkscape.org/namespaces/inkscape"
   xmlns:sodipodi="http://sodipodi.sourceforge.net/DTD/sodipodi-0.dtd"
   xmlns="http://www.w3.org/2000/svg"
   xmlns:svg="http://www.w3.org/2000/svg">
  <defs
     id="defs1">
    <inkscape:path-effect
       effect="offset"
       id="path-effect53"
       is_visible="true"
       lpeversion="1.3"
       linejoin_type="round"
       unit="mm"
       offset="0.25"
       miter_limit="4"
       attempt_force_join="false"
       update_on_knot_move="true" />
    <inkscape:path-effect
       effect="clone_original"
       css_properties=""
       attributes="clip-path,mask"
       linkeditem="#layer7"
       is_visible="true"
       method="d"
       allow_transforms="true"
       id="path-effect37"
       lpeversion="1" />
  </defs>
  <sodipodi:namedview
     id="namedview1"
     pagecolor="#ffffff"
     bordercolor="#000000"
     borderopacity="0.25"
     inkscape:showpageshadow="true"
     inkscape:pageopacity="0.0"
     inkscape:pagecheckerboard="false"
     inkscape:deskcolor="#d1d1d1"
     inkscape:document-units="mm"
     showborder="true"
     borderlayer="true"
     labelstyle="default"
     inkscape:antialias-rendering="true"
     inkscape:zoom="0.7472222"
     inkscape:cx="635.68775"
     inkscape:cy="355.316"
     inkscape:window-width="2560"
     inkscape:window-height="1009"
     inkscape:window-x="-8"
     inkscape:window-y="1063"
     inkscape:window-maximized="1"
     inkscape:current-layer="svg1" />
  <g
     id="use36"
     inkscape:label="kana-outline"
     inkscape:path-effect="#path-effect37;#path-effect53"
     class="fromclone"
     style="display:inline">
    <g
       inkscape:groupmode="layer"
       id="g37"
       inkscape:label="asobi asobaSE"
       transform="matrix(1.3443777,0,0,1.3443777,-50.649587,-31.267866)">
      <path
         d="m 245.95573,90.880727 c -0.27924,-2.19e-4 -0.5523,0.08439 -0.82665,0.174337 -0.41805,0.137063 -0.87316,0.298613 -1.49639,0.303637 -0.92848,0.0075 -2.46174,-0.305061 -3.90515,-0.402428 -1.43073,-0.09651 -2.85799,0.01551 -3.49401,0.990816 -1.0595,1.624689 0.25624,4.315752 1.58356,7.134749 -0.94285,1.185842 -2.01637,2.559992 -3.34582,4.130342 -1.16762,1.3792 -2.39179,2.7261 -3.45188,3.86302 -1.2997,-0.26091 -2.41125,-0.49186 -3.08576,-0.64796 -1.28587,-0.29757 -2.54228,-0.71006 -3.56956,-0.91672 -1.03132,-0.20747 -1.92196,-0.22666 -2.4073,0.37773 -0.91848,1.14375 0.024,2.59641 2.46541,7.53863 0.0272,0.055 0.0556,0.10935 0.0828,0.16417 -1.21865,1.10407 -2.48697,2.19534 -3.36907,2.83152 -1.06618,0.76894 -1.76098,1.00595 -2.33612,0.98646 -0.57514,-0.0195 -1.0728,-0.30261 -1.73611,-0.65667 -1.40218,-0.74846 -2.47272,-0.44054 -3.01167,0.5143 -0.30672,0.5434 -0.68308,1.53181 -0.0378,2.38696 0.42706,0.56595 1.2799,1.034 2.7923,1.28138 3.83011,0.6265 5.64563,-1.44124 6.92554,-2.78068 0.5186,-0.54272 1.16504,-1.29617 1.90463,-2.16904 2.19398,4.71224 4.92395,10.58644 9.1222,12.35905 5.02158,2.12025 15.10106,-3.91673 18.97514,-6.41706 1.5591,-1.00625 2.70786,-1.74892 3.41556,-2.39132 1.11183,-1.00926 1.1773,-1.83244 0.21211,-3.00877 -0.95469,-1.16355 -1.67866,-1.43423 -2.95211,-0.73077 -0.81162,0.44835 -1.86637,1.30039 -3.38214,2.53661 -2.28571,1.86417 -5.96741,4.65649 -9.43455,6.35749 -1.15571,0.56701 -2.2866,1.01156 -3.32984,1.2625 -1.04324,0.25093 -1.99685,0.30677 -2.79811,0.1075 -0.5771,-0.14351 -1.1836,-0.53348 -1.79131,-1.1143 -0.60771,-0.58082 -1.2159,-1.34917 -1.80585,-2.23006 -1.74701,-2.6086 -3.33238,-6.20304 -4.40927,-8.87812 0.63696,-0.74508 1.3136,-1.52488 2.02086,-2.30997 0.9258,-1.0277 1.63721,-1.8068 2.34192,-2.55695 3.439,0.80131 7.31464,1.94323 8.59192,2.43637 0.72491,0.27987 1.29668,0.55858 1.79567,0.74529 0.49802,0.18634 0.93984,0.2863 1.36855,0.16416 0.21645,-0.0617 0.41925,-0.17602 0.6189,-0.35158 0.53505,-0.47047 0.52478,-1.26737 0.26732,-2.20827 -0.25521,-0.93264 -0.77465,-2.0798 -1.34967,-3.31531 -0.86988,-1.86909 -1.79431,-4.24485 -2.54241,-6.09018 0.68095,-0.612189 1.36081,-1.207374 2.16904,-1.922064 0.71509,-0.632326 1.64773,-1.2346 2.53516,-1.834899 0.88049,-0.595609 1.73391,-1.201287 2.2751,-1.849426 0.27165,-0.325346 0.47378,-0.672578 0.55352,-1.041665 0.10123,-0.468596 0.003,-0.953109 -0.34287,-1.451357 -0.7213,-1.039526 -1.24671,-1.371016 -1.80584,-1.371452 z m -6.70907,1.651844 c 0.77457,0.01567 1.67493,0.186325 2.29543,0.416957 0.24821,0.09225 0.45146,0.195529 0.57822,0.290562 0.0845,0.06336 0.13246,0.122554 0.14674,0.15545 0.0597,0.137531 0.082,0.248488 0.077,0.355939 -0.005,0.10745 -0.0389,0.217353 -0.11187,0.348674 -0.0875,0.157585 -0.2335,0.343606 -0.44165,0.569501 -0.31224,0.338844 -0.76028,0.76656 -1.34531,1.349661 -0.39917,0.397858 -0.79904,0.839852 -1.21309,1.326415 -0.5012,-1.01027 -1.05747,-2.121077 -1.35257,-3.010222 -0.10669,-0.321474 -0.17993,-0.61301 -0.20484,-0.854252 -0.0249,-0.241242 8.8e-4,-0.426671 0.061,-0.543351 0.0498,-0.09655 0.1619,-0.189095 0.34722,-0.260053 0.27799,-0.106436 0.69903,-0.154682 1.16371,-0.145281 z m -0.21066,9.228249 c 1.17016,2.67318 1.84779,4.49023 2.60053,6.0001 0.25741,0.51634 0.41398,0.88074 0.4649,1.09833 0.0339,0.14505 0.0153,0.20395 0.009,0.21356 0,0 -0.001,10e-4 -0.001,10e-4 0,0 -0.001,0.001 -0.001,0.001 -0.0137,0.0138 -0.0737,0.0436 -0.25134,0.0378 -0.18945,-0.006 -0.4722,-0.051 -0.83246,-0.11623 -0.86756,-0.15716 -4.49051,-0.83769 -7.80449,-1.48622 0.75233,-0.77104 1.62343,-1.64514 2.79956,-2.817 1.24066,-1.23615 2.18783,-2.15429 3.01749,-2.93322 z m -12.57698,6.32844 c 0.39114,-0.003 0.91761,0.0417 1.60245,0.13947 0.48526,0.0693 1.02858,0.16364 1.60972,0.27748 -0.70464,0.74007 -1.25927,1.31535 -1.4717,1.55306 -0.17869,0.19995 -0.79329,0.80955 -1.59954,1.5792 -0.20882,-0.55106 -0.36839,-0.98207 -0.46781,-1.23634 -0.19139,-0.48952 -0.38065,-0.91407 -0.50122,-1.25813 -0.0804,-0.22938 -0.12828,-0.42279 -0.13366,-0.56515 -0.003,-0.089 0.009,-0.15492 0.032,-0.20629 0.0232,-0.0514 0.0558,-0.0929 0.11913,-0.13366 0.12656,-0.0816 0.38714,-0.1464 0.81066,-0.14964 z"
         id="path37"
         sodipodi:nodetypes="zzzzzzzzzzzzzzzzzzzzzzzzzzzzzzzzzz"
         inkscape:original-d="m 214.21321,117.3583 c -0.48449,0.85835 -1.10758,2.78278 2.62351,3.39308 3.73109,0.6103 5.48401,-1.38875 6.76055,-2.72466 1.27654,-1.33591 3.33779,-3.95168 5.74459,-6.62336 2.4068,-2.67168 3.36069,-3.66784 6.54554,-6.84111 3.18485,-3.17327 4.44504,-4.25261 6.72975,-6.272887 2.28471,-2.020277 6.5881,-3.630494 4.99193,-5.93085 -1.59617,-2.300356 -2.03433,-0.829372 -3.97477,-0.813731 -1.94044,0.01564 -6.0965,-1.257131 -7.24534,0.504555 -1.14884,1.761686 0.70418,4.941192 2.25341,8.368253 1.54923,3.42706 2.2967,5.52725 3.16104,7.26098 0.86434,1.73373 0.63321,1.7644 -0.81373,1.50228 -1.44694,-0.26212 -10.48493,-1.96723 -13.09838,-2.57203 -2.61345,-0.6048 -4.9602,-1.63748 -5.78959,-0.60466 -0.82939,1.03282 0.0434,2.39028 2.48813,7.33923 2.44475,4.94895 5.33904,12.75904 10.24226,14.82931 4.90322,2.07027 14.87403,-3.86661 18.80224,-6.40188 3.9282,-2.53528 5.08528,-3.29465 3.583,-5.12555 -1.50227,-1.83091 -2.2534,-1.2832 -6.07169,1.83089 -3.81828,3.11409 -11.51463,8.81213 -15.72569,7.7649 -4.21106,-1.04723 -8.68408,-13.78192 -9.46142,-15.77009 -0.77733,-1.98817 -1.55166,-2.95178 2.12932,-2.42632 3.68098,0.52546 10.56024,2.48286 12.39188,3.19002 1.83164,0.70716 2.68508,1.38894 3.59271,0.59085 0.90763,-0.79809 0.0313,-2.81675 -1.1267,-5.3049 -1.158,-2.48815 -2.40571,-5.85299 -3.21047,-7.690294 -0.80476,-1.837304 -2.68908,-4.961664 -2.16485,-5.978828 0.52423,-1.017165 4.52751,-0.312099 4.86674,0.46946 0.33923,0.781559 -0.23966,1.214488 -1.86082,2.830299 -1.62116,1.615811 -3.2639,3.994003 -5.96204,7.181053 -2.69813,3.18705 -5.69521,6.19953 -6.27661,6.8501 -0.5814,0.65057 -4.9282,4.82915 -7.0935,6.39079 -2.1653,1.56164 -2.94733,1.04788 -4.26774,0.34307 -1.32041,-0.70481 -2.27877,-0.41632 -2.76326,0.44203 z" />
    </g>
    <g
       inkscape:groupmode="layer"
       id="g43"
       inkscape:label="asobi asoBAse"
       transform="matrix(1.3443777,0,0,1.3443777,-50.649587,-31.267866)">
      <path
         d="m 189.66807,75.578282 c -0.11194,0.0029 -0.22486,0.03859 -0.30654,0.126394 -0.0789,0.08479 -0.12138,0.179739 -0.12349,0.292015 -0.002,0.08388 0.0205,0.162962 0.0523,0.233902 0.0253,0.05631 0.0583,0.112375 0.0944,0.167073 0.14697,0.222269 0.37121,0.469167 0.60437,0.813574 0.45539,0.67267 0.95083,1.698962 0.8775,3.463498 -0.0736,1.771042 -0.61369,3.756788 -1.47751,6.087273 -0.86382,2.330485 -2.05031,5.003691 -3.40393,8.151715 -2.70659,6.294464 -5.31415,16.218114 -5.87081,19.201784 -0.22035,1.18107 -0.36851,2.1972 -0.3109,2.99134 0.0899,1.23927 0.6929,1.95917 2.17922,1.98599 0.49057,0.009 0.88735,-0.0935 1.20438,-0.28911 1.23564,-0.7625 1.07179,-2.8358 1.0373,-4.28288 -0.0437,-1.83247 0.23798,-6.57431 2.17486,-14.13439 0.77005,-3.005683 2.07639,-5.617668 3.38214,-7.981736 1.94493,-3.521319 3.93109,-6.551419 4.01992,-9.494112 0.10879,-3.603424 -1.9338,-6.124957 -3.26155,-6.993826 -0.31502,-0.206143 -0.62912,-0.344791 -0.87169,-0.338504 z"
         id="path40"
         sodipodi:nodetypes="zzzzzzzzz"
         inkscape:original-d="m 189.49781,75.830421 c 0.5025,-0.540124 4.26234,2.268842 4.11724,7.074976 -0.14509,4.806134 -5.45531,9.859982 -7.39575,17.433943 -1.94044,7.57396 -2.22571,12.32742 -2.18142,14.18639 0.0443,1.85897 0.25291,4.42343 -2.05278,4.38186 -2.30569,-0.0416 -2.24056,-1.79258 -1.68729,-4.75808 0.55327,-2.9655 3.15259,-12.86819 5.8589,-19.162017 2.7063,-6.293832 4.74561,-10.699756 4.89545,-14.305512 0.14984,-3.605757 -2.05686,-4.311436 -1.55435,-4.85156 z" />
      <path
         d="m 232.60877,87.526189 c -0.51828,-0.0026 -1.06484,0.06453 -1.61698,0.219374 -1.46416,0.41062 -3.04778,1.427452 -4.19426,2.411664 -1.00767,0.865046 -2.03199,2.007258 -1.56904,2.488663 0.19408,0.201808 0.43991,0.228556 0.72205,0.164168 0.37295,-0.08511 0.9381,-0.370452 1.60536,-0.642142 0.79767,-0.324794 1.86939,-0.695983 3.34291,-0.931251 1.18192,-0.18871 2.08999,-0.236218 2.79811,-0.254242 1.01174,-0.02575 1.71705,0.02401 2.15161,-0.29492 0.19307,-0.141691 0.32313,-0.342888 0.42277,-0.618897 0.0903,-0.250208 0.0791,-0.505082 -0.0131,-0.754008 -0.35534,-0.959621 -1.89092,-1.779628 -3.64946,-1.788409 z"
         id="path41"
         sodipodi:nodetypes="zzzzz"
         inkscape:original-d="m 236.09711,90.005701 c 0.45059,-1.24811 -2.2019,-2.881285 -5.05451,-2.081281 -2.85261,0.800005 -6.24971,4.000988 -5.68049,4.592896 0.56922,0.591908 1.78394,-0.868507 5.50833,-1.463158 3.72439,-0.59465 4.77608,0.199654 5.22667,-1.048457 z" />
      <path
         d="m 230.0126,81.572575 c -1.26588,0.0447 -2.77645,0.594274 -3.85431,1.882841 -1.05079,1.256216 -1.88752,2.6487 -2.38842,3.791834 -0.44784,1.022052 -0.74562,2.101374 -0.3109,2.462512 0.19663,0.163345 0.42657,0.122769 0.64214,-0.01308 0.30086,-0.189589 0.67989,-0.623229 1.1114,-1.095419 0.68472,-0.749259 1.60897,-1.726892 2.894,-2.554039 1.07596,-0.692575 1.99189,-1.090674 2.70658,-1.412131 0.69306,-0.311726 1.25622,-0.571314 1.51674,-1.002439 0.13642,-0.225765 0.18483,-0.485802 0.14964,-0.799045 -0.0952,-0.847274 -1.21654,-1.305192 -2.46687,-1.261039 z"
         id="path42"
         sodipodi:nodetypes="zzzzz"
         inkscape:original-d="m 223.57817,89.567537 c 0.58484,0.485849 1.7057,-1.924789 4.42857,-3.677443 2.72287,-1.752653 4.44421,-1.643111 4.28774,-3.035845 -0.15648,-1.392733 -3.91218,-1.7683 -5.99345,0.719839 -2.08127,2.488139 -3.30771,5.507599 -2.72286,5.993449 z" />
      <path
         d="m 213.62781,83.153232 c -0.24017,-0.0056 -0.47369,0.04015 -0.69299,0.139469 -0.39168,0.177376 -0.79435,0.308241 -1.09978,0.617445 -0.46822,0.474009 -0.68469,1.322825 -0.60873,3.270274 0.0766,1.964669 0.17585,3.306819 0.0334,5.695014 -1.37971,0.06367 -2.48121,0.08438 -3.52888,-0.05375 -1.08948,-0.143647 -2.1237,-0.45749 -3.37197,-1.085248 -0.79271,-0.39866 -1.33095,-0.895722 -1.71577,-1.400509 -0.38481,-0.504787 -0.61526,-1.017886 -0.78306,-1.45281 -0.14788,-0.383276 -0.29012,-0.864747 -0.47071,-1.051834 -0.0564,-0.05838 -0.12693,-0.10584 -0.21792,-0.122036 -0.22991,-0.04092 -0.3557,0.173425 -0.4126,0.373372 -0.21667,0.761463 -0.008,2.743581 0.95304,4.323562 0.30996,0.509482 0.70255,0.988277 1.19276,1.381622 1.87447,1.50408 4.77801,2.827292 7.96576,3.326934 -0.0745,0.649377 -0.16059,1.354618 -0.2586,2.122555 -0.55474,4.346558 -1.98305,9.440828 -3.5376,13.086908 -0.62181,1.45843 -1.26426,2.68534 -1.87121,3.53468 -0.40464,0.56624 -0.79632,0.96167 -1.13029,1.14772 -0.10842,0.0604 -0.2124,0.12008 -0.3109,0.18015 -0.83713,-0.44528 -1.55691,-0.79149 -1.82037,-0.89638 -0.60133,-0.2394 -3.01294,-0.98309 -3.78167,-1.14482 -0.75106,-0.15797 -2.1713,-0.48338 -3.50998,0.0581 -1.335,0.53999 -1.8979,1.41383 -1.99762,2.23151 -0.10198,0.83608 0.3081,2.35258 2.70949,3.13662 2.36544,0.77229 4.90983,0.54038 6.71489,0.25279 0.14519,-0.0231 0.28316,-0.0504 0.41405,-0.0828 0.7928,0.58673 2.1396,1.5369 3.62767,2.94048 1.0321,0.97351 2.96036,3.25998 3.86883,4.4456 0.69894,0.91218 2.48591,1.11531 3.35599,0.27168 1.35313,-1.31199 0.87003,-2.81923 -0.32543,-4.07804 -1.15112,-1.21211 -3.68717,-3.48227 -5.57007,-4.87999 -0.42862,-0.31817 -0.91333,-0.64005 -1.41359,-0.95159 1.70249,-1.14082 4.24221,-7.08091 5.19961,-10.28153 1.02319,-3.42059 1.63739,-5.80067 2.27074,-8.907174 0.13854,-0.679517 0.2753,-1.332242 0.40679,-1.971463 2.58277,0.01764 5.69956,0.22993 7.76817,-0.143828 0.53047,-0.09585 1.00376,-0.231991 1.38889,-0.425673 0.48707,-0.244952 0.84197,-0.586309 0.98064,-1.060551 0.6468,-2.212043 -0.74725,-3.487501 -3.23976,-4.557465 -2.36515,-1.015287 -3.45534,-3.101307 -4.32938,-5.228662 -0.72504,-1.764726 -1.82127,-2.736484 -2.85186,-2.760338 z m 1.63441,4.824781 c 0.007,0.0019 0.0202,0.006 0.0392,0.01743 0.0307,0.01843 0.0735,0.0525 0.12348,0.101696 0.14988,0.147581 0.356,0.423977 0.60583,0.775801 0.99544,1.401826 1.74826,2.351913 2.92886,3.242671 a 0.18595965,0.18595965 0 0 0 0.0145,0.01017 c 0.0366,0.02904 0.0617,0.05509 0.0755,0.07264 0.003,0.0043 0.007,0.007 0.009,0.01017 -0.009,0.0086 -0.0246,0.02256 -0.0479,0.03632 -0.034,0.02003 -0.0832,0.04189 -0.14383,0.06392 -0.18184,0.0661 -0.46893,0.127193 -0.82374,0.177242 -0.83891,0.118337 -2.0602,0.183237 -3.33275,0.236808 0.0909,-0.745344 0.16117,-1.515488 0.20485,-2.331759 0.0502,-0.937282 0.11075,-1.583171 0.19032,-1.975821 0.0398,-0.196326 0.0864,-0.328187 0.12348,-0.392259 0.0146,-0.02522 0.0273,-0.03945 0.0334,-0.04504 z"
         id="path43"
         sodipodi:nodetypes="zzzzzzzzzzzzzzssszzzzzzzzzzzzzzz"
         inkscape:original-d="m 219.07218,91.966714 c -1.15793,-0.873652 -1.8988,-1.806651 -2.88962,-3.201972 -0.99082,-1.395321 -1.27888,-1.63827 -1.45299,1.615671 -0.17411,3.253941 -0.77501,5.782197 -1.40706,8.882312 -0.63205,3.100115 -1.24564,5.476125 -2.26741,8.891965 -1.02177,3.41584 -3.60482,9.2841 -5.192,10.22404 -1.58719,0.93994 -2.01867,1.97698 -3.81565,2.26329 -1.79698,0.2863 -4.30562,0.51102 -6.62781,-0.24715 -2.3222,-0.75818 -2.67342,-2.19388 -2.5827,-2.9376 0.0907,-0.74372 0.6047,-1.56367 1.88204,-2.08034 1.27733,-0.51668 2.64613,-0.20965 3.40325,-0.0504 0.75711,0.15928 3.16664,0.90422 3.75074,1.13676 0.5841,0.23254 3.58758,1.7352 5.46464,3.12858 1.87705,1.39337 4.40327,3.65534 5.54479,4.85735 1.14153,1.20202 1.59382,2.59295 0.33148,3.8169 -0.79005,0.76603 -2.44712,0.57278 -3.07875,-0.25155 -0.91539,-1.19466 -2.83621,-3.47321 -3.88951,-4.46671 -2.42967,-2.29173 -4.49013,-3.38813 -4.35188,-3.6279 0.13825,-0.23977 -0.0803,-1.44227 2.2691,-2.75113 2.3494,-1.30886 5.70427,-10.62799 6.63343,-17.908255 0.92916,-7.280265 0.74181,-8.86167 0.616,-12.087063 -0.12581,-3.225393 0.57007,-3.243914 1.59973,-3.710207 1.02966,-0.466293 2.41838,0.38342 3.29687,2.521623 0.87849,2.138203 1.99656,4.285809 4.42766,5.32941 2.4311,1.043601 3.74485,2.241157 3.13298,4.333735 -0.61187,2.092578 -6.15292,1.490363 -10.31513,1.493578 -4.16221,0.0032 -8.18009,-1.610953 -10.53401,-3.499741 -2.35392,-1.888788 -2.40949,-5.843623 -1.8814,-5.749621 0.52809,0.094 0.40914,2.638227 3.13596,4.009555 2.72682,1.371328 4.50636,1.285799 7.88036,1.115552 3.374,-0.170246 8.07482,-0.17706 6.91689,-1.050712 z" />
    </g>
    <g
       inkscape:groupmode="layer"
       id="g44"
       inkscape:label="asobi aSObase"
       transform="matrix(1.3443777,0,0,1.3443777,-50.649587,-31.267866)">
      <path
         d="m 81.821829,99.371699 c -0.127886,0.06241 -0.255607,0.147325 -0.38446,0.252433 -0.65457,0.533948 -0.65053,1.218998 -0.269169,1.873798 0.244625,0.42001 0.646992,0.83435 1.114061,1.20273 1.151583,0.90825 2.830617,1.63846 3.874129,1.57267 0.224214,-0.0141 0.452358,-0.0892 0.680512,-0.20327 0.894945,-0.44746 1.938602,-1.59092 2.950861,-2.60425 0.777221,-0.77804 1.570296,-1.514656 2.307159,-1.901633 0.491242,-0.257985 0.945974,-0.358028 1.366224,-0.24587 0.451033,0.120373 0.638695,0.272134 0.685929,0.422081 0.01889,0.05998 0.02109,0.128726 -1.91e-4,0.219496 -0.03193,0.136156 -0.120023,0.314146 -0.265512,0.522436 -0.290977,0.41657 -0.801824,0.9533 -1.460709,1.61273 -0.987845,0.98867 -2.31263,2.2608 -3.75372,3.8772 -2.5391,2.84797 -5.722895,6.38021 -7.068887,8.82892 -0.335837,0.61097 -0.566953,1.1719 -0.638313,1.64553 -0.09301,0.61732 0.08822,1.10382 0.634536,1.34564 0.493738,0.21856 0.901796,0.25805 1.276565,0.13861 0.58071,-0.18508 1.055564,-0.74879 1.672101,-1.43117 0.947534,-1.04871 2.309022,-2.49304 5.063628,-3.82075 2.894199,-1.39499 4.550955,-2.20744 5.499809,-2.58633 0.474427,-0.18945 0.774634,-0.26541 0.931719,-0.26425 0.07854,5.8e-4 0.115621,0.0164 0.142244,0.0353 0.0217,0.0154 0.04147,0.0384 0.06188,0.079 -0.01236,0.0175 -0.03675,0.0468 -0.07301,0.0807 -0.09121,0.0854 -0.251336,0.20296 -0.457661,0.34188 -0.616558,0.41515 -1.662545,1.0421 -2.737462,1.90437 -0.449529,0.3606 -0.907025,0.76504 -1.34447,1.21425 -1.459933,1.49917 -2.702871,3.5135 -2.714834,6.15474 -0.006,1.32352 0.316337,2.40726 0.848799,3.29553 2.101564,3.50588 7.414073,3.85429 8.144369,3.84296 0.299707,-0.005 0.85908,0.0485 1.353329,0.02 0.514506,-0.0296 1.060305,-0.14579 1.396655,-0.53884 0.17082,-0.19961 0.2777,-0.4614 0.30305,-0.79422 0.0759,-0.99661 -0.40863,-1.43893 -1.12911,-1.60412 -0.455037,-0.10433 -1.014508,-0.10162 -1.567799,-0.089 -0.713732,0.0163 -2.633753,0.14235 -4.366634,-0.42186 -0.86644,-0.28211 -1.679395,-0.73484 -2.276128,-1.4503 -0.596733,-0.71546 -0.984694,-1.69642 -0.986796,-3.07441 -0.0033,-2.17985 1.475293,-3.97882 3.352723,-5.3823 2.816144,-2.10522 6.482774,-3.2821 7.117634,-3.49097 0.39174,-0.12888 0.98843,-0.22877 1.53037,-0.40861 0.54839,-0.18198 1.08882,-0.46207 1.36054,-0.99089 0.13746,-0.26752 0.2019,-0.58626 0.17273,-0.97225 -0.0887,-1.17358 -0.6516,-1.54552 -1.7228,-1.44621 -0.67087,0.0622 -1.58154,0.31022 -2.703075,0.61498 -2.861568,0.7776 -5.954605,1.97866 -10.318543,4.17957 -2.614562,1.31863 -3.675714,1.87486 -4.130898,2.03463 -0.151728,0.0533 -0.227972,0.0581 -0.260945,0.0526 -0.02545,-0.004 -0.04285,-0.0137 -0.07905,-0.042 0.01449,-0.0524 0.06638,-0.1691 0.15521,-0.31297 0.145399,-0.2355 0.383175,-0.55759 0.690336,-0.93685 0.959881,-1.1852 2.596297,-2.93808 4.288878,-4.60791 2.821498,-2.78358 4.72545,-4.31514 6.249806,-5.5318 1.613073,-1.28747 1.432757,-2.477079 0.01689,-3.794163 -1.405399,-1.307346 -2.790297,-1.456956 -5.325504,0.514875 -1.237832,0.962761 -2.130306,1.891858 -2.887276,2.579978 -0.759938,0.69081 -1.384478,1.13867 -2.115685,1.21643 -0.298237,0.0317 -0.587573,-0.13367 -0.896413,-0.43374 -0.30884,-0.30007 -0.619379,-0.72166 -0.941122,-1.13002 -0.653423,-0.829326 -1.396758,-1.638345 -2.366508,-1.165081 z"
         id="path44"
         sodipodi:nodetypes="sssssssssssssssssssssss"
         transform="matrix(1.0064815,0.47568443,-0.47568443,1.0064815,130.27126,-59.671634)"
         inkscape:original-d="m 81.542917,99.752583 c 1.938458,-1.581248 2.924758,2.681577 4.500756,2.513967 1.575998,-0.16761 2.623586,-1.91373 5.088253,-3.830698 2.464667,-1.916966 3.762553,-1.77739 5.108342,-0.525495 1.345789,1.251895 1.517892,2.324183 -0.0069,3.541193 -1.524792,1.21701 -3.435614,2.75585 -6.262053,5.5443 -2.826439,2.78845 -5.492235,5.80253 -5.16235,6.07566 0.329885,0.27313 0.333399,0.20286 4.689756,-1.99423 4.356356,-2.19709 7.439364,-3.39453 10.287617,-4.16851 2.848252,-0.77398 4.079242,-1.10543 4.214472,0.68371 0.13523,1.78914 -1.89835,1.85412 -2.94809,2.19948 -1.04974,0.34536 -10.593703,3.39407 -10.585078,9.0323 0.0086,5.63823 6.400194,5.14626 7.800093,5.11435 1.399899,-0.0319 2.641715,0.006 2.526885,1.51341 -0.11483,1.50738 -2.050696,1.14402 -2.888947,1.15702 -0.838251,0.013 -8.853836,-0.50358 -8.824546,-6.97021 0.02929,-6.46663 7.592047,-9.10678 7.329296,-9.73094 -0.262751,-0.62416 -1.088379,-0.16917 -6.875974,2.62042 -5.787595,2.78959 -5.542265,6.14236 -7.873331,5.11052 -2.331066,-1.03184 3.138951,-7.07827 7.130402,-11.55527 3.991451,-4.477 7.079907,-6.294584 4.712616,-6.926376 -2.367291,-0.631792 -5.406651,4.826166 -7.358907,4.949266 -1.952256,0.1231 -6.54077,-2.77262 -4.602312,-4.353867 z" />
    </g>
    <g
       inkscape:groupmode="layer"
       id="g46"
       inkscape:label="asobi Asobase"
       transform="matrix(1.3443777,0,0,1.3443777,-50.649587,-31.267866)">
      <path
         d="m 143.80577,96.048371 c -0.23561,0.0036 -0.42939,0.101112 -0.57531,0.183054 -0.37478,0.210418 -0.72344,0.605093 -0.62325,1.343849 0.0545,0.402141 0.2133,1.955694 0.47216,4.224766 -1.49502,0.61775 -2.53008,0.98958 -3.37197,1.15644 -0.86596,0.17163 -1.52631,0.13239 -2.32305,-0.0785 -0.61922,-0.16386 -1.10229,-0.47979 -1.4746,-0.79905 -0.26806,-0.22986 -0.47754,-0.45983 -0.64069,-0.63633 -0.0952,-0.10295 -0.20107,-0.21872 -0.2862,-0.27748 -0.0603,-0.0417 -0.17104,-0.0972 -0.28766,-0.0349 -0.16449,0.0879 -0.14659,0.31158 -0.1293,0.43148 0.0876,0.60741 0.7039,1.91855 1.97728,2.69642 1.47667,0.90205 4.1246,1.0651 6.86162,0.30364 0.0644,0.52974 0.13278,1.08212 0.20484,1.65184 0.58155,4.59745 1.44963,10.68127 1.66347,12.01764 0.15976,0.99839 0.42129,2.72136 1.24942,3.21943 0.2242,0.13484 0.48893,0.17956 0.78161,0.10896 0.68475,-0.16518 1.02348,-0.5363 1.11576,-1.02714 0.0881,-0.46852 -0.0553,-1.01526 -0.25279,-1.54143 -0.38066,-1.01426 -1.3715,-4.46328 -1.8843,-7.64032 -0.51513,-3.19152 -0.63139,-4.18232 -0.82955,-6.59576 -0.0224,-0.2726 -0.0473,-0.55774 -0.0741,-0.84844 2.13083,-0.74698 4.5133,-1.63475 5.41462,-2.52498 0.2356,-0.23271 0.39672,-0.49062 0.40388,-0.76999 0.0333,-1.300587 -0.69466,-1.807883 -2.0136,-1.929335 -0.56591,-0.05211 -1.52643,-0.392194 -2.40004,-0.809215 -0.52416,-0.250213 -1.02237,-0.528443 -1.3976,-0.783065 -0.25016,-0.169748 -0.44648,-0.330776 -0.55352,-0.453276 -0.38156,-0.436678 -0.71625,-0.593161 -1.02714,-0.588388 z m 1.40632,2.577284 c 0.19007,0.0042 0.48675,0.06946 0.79033,0.172885 0.30358,0.103421 0.619,0.243502 0.86442,0.386447 0.16362,0.0953 0.29652,0.194516 0.37047,0.271675 0.037,0.03858 0.0573,0.07178 0.0639,0.08717 6.4e-4,0.0015 0.001,0.0018 0.001,0.0029 -0.0494,0.130674 -0.19438,0.30466 -0.56224,0.541898 -0.3435,0.22153 -0.86941,0.49404 -1.64458,0.84554 -0.0594,-0.68464 -0.10169,-1.28885 -0.1046,-1.715773 -0.001,-0.192088 0.006,-0.350105 0.0203,-0.45473 0.008,-0.05743 0.0191,-0.09991 0.0247,-0.116225 9.9e-4,-5.11e-4 0.003,-8.41e-4 0.004,-0.0015 0.0202,-0.0092 0.0833,-0.02229 0.17143,-0.02034 z"
         id="path45"
         sodipodi:nodetypes="zzzzzzzzzzzzzzzzzzz"
         inkscape:original-d="m 147.48334,99.597454 c 0.16743,-0.484836 -2.37422,-1.505415 -2.60987,-1.039628 -0.23564,0.465789 0.19613,3.795924 0.39444,6.211224 0.19831,2.4153 0.31703,3.41801 0.83242,6.61113 0.51539,3.19313 1.50079,6.63287 1.8926,7.67686 0.39181,1.04398 0.50202,2.02523 -0.73304,2.32315 -1.23506,0.29792 -1.59054,-1.84901 -1.80328,-3.17849 -0.21274,-1.32949 -1.08042,-7.40784 -1.66278,-12.01171 -0.58236,-4.60386 -0.91341,-7.988815 -1.00157,-8.63922 -0.0882,-0.650399 0.20779,-0.975656 0.52924,-1.156131 0.32144,-0.180505 0.74047,-0.358689 1.3715,0.363496 0.63105,0.722191 3.24009,1.995087 4.47428,2.108727 1.2342,0.113649 1.87548,0.554548 1.84509,1.740758 -0.0304,1.18622 -3.81721,2.47274 -6.82805,3.51722 -3.01082,1.04451 -5.9898,0.92328 -7.5433,-0.0257 -1.55349,-0.94898 -2.05675,-2.6983 -1.85811,-2.80441 0.19864,-0.10611 0.91988,1.33137 2.5534,1.76364 1.63351,0.43227 2.80696,0.16151 5.94486,-1.14155 3.13788,-1.30307 4.03473,-1.83453 4.20216,-2.319362 z" />
      <path
         d="m 153.26066,104.28435 c -2.34101,-0.007 -4.95129,0.72711 -7.75074,2.39568 -0.31196,-0.0885 -0.66512,-0.13476 -0.84699,0.0203 -0.044,0.0376 -0.085,0.0914 -0.0973,0.16417 -0.0211,0.1244 0.0518,0.2279 0.14819,0.31235 -0.25314,0.16499 -0.50795,0.33674 -0.76418,0.5172 -6.56202,4.62163 -7.8597,11.95057 -6.67711,15.3809 0.29555,0.85731 0.75527,1.49649 1.36128,1.76371 0.56905,0.25093 1.14706,0.33752 1.73756,0.25424 2.33069,-0.32868 4.77401,-3.30643 7.84663,-8.84325 2.52706,-4.55373 0.69997,-7.42556 -1.13029,-8.7619 3.61753,-1.97194 6.5033,-1.95957 8.63841,-1.13319 2.18599,0.84608 3.59419,2.56624 4.14632,3.91823 1.18267,2.89605 1.3653,7.6017 -2.23588,11.90723 -1.44539,1.7281 -3.05661,3.0793 -4.45286,4.11 -0.6702,0.49474 -1.29041,0.91582 -1.82037,1.26975 -0.74525,0.49772 -1.39181,0.9112 -1.65185,1.18259 -0.11431,0.11931 -0.22772,0.29159 -0.1293,0.46345 0.0524,0.0915 0.14278,0.12593 0.21647,0.13801 0.52069,0.0854 2.32188,-0.7727 3.7221,-1.52109 1.94356,-1.03878 4.24033,-2.4653 5.7386,-3.74098 3.02904,-2.57905 6.33249,-9.00331 3.02039,-14.47289 -1.94089,-3.2052 -5.07991,-5.31314 -9.01904,-5.32455 z m -7.14637,3.77149 c 0.71656,0.50747 1.45558,1.23832 1.66492,2.34484 0.21899,1.15754 -0.13475,2.76682 -1.80439,5.02381 -2.58492,3.49424 -4.05293,5.17496 -4.98169,5.93618 -0.46438,0.38062 -0.78624,0.52842 -1.04602,0.57677 -0.25978,0.0483 -0.47633,-7e-5 -0.75255,-0.0537 -0.0151,-0.003 -0.051,-0.0189 -0.0988,-0.0741 -0.0717,-0.0828 -0.15729,-0.24361 -0.22809,-0.46635 -0.17698,-0.55685 -0.2731,-1.49355 -0.14964,-2.63975 0.30866,-2.86552 1.96024,-7.05744 6.88632,-10.31931 0.17145,-0.11353 0.34134,-0.22335 0.50994,-0.32834 z"
         id="path46"
         sodipodi:nodetypes="zzzzzzzzzzzzz"
         inkscape:original-d="m 146.12384,115.53521 c -5.17585,6.9966 -5.87129,6.74338 -6.96363,6.5311 -1.09235,-0.21228 -1.94434,-8.35115 6.34128,-13.83759 8.28563,-5.48643 13.33526,-0.9805 14.54212,1.97475 1.20685,2.95525 1.38151,7.73691 -2.26448,12.09601 -3.64599,4.3591 -8.31701,6.32369 -8.03622,6.81397 0.28079,0.4903 6.42583,-2.64473 9.39545,-5.17318 2.96962,-2.52846 6.23935,-8.8572 2.98283,-14.23501 -3.25651,-5.37781 -9.9155,-7.59826 -18.06472,-1.85878 -8.14922,5.73949 -8.04205,15.63338 -5.34715,16.82171 2.69491,1.18832 5.47752,-1.53658 9.34636,-8.50818 3.86884,-6.9716 -2.6782,-9.82577 -3.27192,-9.31944 -0.59371,0.50632 6.51593,1.69804 1.34008,8.69464 z" />
    </g>
    <g
       inkscape:groupmode="layer"
       id="g49"
       inkscape:label="asoBI asobase"
       transform="matrix(1.3443777,0,0,1.3443777,-50.649587,-31.267866)">
      <path
         d="m 134.58915,79.152194 c -0.45837,8.9e-5 -0.92525,0.06981 -1.37145,0.230996 -1.16063,0.419259 -2.60855,1.3988 -3.71048,2.347741 -0.83642,0.720298 -1.579,1.513792 -1.74047,2.031028 -0.0422,0.135211 -0.0559,0.284691 0.0131,0.414051 0.0665,0.124741 0.16682,0.209677 0.30073,0.241166 0.0993,0.02334 0.20254,0.01352 0.30219,-0.01017 0.35924,-0.0854 0.99748,-0.469954 1.68525,-0.804856 0.80751,-0.393208 1.88412,-0.838891 3.31096,-1.123022 1.72176,-0.342861 2.62046,-0.328724 3.19327,-0.332693 0.38197,-0.0026 0.65168,-0.0108 0.89784,-0.174338 0.15261,-0.101386 0.28201,-0.253159 0.42422,-0.463446 0.14639,-0.216459 0.16705,-0.457389 0.0915,-0.69299 -0.28065,-0.875472 -1.87371,-1.663764 -3.39667,-1.663467 z"
         id="path47"
         sodipodi:nodetypes="zzzzz"
         inkscape:original-d="m 137.73969,81.404439 c 0.68532,-1.013378 -2.2019,-2.6622 -4.45986,-1.846547 -2.25796,0.815654 -5.70201,3.844493 -5.33622,4.530296 0.36579,0.685803 1.78394,-1.071936 5.39879,-1.791775 3.61485,-0.719839 3.71197,0.121403 4.39729,-0.891974 z" />
      <path
         d="m 131.96828,73.374369 c -1.04563,-0.04149 -2.34711,0.395609 -3.43154,1.682354 -1.06269,1.260949 -1.84645,2.71125 -2.28091,3.896436 -0.3896,1.06284 -0.60256,2.194722 -0.0915,2.472682 0.31839,0.173172 0.60145,-0.04781 0.87024,-0.382089 0.24789,-0.308295 0.55748,-0.795358 0.93851,-1.310434 0.52444,-0.708923 1.22827,-1.539985 2.24169,-2.29544 1.22599,-0.913922 2.07588,-1.293311 2.65283,-1.574846 0.37561,-0.18329 0.67078,-0.340198 0.83682,-0.602916 0.10792,-0.170766 0.15254,-0.36796 0.15254,-0.615991 1e-5,-0.705433 -0.86203,-1.229017 -1.88865,-1.269756 z"
         id="path48"
         sodipodi:nodetypes="zzzzz"
         inkscape:original-d="m 126.25356,81.2636 c 0.66309,0.360664 1.26754,-2.049975 3.84957,-3.974764 2.58203,-1.924789 3.5679,-1.533572 3.5679,-2.644628 1e-5,-1.111057 -2.89501,-1.956085 -4.99193,0.532054 -2.09693,2.488139 -3.08863,5.726674 -2.42554,6.087338 z" />
      <path
         d="m 120.91966,80.854887 c -0.27976,-1.76e-4 -0.57408,0.08051 -0.89057,0.242619 -0.40241,0.206126 -0.68576,0.448582 -0.83972,0.767083 -0.12366,0.255793 -0.15554,0.540465 -0.11768,0.865875 0.0298,0.256292 0.10388,0.543363 0.21211,0.858611 0.42267,1.231201 1.49211,3.221135 2.75743,6.123593 2.55568,5.862342 2.80495,6.695605 3.76859,11.442332 0.23662,1.16552 0.32117,2.65545 0.17724,4.23058 -0.14393,1.57513 -0.51603,3.23659 -1.18694,4.75069 -0.67091,1.51409 -1.63913,2.87959 -2.97391,3.87755 -1.33477,0.99795 -3.03821,1.63281 -5.20251,1.67654 -2.16472,0.0437 -3.85372,-0.51426 -5.17926,-1.46443 -1.32554,-0.95017 -2.2893,-2.29848 -2.97245,-3.84704 -1.36631,-3.09713 -1.59904,-6.99013 -1.37436,-9.975 0.2248,-2.986358 0.92355,-5.827963 1.67218,-8.068901 0.74864,-2.240937 1.55966,-3.895954 1.95403,-4.455767 0.67993,-0.965149 1.34102,-2.610523 0.85716,-3.627666 -0.12682,-0.26659 -0.32762,-0.483437 -0.62035,-0.631972 -0.27515,-0.139617 -0.53788,-0.207953 -0.79323,-0.212111 -0.99843,-0.01626 -1.75132,0.957651 -2.57148,1.927879 -0.53649,0.634664 -1.38728,1.838351 -2.48866,3.008769 -1.10138,1.170417 -2.44796,2.297821 -3.93276,2.773414 -0.89105,0.285413 -1.612023,0.273038 -2.211172,0.127847 -0.599149,-0.145191 -1.078421,-0.425909 -1.468791,-0.691538 -0.24398,-0.166018 -0.491194,-0.354536 -0.678462,-0.467804 -0.19663,-0.118932 -0.416349,-0.214938 -0.626161,-0.117678 -0.251617,0.11664 -0.241402,0.409471 -0.133658,0.672651 0.403864,0.986495 2.431124,2.787012 5.115344,2.524983 3.37376,-0.32934 5.60637,-2.434986 6.68292,-3.399574 0.18581,-0.166486 0.32968,-0.258298 0.41696,-0.294921 0.043,-0.01803 0.0699,-0.02132 0.0814,-0.02179 v 0.0015 c 7.8e-4,0.0016 0.002,0.0036 0.003,0.0058 0.01,0.02448 0.021,0.08617 0.0174,0.167073 -0.01,0.215739 -0.10968,0.551432 -0.22809,0.784517 -0.33722,0.663754 -3.38741,7.019415 -3.4112,15.165879 -0.024,8.20307 4.14102,14.40711 11.98568,14.28258 7.85828,-0.12475 12.30144,-8.77089 11.20552,-16.54751 -1.08803,-7.720585 -2.99348,-10.609774 -3.7221,-12.399729 -0.22054,-0.541814 -0.36653,-0.99245 -0.41114,-1.278473 -0.0149,-0.09534 -0.0193,-0.17193 -0.0145,-0.220827 0.002,-0.01927 0.006,-0.03417 0.009,-0.04358 0.003,5.09e-4 0.009,4.73e-4 0.0131,0.0015 0.0452,0.0098 0.13773,0.04965 0.2586,0.130753 0.24175,0.162198 0.60041,0.48081 1.07363,0.974835 1.93029,2.015165 5.60864,4.624296 8.70959,5.850465 1.21867,0.481883 2.45699,0.99715 3.51435,1.236341 1.06881,0.24178 2.01888,0.216069 2.6107,-0.457635 0.29497,-0.335787 0.48275,-0.8155 0.55933,-1.457168 0.23499,-1.968987 -0.60074,-2.545023 -2.18357,-2.828621 -1.02059,-0.18286 -2.34683,-0.257255 -3.93712,-0.554973 -1.96849,-0.368522 -3.85913,-1.315939 -5.51051,-2.542417 -1.65137,-1.226479 -3.06397,-2.731648 -4.07949,-4.202979 -0.86006,-1.246102 -1.46323,-2.384728 -2.02667,-3.229596 -0.5637,-0.845281 -1.11282,-1.431997 -1.86831,-1.43247 z"
         id="path49"
         sodipodi:nodetypes="zzzzzzzzzzzzzzzzzzzzzzz"
         inkscape:original-d="m 96.268951,90.137271 c 0.599561,-0.277933 1.893318,2.140178 4.962369,1.157136 3.06905,-0.983042 5.45951,-4.59883 6.5074,-5.838463 1.04789,-1.239633 1.87066,-2.313062 3.13756,-1.670221 1.2669,0.642841 0.54146,2.784935 -0.30474,3.986103 -0.84619,1.201169 -3.20717,6.604549 -3.65977,12.617224 -0.4526,6.01268 0.92113,15.66437 9.71639,15.48665 8.79526,-0.17772 10.32788,-10.00782 9.36381,-14.75659 -0.96406,-4.748778 -1.22358,-5.616689 -3.7801,-11.480959 -2.55652,-5.864271 -3.99763,-7.401704 -2.09814,-8.374673 1.89949,-0.972969 2.49263,1.382041 4.54783,4.359723 2.0552,2.977681 5.70016,6.071937 9.708,6.822245 4.00784,0.750309 6.33895,0.09325 5.97073,3.178555 -0.36823,3.085301 -3.35524,1.743774 -6.4311,0.527525 -3.07587,-1.21625 -6.73188,-3.811209 -8.6435,-5.80688 -1.91163,-1.995671 -1.97866,-1.193131 -1.23486,0.634155 0.74381,1.827287 2.62567,4.667087 3.70929,12.356399 1.08362,7.68931 -3.30044,16.21385 -11.0232,16.33645 -7.72277,0.1226 -11.82045,-5.98072 -11.79673,-14.09696 0.0237,-8.116238 3.06506,-14.440649 3.391,-15.082212 0.32594,-0.641563 0.50175,-1.832458 -0.57952,-0.863642 -1.08127,0.968816 -3.27266,3.030107 -6.57815,3.352783 -3.305493,0.322676 -5.48413,-2.566415 -4.884569,-2.844348 z" />
    </g>
    <g
       inkscape:groupmode="layer"
       id="g50"
       inkscape:label="aSObi asobase"
       transform="matrix(1.3443777,0,0,1.3443777,-50.649587,-31.267866)">
      <path
         d="m 94.44511,96.580099 c -0.948855,-0.0503 -2.030207,0.419223 -3.430084,1.508017 -1.241314,0.965467 -2.096026,1.912634 -2.847507,2.606344 -0.754428,0.69642 -1.396732,1.13939 -2.273647,1.18839 -0.397324,0.0222 -0.743656,-0.1822 -1.088155,-0.5201 -0.344498,-0.3379 -0.668593,-0.79925 -0.99808,-1.22617 -0.321765,-0.416915 -0.671301,-0.829524 -1.073626,-1.024233 -0.426466,-0.206393 -0.894052,-0.161322 -1.401962,0.277486 -0.201069,0.173714 -0.340274,0.363227 -0.419862,0.568049 -0.677882,1.744548 3.23469,3.796138 4.919214,3.974888 0.852131,0.0904 1.872233,-0.89851 2.860582,-1.89156 0.936019,-0.94047 1.948647,-2.00502 2.94194,-2.623773 0.662195,-0.4125 1.302748,-0.621783 1.910445,-0.504125 0.534293,0.103445 0.764761,0.266607 0.828101,0.428578 0.02534,0.06479 0.03167,0.140065 0.01308,0.239714 -0.0279,0.149474 -0.118251,0.346702 -0.271676,0.578216 -0.306849,0.46304 -0.856698,1.05742 -1.56177,1.76517 -1.055543,1.05955 -2.469075,2.38933 -3.953096,3.98069 -3.184443,3.41478 -7.352135,8.0336 -7.750739,10.34837 -0.106575,0.6189 0.04809,1.12159 0.56369,1.38598 0.462421,0.23712 0.847932,0.29024 1.213096,0.17434 0.555961,-0.17646 1.022191,-0.74678 1.627147,-1.42085 0.938953,-1.04624 2.312531,-2.49446 5.064494,-3.82089 2.313611,-1.11515 3.911178,-1.84847 5.006383,-2.28527 0.492842,-0.19656 0.884757,-0.33318 1.189851,-0.41696 0.305094,-0.0838 0.524738,-0.11342 0.665387,-0.10605 0.09377,0.005 0.148886,0.0249 0.183054,0.0465 0.02315,0.0146 0.03926,0.0305 0.05375,0.0538 -0.01152,0.0149 -0.02922,0.0357 -0.05375,0.0596 -0.0385,0.0374 -0.09121,0.083 -0.156904,0.13366 -0.197071,0.15209 -0.50302,0.35194 -0.874591,0.59565 -0.61868,0.40578 -1.425487,0.93682 -2.253308,1.6039 -0.460238,0.37087 -0.92789,0.78429 -1.375811,1.2436 -1.494891,1.53291 -2.770134,3.57829 -2.78213,6.22675 -0.006,1.32656 0.316951,2.41221 0.849893,3.29787 2.103199,3.49519 7.412788,3.78133 8.140093,3.77005 0.292426,-0.005 0.839959,0.0504 1.303171,0.0232 0.490168,-0.0287 1.013007,-0.14824 1.333677,-0.54771 0.16286,-0.20288 0.26514,-0.46532 0.29056,-0.79904 0.0779,-1.02214 -0.49934,-1.40557 -1.281374,-1.51528 -0.488981,-0.0686 -1.076631,-0.0372 -1.624242,-0.0247 -0.700521,0.016 -2.621725,0.0588 -4.329373,-0.60728 -0.853823,-0.33303 -1.64994,-0.83959 -2.224251,-1.60826 -0.574312,-0.76867 -0.933628,-1.80381 -0.897837,-3.22523 0.05627,-2.2348 1.811221,-4.1255 4.008302,-5.60349 1.647811,-1.10849 3.531113,-1.97706 5.07757,-2.58455 1.546455,-0.60749 2.773875,-0.95712 3.052345,-1.01842 0.61338,-0.13503 1.10804,-0.24439 1.37,-0.66975 0.17465,-0.28356 0.22585,-0.67672 0.18451,-1.23198 -0.0683,-0.91704 -0.57515,-1.25722 -1.28428,-1.293 -0.44329,-0.0224 -0.97483,0.0728 -1.51819,0.18306 -1.423447,0.28887 -7.760336,2.36423 -12.094636,4.5502 -1.570002,0.79181 -2.581034,1.33954 -3.24703,1.68961 -0.444106,0.23344 -0.736897,0.37851 -0.92544,0.44747 -0.157118,0.0575 -0.22773,0.0569 -0.262958,0.0465 -0.03469,-0.0103 -0.07784,-0.0429 -0.155451,-0.13366 v -10e-4 c 0,0 0,-0.001 0,-0.001 -8.56e-4,-0.005 -0.0012,-0.0154 0,-0.0305 0.0031,-0.0379 0.01955,-0.10569 0.05666,-0.19032 0.111316,-0.2539 0.388626,-0.656 0.780159,-1.13465 0.978831,-1.19662 2.670956,-2.90875 4.365693,-4.58071 2.821112,-2.78319 4.789049,-4.38903 6.312458,-5.60494 1.615134,-1.28911 1.659645,-2.457146 0.229544,-3.787471 -0.609553,-0.567025 -1.240908,-0.922416 -1.983085,-0.96176 z"
         id="path50"
         sodipodi:nodetypes="zzzzzzzzzzzzzzzzzzzzzzz"
         inkscape:original-d="m 81.453514,99.530522 c 1.818765,-1.571323 2.579782,2.642498 4.44992,2.537998 1.870138,-0.1045 2.761994,-1.91696 5.226661,-3.833925 2.464667,-1.916964 3.826098,-1.807423 5.171887,-0.555528 1.345789,1.251895 1.305711,2.288305 -0.219081,3.505313 -1.524792,1.21701 -3.500945,2.8296 -6.327384,5.61805 -2.826439,2.78845 -5.643051,5.68549 -5.215971,6.18753 0.42708,0.50204 0.462477,0.19682 4.818833,-2.00027 4.356357,-2.19709 10.675591,-4.25704 12.047761,-4.53551 1.37217,-0.27847 2.47929,-0.41145 2.58013,0.94305 0.10084,1.3545 -0.38092,1.47901 -1.40916,1.70537 -1.02824,0.22636 -12.13777,3.56298 -12.284355,9.38452 -0.146585,5.82154 6.242082,5.66277 7.641981,5.63086 1.399899,-0.0319 2.829954,-0.16707 2.715124,1.34027 -0.11483,1.50734 -1.905936,1.13779 -2.744187,1.15079 -0.83825,0.013 -8.830674,-0.41369 -8.801384,-6.88032 0.02929,-6.46663 7.765528,-9.27406 7.502777,-9.89822 -0.262751,-0.62416 -1.584664,-0.21402 -7.372259,2.57557 -5.787595,2.78959 -5.596185,6.16784 -7.739023,5.06903 -2.142838,-1.09881 3.123645,-7.02867 7.240285,-11.44307 4.11664,-4.4144 7.641512,-6.76046 4.843098,-7.302268 -2.798414,-0.541808 -5.889507,5.213118 -7.727821,5.018048 -1.838314,-0.19507 -6.216598,-2.64597 -4.397832,-4.217288 z" />
    </g>
    <g
       inkscape:groupmode="layer"
       id="g52"
       inkscape:label="Asobi asobase"
       transform="matrix(1.3443777,0,0,1.3443777,-50.649587,-31.267866)">
      <path
         d="m 53.095239,76.675153 c -0.0066,3.88e-4 -0.01346,0.0018 -0.02034,0.0029 -0.189918,0.0296 -0.309843,0.260706 -0.382089,0.428579 -0.361945,0.841026 -0.639262,2.965155 0.331241,4.970062 1.142356,2.35993 4.419887,4.767469 8.602086,6.037877 -0.369766,0.764129 -0.752271,1.56233 -1.14772,2.389872 -3.048775,6.380063 -6.958796,14.908757 -7.785607,16.795927 -0.631751,1.44196 -1.681143,3.81186 -1.056193,5.08193 0.165783,0.33691 0.443103,0.59298 0.855705,0.73658 0.97953,0.34089 1.683653,0.14909 2.177762,-0.37338 0.478964,-0.50645 0.742333,-1.30504 0.922534,-2.13999 0.352312,-1.63239 1.929582,-6.87209 3.897889,-11.381303 1.974155,-4.522612 2.645835,-5.897654 4.38458,-9.159965 0.207537,-0.389392 0.422246,-0.797622 0.639236,-1.216002 3.401926,0.813487 7.191441,1.642337 9.065533,1.247963 0.481187,-0.101258 0.87464,-0.290581 1.093965,-0.613085 1.082642,-1.591958 0.587096,-2.790889 -0.970477,-4.008302 -0.704654,-0.550764 -1.655467,-1.782292 -2.436362,-3.04509 -0.468537,-0.757678 -0.880677,-1.528628 -1.154983,-2.17195 -0.182871,-0.428881 -0.302923,-0.804149 -0.341411,-1.06491 -0.232393,-1.574501 -1.027113,-1.721492 -1.632958,-1.757899 -0.623719,-0.03748 -1.350959,0.1653 -1.813106,1.154983 -0.267222,0.572252 -1.357501,2.716242 -2.915789,5.878068 -2.471052,-0.447455 -4.131589,-0.82746 -5.373944,-1.317698 -1.265309,-0.499296 -2.100579,-1.106231 -2.956467,-2.04265 -0.672064,-0.735299 -1.035543,-1.554504 -1.252322,-2.280912 -0.156082,-0.523013 -0.234489,-0.996591 -0.297826,-1.356924 -0.03959,-0.225208 -0.07647,-0.43363 -0.133659,-0.570954 -0.03783,-0.09083 -0.112797,-0.211897 -0.2586,-0.223733 -0.0042,-3.45e-4 -0.02095,-0.0012 -0.04068,0 z m 15.347482,5.157475 c 0.0028,-4.54e-4 0.0063,2.81e-4 0.01017,0 0.02959,-0.0021 0.09497,0.0095 0.180148,0.0523 0.08518,0.04281 0.188445,0.113105 0.299279,0.204846 0.332502,0.275224 0.73226,0.740588 1.066363,1.227624 0.334102,0.487036 0.605599,1.003376 0.700254,1.351113 0.03786,0.139095 0.04299,0.249085 0.03196,0.303637 -0.0074,0.03637 -0.0145,0.04366 -0.02179,0.0494 -0.193929,0.152594 -0.547929,0.259497 -1.243605,0.260053 -0.655117,5.23e-4 -1.600356,-0.09153 -2.960826,-0.29492 0.514528,-0.979498 0.984006,-1.836907 1.351113,-2.416023 0.158272,-0.249676 0.298111,-0.44799 0.40824,-0.576765 0.07342,-0.08585 0.136855,-0.140271 0.162714,-0.155451 0.004,-0.0023 0.0075,-0.0044 0.01598,-0.0058 z"
         id="path51"
         sodipodi:nodetypes="zzzzzzzzzzzzzzzzzzz"
         inkscape:original-d="m 70.824096,85.168274 c 0.615205,-0.484077 -1.804551,-3.892539 -2.49159,-3.489226 -0.687039,0.403313 -2.882306,5.034244 -4.621915,8.298178 -1.73961,3.263935 -2.415096,4.648997 -4.389909,9.173115 -1.974813,4.524119 -3.549959,9.752829 -3.908989,11.416349 -0.35903,1.66352 -1.027719,3.01401 -2.858978,2.3767 -1.831259,-0.63731 -0.514965,-3.68653 0.309635,-5.56866 0.8246,-1.88213 4.729368,-10.400488 7.78298,-16.790673 3.053612,-6.390185 5.423431,-11.008326 5.847259,-11.915948 0.423828,-0.907622 1.072251,-1.080763 1.633867,-1.047012 0.561616,0.03375 1.246574,0.150951 1.460293,1.598932 0.213719,1.447982 2.511657,5.235946 4.002,6.400811 1.490343,1.164866 1.949454,2.26026 0.931058,3.757749 -1.018396,1.49749 -6.941211,0.02226 -11.668189,-1.122889 -4.726978,-1.145149 -8.450606,-3.760292 -9.661105,-6.260995 -1.210499,-2.500702 -0.412171,-5.161582 -0.06959,-5.133771 0.342581,0.02781 0.08152,2.468391 1.821345,4.371919 1.739826,1.903528 3.469578,2.52483 8.573119,3.443018 5.103541,0.918189 6.693504,0.97648 7.308709,0.492403 z" />
      <path
         d="m 61.38933,92.048786 c -0.0054,2.65e-4 -0.02042,9.5e-4 -0.03487,0.0029 -0.07162,0.0097 -0.145143,0.0379 -0.201941,0.100244 -0.125187,0.137416 -0.08317,0.349274 -0.0029,0.554973 -0.504279,0.0013 -1.017651,0.01286 -1.541431,0.03487 -12.211102,0.513181 -19.877545,8.830767 -21.177607,14.153277 -0.324513,1.32857 -0.25782,2.50224 0.277487,3.3124 0.514375,0.77849 1.167257,1.35143 1.977274,1.72449 3.207366,1.47719 8.750768,-0.28712 17.286983,-4.86837 7.058683,-3.78827 6.968243,-9.028564 5.681938,-12.202148 6.387723,0.428796 10.15611,2.85739 12.248639,5.728428 2.124991,2.91558 2.516508,6.30988 2.103669,8.52945 -0.879186,4.72682 -4.553613,10.94846 -12.765839,13.51258 -4.115268,1.28492 -8.072377,1.59726 -11.009392,1.69398 -1.82095,0.06 -3.359761,0.036 -4.175376,0.12204 -0.203903,0.0215 -0.387823,0.053 -0.524464,0.0973 -0.179755,0.0583 -0.351434,0.1645 -0.36175,0.36466 -0.0062,0.11947 0.06034,0.2141 0.132206,0.27894 0.547775,0.49419 3.394136,0.88674 5.975407,1.09542 3.353748,0.27112 7.463644,0.33694 10.432626,-0.0625 5.976284,-0.80398 15.481057,-6.29143 15.744099,-15.98963 C 81.700633,101.14208 75.74053,93.164578 62.39758,92.725795 62.069039,92.346665 61.694759,92.03369 61.38933,92.048786 Z m -0.232449,2.747263 c 0.336919,-0.0045 0.667415,-0.0041 0.992269,0.0015 0.518474,1.264834 0.89355,2.867111 0.225185,4.518238 -0.688115,1.699923 -2.497526,3.489603 -6.518757,5.013653 -6.20536,2.35182 -9.479247,3.29921 -11.318841,3.51144 -0.919797,0.10611 -1.472415,0.0298 -1.865407,-0.13076 -0.392992,-0.1606 -0.642539,-0.41168 -0.951591,-0.70751 -0.0382,-0.0366 -0.07805,-0.11084 -0.09588,-0.23536 -0.02675,-0.18678 -7.51e-4,-0.47422 0.09443,-0.82665 0.237959,-0.88106 0.894869,-2.1686 2.006331,-3.54631 2.778654,-3.444271 8.387612,-7.478127 17.432264,-7.598194 z"
         id="path52"
         sodipodi:nodetypes="zzzzzzzzzzzzz"
         inkscape:original-d="m 55.920327,104.50301 c -12.420182,4.70724 -13.103753,3.80804 -14.330584,2.63368 -1.226831,-1.17435 4.399304,-12.324567 19.564244,-12.525881 15.16494,-0.201313 17.926231,9.751511 17.035353,14.541191 -0.890877,4.78968 -4.61458,11.07146 -12.893479,13.6564 -8.278899,2.58494 -15.896492,1.25007 -15.940872,2.11122 -0.04438,0.86115 10.431561,1.91069 16.330846,1.11707 5.899286,-0.79362 15.321419,-6.21738 15.581566,-15.80885 0.260147,-9.59147 -6.453817,-17.939463 -21.652599,-17.300722 -15.198781,0.638741 -23.229965,13.426692 -20.751995,17.176992 2.47797,3.7503 8.299408,2.55013 19.021313,-3.20414 10.721905,-5.75427 4.674839,-14.823243 3.494723,-14.663532 -1.180115,0.15971 6.961666,7.559327 -5.458516,12.266572 z" />
    </g>
  </g>
  <g
     id="layer7"
     inkscape:label="kana">
    <g
       inkscape:groupmode="layer"
       id="layer5-7"
       inkscape:label="asobi asobaSE"
       style="display:inline"
       transform="matrix(1.3443777,0,0,1.3443777,-50.649587,-31.267866)">
      <path
         style="fill:#61d064;fill-opacity:1;stroke:#000000;stroke-width:0;stroke-linecap:round;stroke-linejoin:round"
         d="m 214.21321,117.3583 c -0.48449,0.85835 -1.10758,2.78278 2.62351,3.39308 3.73109,0.6103 5.48401,-1.38875 6.76055,-2.72466 1.27654,-1.33591 3.33779,-3.95168 5.74459,-6.62336 2.4068,-2.67168 3.36069,-3.66784 6.54554,-6.84111 3.18485,-3.17327 4.44504,-4.25261 6.72975,-6.272887 2.28471,-2.020277 6.5881,-3.630494 4.99193,-5.93085 -1.59617,-2.300356 -2.03433,-0.829372 -3.97477,-0.813731 -1.94044,0.01564 -6.0965,-1.257131 -7.24534,0.504555 -1.14884,1.761686 0.70418,4.941192 2.25341,8.368253 1.54923,3.42706 2.2967,5.52725 3.16104,7.26098 0.86434,1.73373 0.63321,1.7644 -0.81373,1.50228 -1.44694,-0.26212 -10.48493,-1.96723 -13.09838,-2.57203 -2.61345,-0.6048 -4.9602,-1.63748 -5.78959,-0.60466 -0.82939,1.03282 0.0434,2.39028 2.48813,7.33923 2.44475,4.94895 5.33904,12.75904 10.24226,14.82931 4.90322,2.07027 14.87403,-3.86661 18.80224,-6.40188 3.9282,-2.53528 5.08528,-3.29465 3.583,-5.12555 -1.50227,-1.83091 -2.2534,-1.2832 -6.07169,1.83089 -3.81828,3.11409 -11.51463,8.81213 -15.72569,7.7649 -4.21106,-1.04723 -8.68408,-13.78192 -9.46142,-15.77009 -0.77733,-1.98817 -1.55166,-2.95178 2.12932,-2.42632 3.68098,0.52546 10.56024,2.48286 12.39188,3.19002 1.83164,0.70716 2.68508,1.38894 3.59271,0.59085 0.90763,-0.79809 0.0313,-2.81675 -1.1267,-5.3049 -1.158,-2.48815 -2.40571,-5.85299 -3.21047,-7.690294 -0.80476,-1.837304 -2.68908,-4.961664 -2.16485,-5.978828 0.52423,-1.017165 4.52751,-0.312099 4.86674,0.46946 0.33923,0.781559 -0.23966,1.214488 -1.86082,2.830299 -1.62116,1.615811 -3.2639,3.994003 -5.96204,7.181053 -2.69813,3.18705 -5.69521,6.19953 -6.27661,6.8501 -0.5814,0.65057 -4.9282,4.82915 -7.0935,6.39079 -2.1653,1.56164 -2.94733,1.04788 -4.26774,0.34307 -1.32041,-0.70481 -2.27877,-0.41632 -2.76326,0.44203 z"
         id="path33"
         sodipodi:nodetypes="zzzzzzzzzzzzzzzzzzzzzzzzzzzzzzzzzz" />
    </g>
    <g
       inkscape:groupmode="layer"
       id="layer5"
       inkscape:label="asobi asoBAse"
       style="display:inline"
       transform="matrix(1.3443777,0,0,1.3443777,-50.649587,-31.267866)">
      <path
         style="fill:#02c1a2;fill-opacity:1;stroke:#000000;stroke-width:0;stroke-linecap:round;stroke-linejoin:round"
         d="m 189.49781,75.830421 c 0.5025,-0.540124 4.26234,2.268842 4.11724,7.074976 -0.14509,4.806134 -5.45531,9.859982 -7.39575,17.433943 -1.94044,7.57396 -2.22571,12.32742 -2.18142,14.18639 0.0443,1.85897 0.25291,4.42343 -2.05278,4.38186 -2.30569,-0.0416 -2.24056,-1.79258 -1.68729,-4.75808 0.55327,-2.9655 3.15259,-12.86819 5.8589,-19.162017 2.7063,-6.293832 4.74561,-10.699756 4.89545,-14.305512 0.14984,-3.605757 -2.05686,-4.311436 -1.55435,-4.85156 z"
         id="path32"
         sodipodi:nodetypes="zzzzzzzzz" />
      <path
         style="fill:#02c1a2;fill-opacity:1;stroke:#000000;stroke-width:0;stroke-linecap:round;stroke-linejoin:round"
         d="m 236.09711,90.005701 c 0.45059,-1.24811 -2.2019,-2.881285 -5.05451,-2.081281 -2.85261,0.800005 -6.24971,4.000988 -5.68049,4.592896 0.56922,0.591908 1.78394,-0.868507 5.50833,-1.463158 3.72439,-0.59465 4.77608,0.199654 5.22667,-1.048457 z"
         id="path29-7"
         sodipodi:nodetypes="zzzzz" />
      <path
         style="fill:#02c1a2;fill-opacity:1;stroke:#000000;stroke-width:0;stroke-linecap:round;stroke-linejoin:round"
         d="m 223.57817,89.567537 c 0.58484,0.485849 1.7057,-1.924789 4.42857,-3.677443 2.72287,-1.752653 4.44421,-1.643111 4.28774,-3.035845 -0.15648,-1.392733 -3.91218,-1.7683 -5.99345,0.719839 -2.08127,2.488139 -3.30771,5.507599 -2.72286,5.993449 z"
         id="path30-6"
         sodipodi:nodetypes="zzzzz" />
      <path
         style="display:inline;mix-blend-mode:normal;fill:#02c1a2;fill-opacity:1;stroke:#a33737;stroke-width:0;stroke-linecap:round;stroke-linejoin:round;stroke-dasharray:none"
         d="m 219.07218,91.966714 c -1.15793,-0.873652 -1.8988,-1.806651 -2.88962,-3.201972 -0.99082,-1.395321 -1.27888,-1.63827 -1.45299,1.615671 -0.17411,3.253941 -0.77501,5.782197 -1.40706,8.882312 -0.63205,3.100115 -1.24564,5.476125 -2.26741,8.891965 -1.02177,3.41584 -3.60482,9.2841 -5.192,10.22404 -1.58719,0.93994 -2.01867,1.97698 -3.81565,2.26329 -1.79698,0.2863 -4.30562,0.51102 -6.62781,-0.24715 -2.3222,-0.75818 -2.67342,-2.19388 -2.5827,-2.9376 0.0907,-0.74372 0.6047,-1.56367 1.88204,-2.08034 1.27733,-0.51668 2.64613,-0.20965 3.40325,-0.0504 0.75711,0.15928 3.16664,0.90422 3.75074,1.13676 0.5841,0.23254 3.58758,1.7352 5.46464,3.12858 1.87705,1.39337 4.40327,3.65534 5.54479,4.85735 1.14153,1.20202 1.59382,2.59295 0.33148,3.8169 -0.79005,0.76603 -2.44712,0.57278 -3.07875,-0.25155 -0.91539,-1.19466 -2.83621,-3.47321 -3.88951,-4.46671 -2.42967,-2.29173 -4.49013,-3.38813 -4.35188,-3.6279 0.13825,-0.23977 -0.0803,-1.44227 2.2691,-2.75113 2.3494,-1.30886 5.70427,-10.62799 6.63343,-17.908255 0.92916,-7.280265 0.74181,-8.86167 0.616,-12.087063 -0.12581,-3.225393 0.57007,-3.243914 1.59973,-3.710207 1.02966,-0.466293 2.41838,0.38342 3.29687,2.521623 0.87849,2.138203 1.99656,4.285809 4.42766,5.32941 2.4311,1.043601 3.74485,2.241157 3.13298,4.333735 -0.61187,2.092578 -6.15292,1.490363 -10.31513,1.493578 -4.16221,0.0032 -8.18009,-1.610953 -10.53401,-3.499741 -2.35392,-1.888788 -2.40949,-5.843623 -1.8814,-5.749621 0.52809,0.094 0.40914,2.638227 3.13596,4.009555 2.72682,1.371328 4.50636,1.285799 7.88036,1.115552 3.374,-0.170246 8.07482,-0.17706 6.91689,-1.050712 z"
         id="path38-2"
         sodipodi:nodetypes="zzzzzzzzzzzzzzssszzzzzzzzzzzzzzz" />
    </g>
    <g
       inkscape:groupmode="layer"
       id="g6"
       inkscape:label="asobi aSObase"
       style="display:inline"
       transform="matrix(1.3443777,0,0,1.3443777,-50.649587,-31.267866)">
      <path
         style="display:inline;fill:#5d80c0;fill-opacity:1;stroke:#000000;stroke-width:0;stroke-linecap:round;stroke-linejoin:round"
         d="m 81.542917,99.752583 c 1.938458,-1.581248 2.924758,2.681577 4.500756,2.513967 1.575998,-0.16761 2.623586,-1.91373 5.088253,-3.830698 2.464667,-1.916966 3.762553,-1.77739 5.108342,-0.525495 1.345789,1.251895 1.517892,2.324183 -0.0069,3.541193 -1.524792,1.21701 -3.435614,2.75585 -6.262053,5.5443 -2.826439,2.78845 -5.492235,5.80253 -5.16235,6.07566 0.329885,0.27313 0.333399,0.20286 4.689756,-1.99423 4.356356,-2.19709 7.439364,-3.39453 10.287617,-4.16851 2.848252,-0.77398 4.079242,-1.10543 4.214472,0.68371 0.13523,1.78914 -1.89835,1.85412 -2.94809,2.19948 -1.04974,0.34536 -10.593703,3.39407 -10.585078,9.0323 0.0086,5.63823 6.400194,5.14626 7.800093,5.11435 1.399899,-0.0319 2.641715,0.006 2.526885,1.51341 -0.11483,1.50738 -2.050696,1.14402 -2.888947,1.15702 -0.838251,0.013 -8.853836,-0.50358 -8.824546,-6.97021 0.02929,-6.46663 7.592047,-9.10678 7.329296,-9.73094 -0.262751,-0.62416 -1.088379,-0.16917 -6.875974,2.62042 -5.787595,2.78959 -5.542265,6.14236 -7.873331,5.11052 -2.331066,-1.03184 3.138951,-7.07827 7.130402,-11.55527 3.991451,-4.477 7.079907,-6.294584 4.712616,-6.926376 -2.367291,-0.631792 -5.406651,4.826166 -7.358907,4.949266 -1.952256,0.1231 -6.54077,-2.77262 -4.602312,-4.353867 z"
         id="path6"
         sodipodi:nodetypes="sssssssssssssssssssssss"
         transform="matrix(1.0064815,0.47568443,-0.47568443,1.0064815,130.27126,-59.671634)" />
    </g>
    <g
       inkscape:groupmode="layer"
       id="layer4"
       inkscape:label="asobi Asobase"
       style="display:inline"
       transform="matrix(1.3443777,0,0,1.3443777,-50.649587,-31.267866)">
      <path
         style="display:inline;mix-blend-mode:normal;fill:#8768aa;fill-opacity:1;stroke:#a33737;stroke-width:0;stroke-linecap:round;stroke-linejoin:round;stroke-dasharray:none"
         d="m 147.48334,99.597454 c 0.16743,-0.484836 -2.37422,-1.505415 -2.60987,-1.039628 -0.23564,0.465789 0.19613,3.795924 0.39444,6.211224 0.19831,2.4153 0.31703,3.41801 0.83242,6.61113 0.51539,3.19313 1.50079,6.63287 1.8926,7.67686 0.39181,1.04398 0.50202,2.02523 -0.73304,2.32315 -1.23506,0.29792 -1.59054,-1.84901 -1.80328,-3.17849 -0.21274,-1.32949 -1.08042,-7.40784 -1.66278,-12.01171 -0.58236,-4.60386 -0.91341,-7.988815 -1.00157,-8.63922 -0.0882,-0.650399 0.20779,-0.975656 0.52924,-1.156131 0.32144,-0.180505 0.74047,-0.358689 1.3715,0.363496 0.63105,0.722191 3.24009,1.995087 4.47428,2.108727 1.2342,0.113649 1.87548,0.554548 1.84509,1.740758 -0.0304,1.18622 -3.81721,2.47274 -6.82805,3.51722 -3.01082,1.04451 -5.9898,0.92328 -7.5433,-0.0257 -1.55349,-0.94898 -2.05675,-2.6983 -1.85811,-2.80441 0.19864,-0.10611 0.91988,1.33137 2.5534,1.76364 1.63351,0.43227 2.80696,0.16151 5.94486,-1.14155 3.13788,-1.30307 4.03473,-1.83453 4.20216,-2.319362 z"
         id="path38-8"
         sodipodi:nodetypes="zzzzzzzzzzzzzzzzzzz" />
      <path
         style="display:inline;mix-blend-mode:normal;fill:#8768aa;fill-opacity:1;stroke:#000000;stroke-width:0;stroke-linecap:round;stroke-linejoin:round;stroke-dasharray:none;stroke-opacity:1"
         d="m 146.12384,115.53521 c -5.17585,6.9966 -5.87129,6.74338 -6.96363,6.5311 -1.09235,-0.21228 -1.94434,-8.35115 6.34128,-13.83759 8.28563,-5.48643 13.33526,-0.9805 14.54212,1.97475 1.20685,2.95525 1.38151,7.73691 -2.26448,12.09601 -3.64599,4.3591 -8.31701,6.32369 -8.03622,6.81397 0.28079,0.4903 6.42583,-2.64473 9.39545,-5.17318 2.96962,-2.52846 6.23935,-8.8572 2.98283,-14.23501 -3.25651,-5.37781 -9.9155,-7.59826 -18.06472,-1.85878 -8.14922,5.73949 -8.04205,15.63338 -5.34715,16.82171 2.69491,1.18832 5.47752,-1.53658 9.34636,-8.50818 3.86884,-6.9716 -2.6782,-9.82577 -3.27192,-9.31944 -0.59371,0.50632 6.51593,1.69804 1.34008,8.69464 z"
         id="path39-2"
         sodipodi:nodetypes="zzzzzzzzzzzzz" />
    </g>
    <g
       inkscape:groupmode="layer"
       id="layer2"
       inkscape:label="asoBI asobase"
       style="display:inline"
       transform="matrix(1.3443777,0,0,1.3443777,-50.649587,-31.267866)">
      <path
         style="fill:#dd44ac;fill-opacity:1;stroke:#000000;stroke-width:0;stroke-linecap:round;stroke-linejoin:round"
         d="m 137.73969,81.404439 c 0.68532,-1.013378 -2.2019,-2.6622 -4.45986,-1.846547 -2.25796,0.815654 -5.70201,3.844493 -5.33622,4.530296 0.36579,0.685803 1.78394,-1.071936 5.39879,-1.791775 3.61485,-0.719839 3.71197,0.121403 4.39729,-0.891974 z"
         id="path29"
         sodipodi:nodetypes="zzzzz" />
      <path
         style="fill:#dd44ac;fill-opacity:1;stroke:#000000;stroke-width:0;stroke-linecap:round;stroke-linejoin:round"
         d="m 126.25356,81.2636 c 0.66309,0.360664 1.26754,-2.049975 3.84957,-3.974764 2.58203,-1.924789 3.5679,-1.533572 3.5679,-2.644628 1e-5,-1.111057 -2.89501,-1.956085 -4.99193,0.532054 -2.09693,2.488139 -3.08863,5.726674 -2.42554,6.087338 z"
         id="path30"
         sodipodi:nodetypes="zzzzz" />
      <path
         style="fill:#dd44ac;fill-opacity:1;stroke:#000000;stroke-width:0;stroke-linecap:round;stroke-linejoin:round"
         d="m 96.268951,90.137271 c 0.599561,-0.277933 1.893318,2.140178 4.962369,1.157136 3.06905,-0.983042 5.45951,-4.59883 6.5074,-5.838463 1.04789,-1.239633 1.87066,-2.313062 3.13756,-1.670221 1.2669,0.642841 0.54146,2.784935 -0.30474,3.986103 -0.84619,1.201169 -3.20717,6.604549 -3.65977,12.617224 -0.4526,6.01268 0.92113,15.66437 9.71639,15.48665 8.79526,-0.17772 10.32788,-10.00782 9.36381,-14.75659 -0.96406,-4.748778 -1.22358,-5.616689 -3.7801,-11.480959 -2.55652,-5.864271 -3.99763,-7.401704 -2.09814,-8.374673 1.89949,-0.972969 2.49263,1.382041 4.54783,4.359723 2.0552,2.977681 5.70016,6.071937 9.708,6.822245 4.00784,0.750309 6.33895,0.09325 5.97073,3.178555 -0.36823,3.085301 -3.35524,1.743774 -6.4311,0.527525 -3.07587,-1.21625 -6.73188,-3.811209 -8.6435,-5.80688 -1.91163,-1.995671 -1.97866,-1.193131 -1.23486,0.634155 0.74381,1.827287 2.62567,4.667087 3.70929,12.356399 1.08362,7.68931 -3.30044,16.21385 -11.0232,16.33645 -7.72277,0.1226 -11.82045,-5.98072 -11.79673,-14.09696 0.0237,-8.116238 3.06506,-14.440649 3.391,-15.082212 0.32594,-0.641563 0.50175,-1.832458 -0.57952,-0.863642 -1.08127,0.968816 -3.27266,3.030107 -6.57815,3.352783 -3.305493,0.322676 -5.48413,-2.566415 -4.884569,-2.844348 z"
         id="path5"
         sodipodi:nodetypes="zzzzzzzzzzzzzzzzzzzzzzz" />
    </g>
    <g
       inkscape:groupmode="layer"
       id="layer1"
       inkscape:label="aSObi asobase"
       style="display:inline"
       transform="matrix(1.3443777,0,0,1.3443777,-50.649587,-31.267866)">
      <path
         style="display:inline;fill:#fb716a;fill-opacity:1;stroke:#000000;stroke-width:0;stroke-linecap:round;stroke-linejoin:round"
         d="m 81.453514,99.530522 c 1.818765,-1.571323 2.579782,2.642498 4.44992,2.537998 1.870138,-0.1045 2.761994,-1.91696 5.226661,-3.833925 2.464667,-1.916964 3.826098,-1.807423 5.171887,-0.555528 1.345789,1.251895 1.305711,2.288305 -0.219081,3.505313 -1.524792,1.21701 -3.500945,2.8296 -6.327384,5.61805 -2.826439,2.78845 -5.643051,5.68549 -5.215971,6.18753 0.42708,0.50204 0.462477,0.19682 4.818833,-2.00027 4.356357,-2.19709 10.675591,-4.25704 12.047761,-4.53551 1.37217,-0.27847 2.47929,-0.41145 2.58013,0.94305 0.10084,1.3545 -0.38092,1.47901 -1.40916,1.70537 -1.02824,0.22636 -12.13777,3.56298 -12.284355,9.38452 -0.146585,5.82154 6.242082,5.66277 7.641981,5.63086 1.399899,-0.0319 2.829954,-0.16707 2.715124,1.34027 -0.11483,1.50734 -1.905936,1.13779 -2.744187,1.15079 -0.83825,0.013 -8.830674,-0.41369 -8.801384,-6.88032 0.02929,-6.46663 7.765528,-9.27406 7.502777,-9.89822 -0.262751,-0.62416 -1.584664,-0.21402 -7.372259,2.57557 -5.787595,2.78959 -5.596185,6.16784 -7.739023,5.06903 -2.142838,-1.09881 3.123645,-7.02867 7.240285,-11.44307 4.11664,-4.4144 7.641512,-6.76046 4.843098,-7.302268 -2.798414,-0.541808 -5.889507,5.213118 -7.727821,5.018048 -1.838314,-0.19507 -6.216598,-2.64597 -4.397832,-4.217288 z"
         id="path3"
         sodipodi:nodetypes="zzzzzzzzzzzzzzzzzzzzzzz" />
    </g>
    <g
       inkscape:groupmode="layer"
       id="layer3"
       inkscape:label="Asobi asobase"
       style="display:inline;mix-blend-mode:normal"
       transform="matrix(1.3443777,0,0,1.3443777,-50.649587,-31.267866)">
      <path
         style="display:inline;opacity:1;fill:#fc873d;fill-opacity:1;stroke:#a33737;stroke-width:0;stroke-linecap:round;stroke-linejoin:round;stroke-dasharray:none"
         d="m 70.824096,85.168274 c 0.615205,-0.484077 -1.804551,-3.892539 -2.49159,-3.489226 -0.687039,0.403313 -2.882306,5.034244 -4.621915,8.298178 -1.73961,3.263935 -2.415096,4.648997 -4.389909,9.173115 -1.974813,4.524119 -3.549959,9.752829 -3.908989,11.416349 -0.35903,1.66352 -1.027719,3.01401 -2.858978,2.3767 -1.831259,-0.63731 -0.514965,-3.68653 0.309635,-5.56866 0.8246,-1.88213 4.729368,-10.400488 7.78298,-16.790673 3.053612,-6.390185 5.423431,-11.008326 5.847259,-11.915948 0.423828,-0.907622 1.072251,-1.080763 1.633867,-1.047012 0.561616,0.03375 1.246574,0.150951 1.460293,1.598932 0.213719,1.447982 2.511657,5.235946 4.002,6.400811 1.490343,1.164866 1.949454,2.26026 0.931058,3.757749 -1.018396,1.49749 -6.941211,0.02226 -11.668189,-1.122889 -4.726978,-1.145149 -8.450606,-3.760292 -9.661105,-6.260995 -1.210499,-2.500702 -0.412171,-5.161582 -0.06959,-5.133771 0.342581,0.02781 0.08152,2.468391 1.821345,4.371919 1.739826,1.903528 3.469578,2.52483 8.573119,3.443018 5.103541,0.918189 6.693504,0.97648 7.308709,0.492403 z"
         id="path38"
         sodipodi:nodetypes="zzzzzzzzzzzzzzzzzzz" />
      <path
         style="display:inline;opacity:1;fill:#fc873d;fill-opacity:1;stroke:#000000;stroke-width:0;stroke-linecap:round;stroke-linejoin:round;stroke-dasharray:none;stroke-opacity:1"
         d="m 55.920327,104.50301 c -12.420182,4.70724 -13.103753,3.80804 -14.330584,2.63368 -1.226831,-1.17435 4.399304,-12.324567 19.564244,-12.525881 15.16494,-0.201313 17.926231,9.751511 17.035353,14.541191 -0.890877,4.78968 -4.61458,11.07146 -12.893479,13.6564 -8.278899,2.58494 -15.896492,1.25007 -15.940872,2.11122 -0.04438,0.86115 10.431561,1.91069 16.330846,1.11707 5.899286,-0.79362 15.321419,-6.21738 15.581566,-15.80885 0.260147,-9.59147 -6.453817,-17.939463 -21.652599,-17.300722 -15.198781,0.638741 -23.229965,13.426692 -20.751995,17.176992 2.47797,3.7503 8.299408,2.55013 19.021313,-3.20414 10.721905,-5.75427 4.674839,-14.823243 3.494723,-14.663532 -1.180115,0.15971 6.961666,7.559327 -5.458516,12.266572 z"
         id="path39"
         sodipodi:nodetypes="zzzzzzzzzzzzz" />
    </g>
  </g>
</svg>
