<?xml version="1.0" encoding="UTF-8" standalone="no"?>
<!-- Created with Inkscape (http://www.inkscape.org/) -->

<svg
   version="1.1"
   id="svg1"
   width="439.97095"
   height="896.33789"
   viewBox="0 0 439.97096 896.33789"
   xml:space="preserve"
   xmlns="http://www.w3.org/2000/svg"
   xmlns:svg="http://www.w3.org/2000/svg"><defs
     id="defs1" /><g
     id="g1"
     transform="translate(-657.36229,-66.236275)"><path
       style="display:inline;fill:#000000"
       d="m 860.10857,960.35833 c -2.33789,-1.89476 -3.18924,-3.86179 -3.09572,-7.15258 0.071,-2.4965 0.55361,-35.88908 1.07258,-74.20575 l 0.94358,-69.66667 h -50.98827 -50.98826 l 0.47374,58.52637 c 0.54159,66.90784 1.27636,62.72509 -11.52182,65.58919 -8.31511,1.86084 -15.40983,0.82144 -18.62223,-2.72822 -2.1499,-2.37561 -2.20002,-4.27534 -0.69417,-26.30726 1.63731,-23.95527 0.61395,-111.22972 -0.95293,-121.66101 0,0 -0.57439,-4.26714 -0.0142,-4.66025 0.56023,-0.3931 7.02404,1.93479 7.02404,1.93479 4.24076,1.43683 13.09559,5.34657 19.69249,8.64414 l 11.99436,5.99559 h 47.11741 47.11742 V 768 741.33333 h -30 -30 v 12 c 0,13.85357 -1.33715,16.15449 -10.8815,18.72452 -7.03886,1.89537 -14.13034,0.85624 -17.55963,-2.57305 -2.4962,-2.4962 -2.53952,-3.47531 -1.0797,-24.40213 2.01838,-28.93412 1.8337,-69.9519 -0.40411,-89.74934 -0.99471,-8.8 -1.58556,-16.23297 -1.31299,-16.51771 0.80049,-0.83624 22.73433,10.04312 29.15738,14.46229 l 5.89435,4.05542 h 72.75976 c 40.01787,0 72.75977,-0.4603 72.75977,-1.0229 0,-0.56259 2.74653,-4.16259 6.10339,-8 6.85793,-7.83964 9.67715,-8.54215 17.61639,-4.38979 8.16878,4.27242 19.4454,13.95586 22.18248,19.04851 2.46573,4.58776 2.47461,4.92374 0.22088,8.36337 -1.29143,1.97097 -5.07619,4.79037 -8.41058,6.26533 l -6.06252,2.68174 0.60934,39.27048 0.60934,39.27049 -3.77403,3.17564 c -6.79351,5.71636 -22.24553,5.99418 -25.21093,0.45328 -0.78506,-1.46691 -1.23007,-6.81949 -0.98891,-11.89463 l 0.43848,-9.22752 -31,0.003 -31,0.003 V 768 794.66667 h 54.29746 54.29746 l 8.27453,-8.20098 c 8.2413,-8.16802 8.2919,-8.19381 12.5791,-6.41796 7.5052,3.10874 23.3641,14.14267 26.346,18.33038 5.4438,7.64504 3.6112,11.92636 -7.4952,17.51099 l -5.7007,2.86646 0.1285,39.88317 c 0.1216,37.77562 -0.02,40.21778 -2.6727,46.21548 -4.1803,9.45018 -8.844,14.85254 -17.8433,20.66902 -8.8019,5.68898 -24.64025,11.18608 -28.48006,9.88476 -1.31876,-0.44693 -4.19776,-3.9208 -6.39776,-7.7197 -5.18579,-8.9547 -11.27998,-10.52359 -33.33333,-16.75064 -6.13312,-1.73177 -17.06144,-1.99369 -18.39881,-5.19639 -1.33737,-3.2027 -0.11591,-6.16699 0.72901,-7.81785 0.84492,-1.65086 1.28373,-1.8995 2.46743,-2.15399 1.1837,-0.25449 3.69183,0.46565 5.4953,0.74274 1.80347,0.27709 13.95927,1.35403 25.67492,2.64953 27.5086,3.04186 35.1533,1.62376 40.7528,-7.55971 2.4245,-3.97625 2.6031,-6.93971 2.6077,-43.26861 v -39 h -56.8247 -56.82467 l 0.49134,73.5223 0.49135,73.52229 -3.57862,2.67231 c -2.55177,1.90551 -6.37763,2.85153 -13.33333,3.29694 -8.28813,0.53073 -10.23954,0.23172 -12.97944,-1.98884 z m 91.89139,-261.025 V 670.66667 H 875.33329 798.66663 V 699.33333 728 h 76.66666 76.66667 z m -285.0448,-4.00666 c -4.80823,-2.08916 -9.54104,-10.49958 -9.59257,-17.04645 -0.0436,-5.5371 4.64148,-13.67276 10.30084,-17.88749 2.75176,-2.04933 9.52822,-8.25168 15.0588,-13.783 15.45434,-15.4564 25.76191,-37.46228 29.78153,-63.58135 1.59397,-10.35746 1.59642,-10.36189 5.96585,-10.78602 7.24824,-0.70358 8.19702,1.13923 8.19702,15.9209 v 13.17007 h 66.81906 66.81906 l -0.6693,-41 c -0.36811,-22.55 -1.36184,-44.82484 -2.20829,-49.49965 -0.84645,-4.67481 -1.91524,-7.8991 -0.87968,-9.15897 0.87683,-1.06675 32.64643,2.08074 38.45028,3.71167 2.7488,0.77243 6.6488,2.84145 8.66667,4.59783 3.4971,3.04391 3.57523,3.36872 1.66886,6.93794 -1.19266,2.23298 -4.80123,5.09007 -8.93947,7.07785 l -6.93947,3.33333 -0.0605,37 -0.0605,37 h 19.12882 19.12882 L 937.74487,583 c 12.57447,-22.70371 22.79839,-46.37923 26.66293,-61.74339 0,0 2.12142,-10.81165 2.90145,-11.33596 0.78002,-0.52432 12.03185,3.52052 12.03185,3.52052 14.00906,4.5295 26.7778,11.31771 30.3903,16.15636 5.0317,6.73929 -0.8609,13.1736 -12.64569,13.80846 l -6.81422,0.36709 -9.96834,13.11346 C 967.90228,573.20003 960.29538,582.31116 950.15201,593 l -7.90807,8.33333 h 50.12207 50.12209 l 4.8314,-5.89611 c 2.6573,-3.24287 6.3172,-6.8696 8.133,-8.05941 3.1303,-2.051 3.645,-1.9764 9.9171,1.43732 14.8616,8.08871 31.9637,25.58734 31.9637,32.70489 0,1.2822 -1.4403,4.00566 -3.2006,6.05213 -3.0277,3.51998 -3.7655,3.71141 -13.6666,3.546 L 1070,630.94329 l -4.9801,6.37964 c -14.2802,18.29333 -45.0817,49.34374 -48.9482,49.34374 -0.6103,0 -2.5261,-1.16797 -4.2574,-2.59548 0,0 -1.7806,-1.43043 -2.0542,-2.93196 -0.2736,-1.50152 1.433,-4.06804 1.433,-4.06804 1.3895,-2.42249 4.8663,-8.48333 7.7261,-13.46854 5.1185,-8.92259 19.7997,-40.0756 21.6477,-45.93598 l 0.9461,-3 H 883.42314 c -86.94941,0 -158.08984,0.23372 -158.08984,0.51937 0,4.14982 -5.10837,25.07105 -8.22422,33.68212 -7.2596,20.06287 -22.81524,39.7996 -36.13322,45.84521 -6.70642,3.04433 -8.26839,3.11266 -14.0207,0.6133 z M 786.55615,590.54839 c -2.36507,-2.53181 -4.93091,-7.79653 -6.66065,-13.66666 -5.33233,-18.09602 -14.74455,-35.80239 -26.79132,-50.4001 -5.97455,-7.23968 -7.22179,-7.98747 -1.70338,-11.84063 2.28677,-1.59671 4.57097,-0.69603 8.4137,1.26438 8.93661,4.55912 25.95625,18.08145 35.61355,28.29544 14.7627,15.61368 19.333,28.18468 14.67811,40.37334 -2.72529,7.13606 -6.88233,10.09251 -14.191,10.09251 -4.44035,0 -6.2599,-0.80066 -9.35901,-4.11828 z m -29.32087,-139.77462 -3.8929,-3.8929 0.99546,-20.44043 c 1.74491,-35.82945 1.21974,-336.375231 -0.6077,-347.770619 -1.04471,-6.514546 -1.14892,-10.451073 -0.29917,-11.300826 1.68813,-1.68813 11.10445,1.577098 29.0737,10.081671 L 796.3427,84 h 86.05602 86.05602 l 9.13731,-9.413226 c 10.57201,-10.891245 9.86743,-10.848903 25.03185,-1.504282 13.0203,8.023344 22.7094,17.335533 22.7094,21.825912 0,4.706688 -4.1057,9.466336 -10.7503,12.462646 l -5.6107,2.53007 0.8422,148.71611 c 0.4632,81.79386 1.216,156.8161 1.6728,166.7161 0,0 0.7171,14.17133 -0.6763,17.76208 -1.3934,3.59076 -2.0965,3.83382 -2.0965,3.83382 -6.9383,6.92403 -26.10119,8.27921 -32.51941,2.29973 -2.61873,-2.43972 -2.8618,-4.02071 -2.8618,-18.61423 v -15.94806 h -90.70953 -90.70954 l 0.17964,15.41055 c 0.15475,13.27466 -0.16271,15.79495 -2.29046,18.18402 -3.86048,4.33461 -10.28206,6.40543 -19.86317,6.40543 -7.95952,0 -9.18868,-0.37663 -12.70495,-3.8929 z M 973.8573,396.55762 c 0.44513,-1.15998 0.80932,-34.76412 0.80932,-74.67586 V 249.31495 L 882.99996,249.65748 791.3333,250 l -0.41916,43.33333 c -0.23054,23.83334 -0.0134,57.28334 0.48252,74.33334 l 0.90169,31 h 90.37482 c 81.18002,0 90.45716,-0.21458 91.18413,-2.10905 z m 0.14266,-229.89095 v -66 l -90.97521,-0.34258 -90.97521,-0.342582 -0.35812,65.675912 c -0.19697,36.12175 -0.17015,66.13007 0.0596,66.68514 0.22975,0.55508 41.32975,0.85508 91.33333,0.66667 l 90.91561,-0.34256 z"
       id="path1" /></g></svg>
