<?xml version="1.0" encoding="UTF-8" standalone="no"?>
<!-- Created with Inkscape (http://www.inkscape.org/) -->

<svg
   version="1.1"
   id="svg1"
   width="1969.9998"
   height="580.85748"
   viewBox="0 0 1969.9998 580.85748"
   xmlns="http://www.w3.org/2000/svg"
   xmlns:svg="http://www.w3.org/2000/svg">
  <defs
     id="defs1" />
  <g
     id="g1"
     transform="translate(-80.666662,-93.34961)">
    <path
       id="path6241"
       style="display:inline;fill:#e890b3;fill-opacity:1;stroke-width:1.34821"
       d="m 845.00391,151.06836 c -21.207,0.0548 -42.42184,-0.0811 -63.61976,0.6213 -8.61789,0.30165 -17.23551,0.89425 -25.76498,2.19772 -4.99824,0.74297 -10.01758,1.43539 -14.93676,2.60904 -2.80257,0.76291 -5.44256,2.00691 -8.1806,2.96383 -0.69436,0.14198 -0.22093,1.09168 -0.35923,1.61827 0,154.46601 0,308.93203 0,463.39804 2.89344,2.34803 5.2968,5.48029 8.89975,6.79951 4.37039,1.82144 9.09051,2.53562 13.72621,3.34397 12.17987,1.89074 24.53903,1.89459 36.83252,2.13672 18.2708,0.20494 36.54331,0.0918 54.81445,0.002 15.25006,-0.12491 30.52337,-0.4612 45.69634,-2.10701 6.41955,-0.67126 12.84702,-1.32592 19.22547,-2.32281 4.11429,-0.69338 8.28177,-2.07777 11.37162,-4.99632 2.06215,-1.81258 3.97089,-3.79111 6.02934,-5.60827 -0.28917,-108.25027 -0.57143,-216.50058 -0.90044,-324.75073 -0.13459,-30.79208 -0.2005,-61.58766 -0.91518,-92.37304 -0.27582,-10.15896 -0.57606,-20.3355 -1.6961,-30.44264 -0.55079,-4.08872 -1.17986,-8.29053 -3.11373,-11.98876 -1.40087,-2.61115 -3.65334,-4.67818 -6.22925,-6.10422 -2.57037,-1.64553 -5.11384,-3.33242 -7.67069,-4.99881 -21.06966,6.1e-4 -42.13932,0.001 -63.20898,0.002 z" />
    <path
       id="path6242"
       style="display:inline;fill:#9dd479;fill-opacity:1;stroke-width:1.34821"
       d="m 1250.7188,150.87891 c -10.453,0.0245 -20.904,0.23961 -31.3534,0.4916 -24.5523,0.39431 -49.109,0.33591 -73.6634,0.26453 -24.3651,-0.11259 -48.7295,-0.42213 -73.0949,-0.40326 -9.145,0.0533 -18.3056,0.0903 -27.4231,0.86656 -3.925,0.41315 -7.9634,0.93713 -11.5238,2.74736 -2.8016,1.47629 -5.0463,3.9816 -6.0985,6.97887 -2.1927,5.34971 -2.6227,11.18356 -3.2343,16.87225 -1.3279,14.69432 -1.5557,29.45977 -1.7228,44.20521 -0.2689,34.20155 0.9404,68.39078 2.2244,102.56208 0.1898,4.33247 0.3197,8.67688 0.7629,12.9902 0.8322,4.41182 1.6998,8.85094 3.2574,13.07341 1.2599,3.1909 3.6335,6.03358 6.8558,7.35705 4.1689,1.88002 8.8196,1.96782 13.2886,2.47818 14.3242,1.34121 28.702,2.0422 43.0805,2.44962 8.3369,0.21937 16.683,-0.14299 24.9737,-1.03631 3.4877,-0.31833 6.9616,-0.83049 10.4591,-1.02082 1.3369,-0.0822 2.6796,0.26236 3.757,1.07003 0.9891,0.57923 1.956,1.19515 2.9274,1.80344 -0.4662,78.34849 -1.0158,156.69665 -1.2994,235.04608 0,7.73939 -0.079,15.48286 0.063,23.21961 0.1315,1.59163 0.2849,3.18126 0.4333,4.77142 8.2277,1.05056 16.4952,1.74396 24.7598,2.42838 10.8783,0.73443 21.7858,0.83782 32.6835,1.0599 33.1305,0.51819 66.2664,0.43867 99.3996,0.32085 10.3474,-0.072 20.7042,-0.0967 31.0362,-0.71534 2.5537,-0.21769 5.1878,-0.46029 7.5495,-1.52065 2.6372,-1.29676 4.3461,-4.04296 4.7141,-6.91703 0.8175,-4.50787 0.7133,-9.11253 0.8652,-13.67429 0.2681,-14.29283 0.117,-28.58914 0.064,-42.88327 -0.2902,-50.83817 -0.7502,-101.67516 -1.173,-152.51234 -0.1596,-17.9204 -0.3159,-35.84109 -0.5977,-53.76004 2.6197,-1.57743 5.1454,-3.37076 7.9648,-4.57422 1.3651,0.008 2.6243,0.71178 3.9885,0.81067 4.819,0.74247 9.719,0.49335 14.5712,0.3171 6.7579,-0.3587 13.4493,-0.85031 20.214,-1.02258 8.782,-0.32516 17.6308,-0.39175 26.4562,-0.52594 5.799,-0.13127 11.6189,-0.32373 17.364,-1.16862 3.6128,-0.68976 6.6399,-3.38421 8.0476,-6.74197 1.5773,-3.54037 1.904,-7.46211 2.3377,-11.26805 0.8265,-8.79482 0.949,-17.63517 1.2091,-26.45944 0.4933,-21.31061 0.657,-42.62708 0.9019,-63.94155 0.2508,-24.58692 0.4465,-49.17651 0.2223,-73.76432 -0.063,-2.02944 -0.036,-4.08975 -0.4213,-6.08616 -1.0163,-3.85937 -3.9004,-6.95579 -7.1432,-9.13547 -3.7553,-2.28353 -8.2815,-2.38607 -12.5321,-2.76997 -7.4154,-0.50451 -14.8495,-0.62405 -22.2777,-0.82821 -21.1181,-0.48257 -42.2408,-0.72787 -63.3622,-1.02519 -26.5024,-0.3308 -53.0071,-0.4994 -79.5115,-0.42936 z" />
    <path
       id="path6240"
       style="display:inline;fill:#efb54c;fill-opacity:1;stroke-width:0.953325"
       d="m 346.21875,105.62695 c -8.30911,0.12192 -16.5119,1.61361 -24.69119,2.94237 -27.47836,4.86042 -54.40459,13.63355 -78.83843,27.22059 -8.35318,4.65205 -16.32615,9.97957 -23.83551,15.89686 -11.32949,8.68276 -22.32738,17.80892 -32.82493,27.48328 -11.48759,10.73407 -22.31635,22.20034 -32.07843,34.53179 -3.34564,4.24995 -6.36133,8.74262 -9.33535,13.25611 -2.12991,3.15685 -4.49884,6.14559 -6.65559,9.28152 -1.2237,1.89516 -2.15067,4.01658 -2.44174,6.26444 -0.75827,1.79235 -2.08534,3.27299 -2.87968,5.05153 -4.73628,8.75408 -9.17979,17.67125 -13.2307,26.76286 -0.8641,2.29516 -1.34433,4.72148 -2.37946,6.95509 -2.39589,5.96333 -4.96486,11.86379 -6.96671,17.97691 -2.05289,5.9447 -3.3902,12.11673 -5.5747,18.01728 -0.79671,2.09629 -1.79254,4.12377 -2.25028,6.33362 -1.43058,5.85466 -1.725,11.90044 -2.36157,17.87346 -1.064192,11.14971 -2.344479,22.27868 -3.372527,33.43159 -0.826947,10.48287 -0.63049,21.00915 -0.321765,31.50982 0.19455,6.44061 0.332179,12.90261 1.156658,19.30008 1.167267,8.19115 3.470494,16.15689 5.288964,24.21456 1.3449,5.60255 2.5868,11.24528 4.52849,16.68062 3.3569,9.67758 7.45797,19.08005 11.76883,28.36588 3.32059,7.03593 6.8146,14.01306 10.95637,20.60704 2.39214,3.56413 4.97644,6.99702 7.2719,10.62683 3.95114,6.04213 8.01866,12.01648 12.51191,17.67227 8.91949,11.43836 18.5799,22.27974 28.51862,32.83747 5.76931,5.99199 12.06734,11.4994 18.92187,16.21295 5.92857,4.21498 11.78763,8.51951 17.50725,12.95657 3.99573,3.06548 8.13029,5.95103 12.43429,8.56777 5.2873,3.45918 10.46566,7.11333 16.08019,10.03782 9.79638,5.32094 20.01253,9.85435 30.45766,13.74072 8.30871,2.99153 16.85928,5.23463 25.36575,7.57983 16.80233,4.49085 33.80062,8.34538 51.0202,10.8497 5.64944,0.8232 11.34991,1.2574 17.05793,1.32919 10.84755,0.26535 21.71012,0.15746 32.54336,-0.46955 7.86505,-0.52659 15.69395,-1.81135 23.24137,-4.11037 11.03392,-3.17725 21.84613,-7.10486 32.43436,-11.53922 36.95985,-15.56633 70.76618,-38.41076 99.36609,-66.49254 14.42573,-14.04922 28.30189,-28.82494 39.73321,-45.45664 7.59803,-11.15529 14.0071,-23.16483 18.61269,-35.864 1.15131,-3.47846 2.21055,-7.25952 1.24302,-10.91266 -0.61448,-2.51222 -2.15884,-4.73071 -4.22265,-6.27344 -4.12986,-3.39415 -8.87441,-5.92345 -13.55039,-8.46909 -10.54861,-5.55751 -21.51829,-10.2661 -32.51903,-14.84302 -15.92564,-6.55958 -32.14683,-12.36156 -48.33683,-18.22695 -6.59463,-2.45592 -13.18843,-4.92191 -19.90799,-7.02125 -10.16434,-3.27184 -20.39632,-6.33268 -30.67332,-9.22954 -3.09568,-0.82387 -6.20272,-1.70806 -9.3933,-2.05976 -2.90473,-0.15 -5.74463,1.1491 -7.74682,3.2175 -3.57848,3.18862 -6.17835,7.25569 -8.99798,11.08318 -4.03858,4.86462 -8.93901,8.91924 -13.8763,12.83214 -3.93753,3.05568 -8.02046,5.96118 -12.45703,8.2539 -0.35479,0.16665 -1.0644,0.54264 -1.56541,0.76917 -8.15904,3.72475 -16.63609,6.69337 -25.14748,9.49646 -1.26232,0.11499 -2.5623,-0.12835 -3.83929,-0.15291 -7.50842,-0.48359 -15.02895,-0.83008 -22.52157,-1.52421 -2.92214,-0.32154 -5.80036,-1.06016 -8.4648,-2.31243 -7.9989,-3.241 -15.68876,-7.38642 -22.38818,-12.86472 -7.35987,-5.87435 -14.03603,-12.53976 -20.66019,-19.21537 -3.15313,-3.26015 -6.01771,-6.87652 -7.87217,-11.04497 -2.92527,-5.74409 -5.44002,-11.8503 -5.99913,-18.33374 -0.81792,-7.45257 -0.5647,-14.96458 -0.63456,-22.44774 0.0208,-3.71889 -0.0447,-7.45395 0.0354,-11.16265 2.30235,-6.23806 4.54778,-12.49727 6.88709,-18.71903 1.56485,-2.70312 3.11635,-5.18596 4.83039,-7.81532 3.77149,-5.86711 7.8044,-11.77436 13.43408,-16.02588 6.30903,-5.21424 12.26947,-10.84132 18.67072,-15.9443 0.93542,-0.68444 1.83484,-1.5554 3.03691,-1.68672 5.67906,-1.4146 10.94056,-4.30657 16.8017,-5.01982 5.99892,-0.86191 11.98115,-1.17606 18.0328,-1.63345 3.87282,-0.26931 7.93503,-0.44365 11.85314,0.13959 4.85027,0.69771 9.5859,1.90564 14.37074,2.97578 3.42925,0.86309 6.91213,1.53935 10.2863,2.60429 5.0085,1.68531 9.60454,4.39671 13.86328,7.49219 1.08998,0.77387 2.34084,1.72979 3.47289,2.59978 4.72007,3.66785 9.22027,7.5928 13.60074,11.59673 4.80372,4.23417 8.93067,9.1994 12.36951,14.59413 2.03223,3.00125 4.06213,6.00409 6.09592,9.00428 4.58084,-0.0925 9.23287,0.29583 13.73062,-0.79692 11.21704,-2.15435 22.24331,-5.16781 33.27368,-8.10761 18.25079,-4.93088 36.36077,-10.37955 54.31417,-16.30023 11.7191,-3.71897 23.77099,-6.77826 35.55865,-10.46777 4.76873,-1.51469 9.55021,-3.05185 14.12285,-5.09598 3.59329,-1.64544 7.25605,-3.74939 9.29495,-7.27446 1.37476,-2.33611 2.41498,-4.88506 3.0635,-7.51477 0.77197,-4.10348 -0.56094,-8.17438 -1.36084,-12.16407 -2.7448,-12.37102 -5.56744,-24.88664 -11.16261,-36.33924 -4.52432,-9.42256 -10.14114,-18.25787 -15.54389,-27.1888 -4.89759,-7.97384 -10.23599,-15.78899 -17.04636,-22.26966 -6.41247,-6.33349 -13.18594,-12.28481 -19.96914,-18.21415 -10.14504,-8.72572 -20.93871,-16.74174 -32.54359,-23.42776 -12.33659,-7.20682 -25.18366,-13.48801 -38.05404,-19.67346 -12.53175,-5.91853 -25.46711,-11.07934 -38.89373,-14.58408 -9.13171,-2.45154 -18.34207,-4.61534 -27.60789,-6.49661 -11.24463,-2.19925 -22.65122,-3.44903 -34.0774,-4.20834 -12.02818,-0.85447 -24.07271,-1.48551 -36.12149,-1.96564 -1.94184,-0.0576 -3.88441,-0.077 -5.82705,-0.0667 z" />
    <path
       id="path6243"
       style="display:inline;fill:#e4777c;fill-opacity:1;stroke-width:1.90665"
       d="m 1863.2051,149.05469 c -8.9156,0.11299 -17.8521,0.0178 -26.7404,0.81135 -4.9287,0.62376 -9.9715,1.42561 -14.4291,3.73721 -3.8281,2.03101 -6.8733,5.31519 -8.9778,9.07312 -3.1664,5.3851 -5.1708,11.33733 -7.3287,17.1708 -2.8007,7.81275 -5.6399,15.53098 -8.8343,23.19443 -1.3696,3.34368 -2.8292,6.61743 -4.262,9.8666 -7.1833,15.82277 -13.6913,31.93762 -20.2558,48.02344 -2.2032,0 -4.4063,0 -6.6094,0 -12.6749,-24.7466 -25.2578,-49.54029 -38.1088,-74.19527 -3.987,-7.57692 -7.9666,-15.17802 -12.5998,-22.38586 -2.1897,-3.33324 -4.7539,-6.68255 -8.4055,-8.49141 -3.2471,-1.54527 -6.9082,-1.78772 -10.3704,-2.29892 -12.6354,-1.50562 -25.3716,-1.83754 -38.0803,-2.19715 -37.0143,-0.85059 -74.0375,-0.0468 -111.0508,0.43765 -12.2004,0.17601 -24.4008,0.3504 -36.6012,0.52744 -0.4199,3.34715 -0.9842,6.61521 -1.3516,9.99273 -0.1551,3.33293 1.3204,6.44319 2.5637,9.44992 4.0566,9.32177 8.9745,18.23471 13.8414,27.15 7.4832,13.54259 15.1354,26.99438 23.0433,40.29504 9.8805,16.57432 20.3062,32.81367 30.7162,49.05831 4.5762,7.20741 8.6727,14.70585 12.7226,22.21755 4.3192,7.97831 8.2379,16.16752 12.6692,24.08575 3.6671,6.59973 7.484,13.1323 11.7858,19.34094 3.0475,4.19943 6.0214,8.47708 8.8339,12.85176 8.5726,13.15916 16.2562,26.86467 24.2936,40.34932 5.7853,9.79129 11.6089,19.55976 17.417,29.33759 0.011,46.30218 -0.05,92.60456 0.085,138.90658 0.086,12.29529 0.068,24.60193 0.81,36.87927 0.2681,3.35014 0.5856,6.78757 1.914,9.90958 1.4263,3.09121 4.3298,5.30276 7.5423,6.29302 4.5321,1.55446 9.3685,1.78802 14.1067,2.14942 11.6654,0.70444 23.3581,0.69558 35.0401,0.83882 32.66,0.28419 65.3224,0.12083 97.9814,-0.21249 14.437,-0.17963 28.8777,-0.34903 43.305,-0.92255 2.183,-0.13179 4.404,-0.18976 6.5328,-0.71757 2.3799,-0.73927 4.1334,-3.01699 4.2658,-5.50314 0.4963,-3.51121 0.4363,-7.07073 0.6067,-10.6066 0.5369,-16.58136 0.6338,-33.17394 0.7802,-49.76264 0.2383,-34.47335 0.1219,-68.94776 0.1708,-103.42162 0,-9.31055 0.01,-18.62109 0.01,-27.93164 5.1693,-10.03378 10.2849,-20.19238 15.8848,-29.93945 3.6582,-6.47435 7.6609,-12.74373 11.5628,-19.07176 7.1727,-11.7515 13.832,-23.8014 20.5906,-35.79237 9.3122,-16.31243 19.1545,-32.46034 29.219,-48.40955 19.9243,-31.8591 39.5196,-63.92902 58.2766,-96.49057 5.2874,-9.26536 10.5621,-18.54888 15.2943,-28.11318 1.0177,-2.19889 2.1061,-4.42256 2.5574,-6.8175 0.7065,-5.1076 -3.1794,-10.20676 -8.1672,-11.22983 -3.9787,-1.01478 -7.9504,-2.06896 -11.9545,-2.97468 -4.9347,-0.92711 -9.9706,-1.08271 -14.9689,-1.42869 -16.8473,-0.94814 -33.7161,-1.45972 -50.5829,-1.91183 -25.7542,-0.65907 -51.5157,-1.10123 -77.2788,-1.12551 -2.4881,0.001 -4.9763,0.003 -7.4644,0.004 z" />
    <path
       style="display:inline;fill:#000000;fill-opacity:1"
       d="m 353.33333,672.48412 c -9.16666,-0.94764 -22.06666,-2.67011 -28.66666,-3.82769 l -12,-2.1047 -25.33334,-8.11121 c -41.08877,-13.15579 -56.72166,-20.28433 -78.70934,-35.8912 -17.65735,-12.5332 -26.28155,-19.81284 -43.0522,-36.34015 l -15.09488,-14.87585 -7.57179,-10.55433 c -4.16448,-5.80487 -11.47179,-15.22415 -16.23845,-20.93173 -17.15344,-20.53941 -24.51527,-35.57243 -31.919659,-65.18061 -2.292391,-9.16666 -5.006963,-19.96666 -6.032381,-24 -1.025419,-4.03333 -3.2557,-14.23333 -4.95618,-22.66666 l -3.091783,-15.33333 v -19.33334 -19.33333 l 2.338606,-24 2.338606,-24 1.978902,-7.33333 c 1.088396,-4.03333 1.986023,-8.4387 1.994727,-9.7897 0.0087,-1.35099 1.215825,-3.98191 2.682492,-5.84647 l 2.666667,-3.39012 v -3.51211 -3.5121 l 4.171487,-9.97475 c 2.294316,-5.48611 5.146866,-11.47475 6.338986,-13.30808 1.19213,-1.83334 3.17534,-5.43334 4.40715,-8 2.0084,-4.18485 5.20719,-10.69387 13.43265,-27.33334 9.0802,-18.36852 20.4214,-33.25436 41.37124,-54.30158 17.44936,-17.53047 47.60794,-41.88045 62.69195,-50.61736 30.85194,-17.86997 46.17607,-24.44672 70.73972,-30.359832 l 10.84682,-2.611108 22.66666,-1.287289 C 343.8,94.114811 360.07106,93.4937 367.49124,93.442573 l 13.49124,-0.09296 13.17542,1.94654 c 15.9654,2.358731 30.44753,5.087447 41.17543,7.758257 4.4,1.09542 12.8,2.99851 18.66667,4.2291 19.31017,4.05048 44.73152,14.01887 60.5492,23.74296 4.83127,2.97008 14.78413,8.3413 22.11747,11.93606 18.5462,9.09123 22.06171,11.36434 34.86703,22.54487 l 11.25387,9.82593 6.23335,8.66667 c 3.42834,4.76666 8.39098,11.06666 11.02807,13.99999 2.6371,2.93334 9.2774,11.93334 14.75623,20 l 9.9615,14.66667 4.23242,11.33333 c 9.49098,25.41442 10.77382,30.81899 13.16359,55.45818 l 0.78804,8.12485 -2.15585,4.16896 c -2.62984,5.08555 -4.2587,5.97575 -16.12825,8.81434 -16.94252,4.0518 -47.82024,12.91162 -58.80033,16.87173 -5.94018,2.1424 -11.52896,3.89527 -12.41949,3.89527 -0.89054,0 -4.43039,1.13656 -7.86634,2.52569 -3.43595,1.38912 -11.94718,3.87908 -18.91384,5.53323 -6.96667,1.65416 -16.56667,4.48394 -21.33334,6.2884 -19.4734,7.37185 -37.81079,13.65224 -39.84116,13.64525 -1.18736,-0.004 -4.41118,-0.63294 -7.16405,-1.39745 l -5.00521,-1.39 -5.32812,-7.05705 c -2.93047,-3.88138 -5.32812,-7.74036 -5.32812,-8.57551 0,-0.83515 -2.25,-4.48202 -5,-8.10414 l -5,-6.58569 -10.07331,-7.93061 c -5.54031,-4.36184 -13.04031,-9.30921 -16.66666,-10.99415 l -6.59337,-3.06354 -16.31975,-0.39286 -16.31974,-0.39286 -5.48889,1.93659 c -3.01889,1.06513 -5.9994,1.62109 -6.62335,1.23547 l -1.13445,-0.70113 -7.72357,4.28576 c -8.60396,4.77428 -17.21796,11.0852 -20.6561,15.13338 -1.24622,1.46734 -5.12484,8.36789 -8.61915,15.33456 l -6.35329,12.66666 -0.0335,18.66667 -0.0335,18.66667 4.61128,8.50176 4.61129,8.50177 9.69373,8.71028 9.69373,8.71028 7.92123,4.39033 c 8.41612,4.66461 18.09256,7.81899 28.42263,9.26537 l 6.31532,0.88425 11.01802,-3.64234 c 21.61596,-7.14582 30.97813,-13.88342 41.69809,-30.00855 3.27756,-4.93014 6.9372,-9.77557 8.13254,-10.76761 l 2.17334,-1.80372 8.84036,-0.014 c 4.86219,-0.008 12.03434,0.38842 15.9381,0.88028 l 7.09774,0.89429 1.92909,1.601 c 2.52315,2.09402 19.0995,7.88333 22.5935,7.89079 1.49494,0.003 5.07181,1.20582 7.94859,2.67248 2.87678,1.46667 6.21501,2.66667 7.4183,2.66667 2.34941,0 26.99841,10.03142 37.84349,15.40119 3.62732,1.79601 7.46777,3.26548 8.53434,3.26548 1.06657,0 7.48992,2.69999 14.27412,5.99999 6.78419,3.3 13.51833,6 14.96475,6 2.70671,0 22.87555,7.7583 29.33433,11.28397 1.99687,1.09003 6.28255,4.3072 9.52374,7.14927 l 5.89307,5.16738 -0.22544,5.75336 -0.22544,5.75336 -9.38374,18.99077 c -5.16106,10.44493 -10.19694,19.66567 -11.19085,20.49054 -0.99391,0.82487 -2.57999,3.42987 -3.52462,5.78889 -0.94463,2.35902 -4.15919,7.24152 -7.14345,10.84999 -2.98427,3.60848 -6.02594,7.96646 -6.75927,9.6844 -1.80863,4.23699 -39.57228,43.35841 -48.49195,50.23546 -3.93723,3.0356 -9.67727,7.31928 -12.75563,9.51928 -3.07837,2.2 -7.60548,5.89387 -10.06025,8.20861 -6.38534,6.0211 -51.41645,32.45805 -55.28708,32.45805 -0.94167,0 -3.14305,1.06676 -4.89195,2.37057 -2.83791,2.11569 -13.94655,5.93956 -33.84647,11.6508 -20.23368,5.80703 -25.22148,6.53407 -53.33334,7.77408 L 370,674.20712 Z m 48.89452,-20.42384 c 14.49432,-1.66675 30.74523,-6.59338 54.43882,-16.5037 10.23165,-4.27959 33.63254,-16.40819 37.7008,-19.5402 1.99789,-1.5381 9.29286,-6.43241 16.21104,-10.87623 23.22334,-14.91729 59.84377,-50.5141 77.44507,-75.28032 l 7.75281,-10.90874 6.199,-12.82959 c 3.40944,-7.05628 6.54281,-14.94831 6.96303,-17.53784 l 0.76404,-4.70824 -2.53831,-2.36479 c -3.71971,-3.46544 -14.43442,-9.53394 -25.83082,-14.62983 -19.3824,-8.66682 -46.1003,-19.22639 -54.77639,-21.64898 -4.82702,-1.34782 -11.72702,-3.9021 -15.33334,-5.67617 -3.60631,-1.77407 -13.15693,-5.14879 -21.2236,-7.49938 -8.06667,-2.35059 -18.39212,-5.42486 -22.94546,-6.83171 -4.55334,-1.40685 -9.58249,-2.5579 -11.1759,-2.5579 h -2.8971 l -4.40076,4.66616 c -2.42042,2.56639 -4.73938,5.73305 -5.15324,7.03702 -0.93251,2.93806 -17.9871,17.32071 -26.09421,22.00602 -3.3,1.90716 -11.7,5.37797 -18.66666,7.71292 L 386,468.33414 l -14.99467,-0.8878 -14.99467,-0.88779 -9.60864,-3.91026 c -13.0249,-5.30053 -22.14584,-11.82286 -35.75294,-25.56673 l -11.46981,-11.5851 -3.74556,-6.88182 c -2.06005,-3.785 -4.56827,-9.97171 -5.57381,-13.74824 l -1.82825,-6.86641 -0.0158,-17.4677 -0.0158,-17.4677 1.46509,-4.5323 c 0.80579,-2.49277 2.30579,-6.42298 3.33333,-8.7338 1.02754,-2.31083 1.86825,-4.7777 1.86825,-5.48193 0,-0.70423 3.00464,-5.83757 6.67697,-11.40742 l 6.67698,-10.127 6.21569,-5.05774 c 3.41862,-2.78176 9.68971,-8.19022 13.93574,-12.0188 l 7.72007,-6.96106 3.7206,-0.78706 c 2.04634,-0.43289 5.82061,-1.71999 8.38728,-2.86024 l 4.66667,-2.07317 15.94385,-1.27118 15.94385,-1.27117 8.05615,1.97043 c 4.43088,1.08374 10.75615,2.39295 14.05615,2.90935 3.3,0.5164 9,2.39532 12.66666,4.17538 l 6.66667,3.23647 13.29272,11.35871 13.29271,11.3587 5.80792,8.58795 5.80792,8.58795 h 4.66478 c 7.46668,0 79.35459,-19.83662 87.30204,-24.08996 1.24717,-0.66747 10.29226,-3.27027 20.1002,-5.78401 20.23201,-5.18539 31.91917,-9.06853 36.67767,-12.18642 l 3.2674,-2.14088 1.6707,-3.97343 1.6707,-3.97342 -1.03233,-5.59261 c -1.74846,-9.4722 -7.392,-30.70798 -9.28178,-34.92594 -3.25212,-7.25864 -13.61123,-25.15786 -20.85301,-36.03132 l -7.12492,-10.69798 -14.29803,-13.30424 c -15.30134,-14.23783 -26.42722,-22.89423 -40.29802,-31.35357 -10.97981,-6.69621 -44.88184,-23.94622 -47.06235,-23.94622 -0.90409,0 -3.73493,-1.11003 -6.29073,-2.46674 -14.71421,-7.81081 -63.55106,-18.88751 -83.98026,-19.04758 -1.1,-0.009 -11.6,-0.54936 -23.33333,-1.20164 l -21.33333,-1.18597 -13.33334,1.78778 C 324,113.53578 315.6,114.97265 312.66667,115.74554 c -2.93334,0.77289 -10.73334,2.7333 -17.33334,4.35647 -6.6,1.62316 -15,4.31307 -18.66666,5.97756 -3.66667,1.66449 -10.56667,4.50247 -15.33334,6.30662 -8.45781,3.20123 -27.76223,14.29864 -34.90326,20.06462 -1.96345,1.58539 -8.86345,7.03617 -15.33333,12.11285 -14.505,11.38157 -38.88069,33.98849 -39.81216,36.92326 -0.37842,1.19231 -3.71098,5.09551 -7.40568,8.67379 -3.69471,3.57827 -7.93872,8.84923 -9.43113,11.71325 -1.49241,2.86401 -5.05369,8.16789 -7.91396,11.78639 l -5.20048,6.5791 v 2.46825 c 0,1.35754 -0.56126,2.81513 -1.24726,3.2391 -0.68599,0.42397 -2.74967,3.90938 -4.58594,7.74535 -1.83628,3.83598 -4.18906,8.47451 -5.22841,10.30784 C 125.79691,271.89322 124,275.88302 124,277.9255 c 0,1.1994 -1.26464,4.65963 -2.81031,7.6894 -3.62806,7.11158 -7.7941,18.94346 -9.05552,25.71843 -0.54616,2.93333 -1.98986,7.23435 -3.20821,9.55782 l -2.2152,4.22449 -0.67008,9.77551 c -0.36854,5.37653 -1.62293,18.17551 -2.78753,28.44217 l -2.11744,18.66667 0.61015,22 0.61015,22 3.48866,13.14597 c 1.91877,7.23028 3.48866,14.56317 3.48866,16.29531 0,1.73214 1.55613,6.61646 3.45806,10.85403 1.90194,4.23758 4.33773,10.59693 5.41287,14.1319 1.07514,3.53496 3.0577,8.33496 4.40569,10.66666 1.34799,2.3317 4.69441,8.58946 7.43649,13.90613 2.74208,5.31666 5.36695,9.66666 5.83304,9.66666 0.46609,0 2.02303,2.25 3.45986,5 8.56757,16.39776 44.10663,57.63285 57.32733,66.51548 10.54482,7.08478 12.83788,8.75433 21.26654,15.48388 4.36326,3.48369 8.44844,6.33397 9.07818,6.33397 0.62974,0 3.3598,1.76207 6.06679,3.91571 7.03323,5.59551 19.52682,12.36015 29.58849,16.02065 4.76666,1.73414 10.16666,3.95295 12,4.9307 C 276.5,633.84478 285.2,636.47141 294,638.704 c 8.8,2.23259 18.7,4.86193 22,5.84297 24.1693,7.18522 61.09868,10.403 86.22785,7.51331 z m 398.43882,-1.66926 c -11.73334,-0.56841 -31.53334,-1.31334 -44,-1.6554 -12.46667,-0.34207 -25.04859,-1.10476 -27.95983,-1.69487 l -5.29315,-1.07294 -3.67255,-5.4683 -3.67255,-5.46829 -0.19378,-42.51562 -0.19377,-42.51561 1.15948,-12.66667 1.15948,-12.66667 -0.68988,-18 c -0.37944,-9.9 -0.42345,-68.09999 -0.0978,-129.33333 0.65737,-123.61115 0.69986,-181.96225 0.15305,-210.16205 l -0.3651,-18.82873 3.02225,-4.08781 3.02225,-4.08782 3.47763,-1.3839 3.4776,-1.38391 35.33333,-1.34757 35.33334,-1.34756 L 818,135.43076 c 18.32188,0.76825 19.05945,0.76761 32.66667,-0.0285 4.76666,-0.27886 19.16666,-0.91682 32,-1.41768 L 906,133.07397 l 6.66667,1.53633 c 7.26278,1.67371 19.86729,7.39531 21.70359,9.85198 3.93438,5.26357 6.68144,27.56596 7.57979,61.53771 0.36845,13.93334 1.04048,34.93334 1.4934,46.66667 0.45292,11.73333 0.82184,35.51363 0.81982,52.84511 l -0.004,31.51179 -1.46651,2.74019 -1.46651,2.7402 1.50261,7.00643 1.50261,7.00643 -1.44633,10.74159 -1.44632,10.74159 0.58935,63.33333 c 0.32414,34.83333 0.94487,72.33333 1.3794,83.33333 0.69309,17.54531 1.14515,78.52519 0.73706,99.42429 L 944,631.51522 l -4.20274,5.46826 -4.20275,5.46825 -7.46392,2.91986 -7.46392,2.91985 -26,1.28143 c -35.69806,1.7594 -68.64972,2.04621 -94,0.81815 z m 74.59183,-19.84099 c 11.69218,-0.61192 25.79218,-1.78856 31.33333,-2.61476 l 10.07484,-1.50217 3.51407,-3.31981 3.51406,-3.31982 -0.53749,-53.56341 c -0.29562,-29.45987 -0.45512,-76.66341 -0.35443,-104.89674 0.18998,-53.27377 0.11902,-175.56919 -0.13617,-234.66666 l -0.14681,-34 -1.2267,-10 c -0.67468,-5.5 -1.87902,-12.28317 -2.6763,-15.0737 l -1.44961,-5.07371 -2.25031,-0.79563 c -1.23767,-0.43759 -3.36298,-1.75442 -4.7229,-2.92629 l -2.47258,-2.13067 h -65.52742 -65.52741 l -16,1.7871 c -8.8,0.9829 -17.55642,2.36693 -19.45872,3.07562 l -3.45871,1.28853 -0.45102,42.92437 c -0.24807,23.60841 -0.29988,62.12438 -0.11514,85.59105 0.18473,23.46666 0.2137,53.16666 0.0644,65.99999 -0.14933,12.83334 -0.33173,28.43334 -0.40533,34.66667 -0.0736,6.23333 -0.039,23.93333 0.0769,39.33333 0.11591,15.4 0.0774,55.9 -0.0855,90 -0.16294,34.1 0.0668,70.82449 0.51049,81.60997 l 0.80675,19.60998 2.31332,2.55619 2.31333,2.5562 5.61129,0.77692 c 3.08622,0.42731 9.8113,1.39066 14.94463,2.14078 l 9.33334,1.36386 14.66666,-0.68726 14.66667,-0.68725 24,1.1691 c 13.2,0.643 24.9,0.88823 26,0.54495 1.1,-0.34328 11.56633,-1.12481 23.2585,-1.73673 z m 386.8319,15.09586 c -0.3156,-0.31553 -29.565,-0.73959 -64.9987,-0.94236 l -64.425,-0.36866 -4.6667,-1.1828 -4.6667,-1.18279 -2.9471,-5.98465 -2.9472,-5.98465 -0.1371,-9.33333 c -0.075,-5.13333 -0.1151,-29.13333 -0.088,-53.33333 l 0.049,-44 -1.0211,-8.06154 -1.021,-8.06155 0.9948,-11.93845 c 0.9355,-11.22684 1.4145,-35.62943 1.6736,-85.27179 l 0.1114,-21.33333 -1.4195,-4.30844 c -0.7808,-2.36964 -1.7383,-4.62719 -2.1279,-5.01678 -0.3896,-0.38958 -16.8508,-1.0121 -36.5805,-1.38338 L 1042,377.28301 l -7.3333,-1.43028 c -11.9217,-2.32517 -16.2914,-5.93379 -22.4257,-18.51941 l -3.5743,-7.33333 0.1871,-94.33673 0.1872,-94.33673 1.8128,-6.15946 1.8129,-6.15946 3.1798,-2.50381 c 1.7489,-1.37709 4.1654,-2.5038 5.37,-2.5038 1.2046,0 3.5376,-0.94381 5.1845,-2.09735 l 2.9944,-2.09735 9.6356,0.18644 c 15.9697,0.30899 172.8665,-1.95327 219.6357,-3.16689 6.9666,-0.18077 16.2666,0.17076 20.6666,0.78118 l 8,1.10987 60,0.6922 60,0.69221 14.89,1.2917 14.89,1.29169 5.563,2.96938 c 6.4198,3.42671 7.8505,5.5516 7.961,11.82403 0.1769,10.03922 -1.0739,38.2421 -1.9524,44.02097 l -0.9371,6.16475 1.4421,14.50192 1.4422,14.50191 -0.9827,21.79654 -0.9827,21.79653 0.9376,12.20347 c 0.5157,6.7119 1.3504,18.86187 1.8548,26.99992 l 0.9171,14.79647 -2.106,7.20353 c -1.1583,3.96195 -2.4215,9.12164 -2.8072,11.46599 -0.3857,2.34435 -1.5726,6.34768 -2.6375,8.89629 l -1.9361,4.63384 -3.1801,2.08371 -3.1802,2.0837 -4.5979,0.0671 c -2.5288,0.0369 -12.6979,0.0504 -22.5979,0.03 -9.9,-0.0204 -27.3,0.30599 -38.6666,0.72536 l -20.6667,0.7625 -1.7426,1.6844 -1.7426,1.68441 1.2437,26.5431 c 1.1934,25.46881 2.2893,118.0877 1.8917,159.87644 -0.1046,10.99999 0.4042,30.0354 1.1308,42.30089 l 1.321,22.30089 -2.0243,3.91471 c -2.3821,4.60643 -7.573,8.9339 -14.0777,11.73616 l -4.6667,2.01042 -27.3333,0.56655 c -15.0333,0.3116 -30.4839,0.75182 -34.3346,0.97826 -3.8508,0.22645 -7.2595,0.15356 -7.575,-0.16198 z m 65.1402,-21.71209 2.5639,-2.46901 -0.1852,-4.39907 c -0.1018,-2.41949 -0.3904,-55.71995 -0.6412,-118.44546 l -0.4561,-114.0464 -1.0296,-1.66599 -1.0296,-1.666 0.084,-11.45679 0.084,-11.45679 1.447,-1.74353 c 0.7958,-0.95894 3.8536,-2.99791 6.7949,-4.53104 l 5.348,-2.78751 4.2279,1.121 4.2279,1.12101 14,-1.09907 c 7.7,-0.60448 24.5718,-1.16013 37.493,-1.23477 12.9212,-0.0746 24.0311,-0.51942 24.6888,-0.98839 0.6576,-0.46896 2.0151,-3.85267 3.0167,-7.51933 l 1.8209,-6.66667 0.4239,-72 c 0.2332,-39.6 0.7866,-76.01409 1.2298,-80.92022 l 0.8059,-8.92022 -1.3888,-5.15789 -1.3889,-5.1579 -4.5722,-2.18031 -4.5721,-2.18032 -22.4452,-0.0584 c -12.3448,-0.0322 -42.5452,-0.415 -67.1118,-0.85077 -69.1141,-1.22599 -77.3349,-1.22894 -108,-0.0387 -15.7667,0.61195 -30.1667,1.14899 -32,1.19341 -1.8334,0.0444 -32.1334,-0.41555 -67.3334,-1.02217 -75.1181,-1.29456 -68.7263,-1.39156 -83.0587,1.26044 l -5.7254,1.0594 -1.7836,3.48686 c -2.4708,4.83038 -3.1669,10.71817 -4.3529,36.8202 -1.2089,26.60876 -1.2091,25.14964 0.01,74 1.5955,63.91526 1.8517,67.70105 5.1661,76.34444 l 1.4103,3.67779 6.8336,1.86569 6.8337,1.86569 18.2831,0.13709 18.2831,0.1371 3.0502,1.09076 3.0502,1.09077 13.9739,-0.99934 c 7.6856,-0.54964 16.4184,-1.36593 19.4062,-1.81398 l 5.4324,-0.81463 4.5779,3.08506 4.5779,3.08507 0.1942,20.46955 c 0.7763,81.81384 0.4727,116.11669 -1.6177,182.77893 -0.9187,29.29617 -0.8286,55.79543 0.1954,57.45222 0.2811,0.45487 10.7284,1.5825 23.2162,2.50585 l 22.7051,1.67882 6.3359,-0.95157 6.336,-0.95158 38.6666,0.1982 c 21.2667,0.10902 47.3667,0.64733 58,1.19626 10.6334,0.54893 22.0334,0.76028 25.3334,0.46967 l 6,-0.52839 z m 382.7651,19.30874 -42.6709,-1.51928 -5.4183,-2.76419 c -2.98,-1.5203 -6.2781,-3.80041 -7.329,-5.0669 l -1.9108,-2.30272 -0.1538,-75.4614 -0.1539,-75.4614 -1.2937,-18.66666 -1.2938,-18.66667 -2.8857,-5.31359 c -1.5872,-2.92247 -2.8858,-6.33706 -2.8858,-7.58797 0,-1.25092 -0.5527,-2.61601 -1.2283,-3.03354 -0.6756,-0.41753 -2.2756,-3.60294 -3.5556,-7.07869 -1.2801,-3.47575 -3.3554,-7.51954 -4.6119,-8.98621 -1.2565,-1.46666 -5.1178,-7.76666 -8.5807,-14 -7.7968,-14.03451 -18.8927,-31.56512 -22.7861,-36 -1.6095,-1.83333 -7.0104,-11.13333 -12.002,-20.66666 -4.9916,-9.53334 -10.729,-19.43334 -12.7497,-22 -2.0207,-2.56667 -6.4655,-10.06667 -9.8772,-16.66667 -3.4118,-6.6 -7.9444,-14.3682 -10.0725,-17.26267 -2.1281,-2.89447 -3.8693,-6.2361 -3.8693,-7.42586 0,-1.91801 -5.1862,-9.83476 -13.1704,-20.10457 -1.4794,-1.90287 -5.0189,-7.96071 -7.8656,-13.46186 -2.8467,-5.50116 -7.0103,-12.34427 -9.2524,-15.20691 -2.2422,-2.86263 -7.5342,-11.80479 -11.7601,-19.87146 -4.2259,-8.06667 -8.1709,-15.30052 -8.7666,-16.07523 -0.5957,-0.77471 -3.806,-8.18382 -7.134,-16.46467 l -6.0509,-15.05611 0.054,-4.20199 0.054,-4.202 3.681,-4.29902 3.6809,-4.29903 5.9316,-2.10648 5.9315,-2.10648 22.5331,-1.08896 22.533,-1.08896 21.467,1.1439 21.4669,1.1439 48.3013,-0.55096 c 26.5658,-0.30303 48.8334,-0.8798 49.4837,-1.28171 1.7097,-1.05662 17.7363,1.86015 20.8817,3.80036 1.4666,0.90472 4.2026,2.02266 6.0798,2.48431 l 3.4132,0.83937 4.0868,5.70488 4.0869,5.70488 0.9306,6 0.9306,6 13.234,26.93263 13.2341,26.93262 2.3009,1.28765 2.3009,1.28766 2.1287,-1.13927 c 2.7424,-1.4677 8.632,-15.36409 16.6476,-39.27975 8.4247,-25.13629 14.957,-39.04691 20.5437,-43.74775 l 3.6582,-3.07825 15.212,-0.59777 c 25.3435,-0.9959 141.598,-0.66953 167.212,0.46942 l 24,1.06718 12.6315,2.04551 c 13.9925,2.26588 16.2814,3.15066 19.3001,7.46045 l 2.0684,2.95302 v 5.78949 5.78948 l -2.7908,6.91384 c -1.535,3.80261 -4.7998,11.11384 -7.2553,16.24718 -2.4554,5.13333 -5.0808,10.973 -5.8341,12.97705 -0.7534,2.00404 -4.7119,8.52391 -8.7969,14.48859 -4.0849,5.96468 -8.6736,13.325 -10.1971,16.35628 -1.5234,3.03127 -3.5962,6.45448 -4.6061,7.60713 -1.01,1.15265 -3.9285,6.25265 -6.4856,11.33333 -2.5571,5.08069 -8.8927,15.23761 -14.0791,22.57095 -5.1864,7.33333 -10.6319,15.815 -12.1012,18.84816 -1.4693,3.03316 -4.6895,7.87253 -7.1561,10.75415 l -4.4847,5.23932 -0.9126,4.86501 -0.9127,4.86501 -1.8605,1.5441 c -1.0233,0.84925 -1.8606,2.33661 -1.8606,3.30523 0,0.96863 -1.1171,2.54516 -2.4825,3.50341 -3.8574,2.70709 -11.9451,16.0382 -22.5239,37.12625 l -9.6731,19.28269 -5.3269,6.66666 c -2.9297,3.66667 -6.1852,8.46667 -7.2342,10.66667 -1.0491,2.2 -3.4491,6.06657 -5.3334,8.59237 -1.8843,2.52581 -3.4361,5.22581 -3.4484,6 -0.012,0.7742 -2.1831,5.60763 -4.824,10.74096 l -4.8015,9.33334 -1.1765,26.66666 -1.1765,26.66667 0.8844,23.33333 c 0.4865,12.83333 0.7972,24.53333 0.6904,26 -0.1067,1.46667 -0.08,12.86667 0.059,25.33333 0.597,53.45044 -0.2418,73.90244 -3.1804,77.54706 l -1.2473,1.54707 -10.2694,2.31545 -10.2693,2.31544 -58.6667,0.18508 -58.6666,0.18507 z m 153.2034,-16.91275 10.5325,-0.32981 1.6064,-4.66666 1.6064,-4.66667 -1.1311,-14.66667 c -1.1053,-14.33064 -1.6605,-64.19843 -1.4208,-127.61379 l 0.1195,-31.61379 1.4179,-7.67023 1.4179,-7.67023 3.94,-8.04931 c 6.4031,-13.08138 12.3321,-23.29668 20.9479,-36.09214 4.46,-6.62355 10.5893,-16.97564 13.6206,-23.00463 3.0313,-6.029 7.7701,-14.70972 10.5307,-19.29051 2.7605,-4.58078 5.7402,-9.82869 6.6215,-11.66203 0.8813,-1.83333 6.8013,-11.43333 13.1556,-21.33333 18.6379,-29.03783 21.3328,-33.37233 28.6002,-46 3.7984,-6.6 9.4461,-15.9 12.5505,-20.66666 6.3845,-9.80317 8.0957,-12.6615 18.7584,-31.33334 4.1878,-7.33333 9.6069,-16.67891 12.0423,-20.76796 6.9784,-11.71639 11.2178,-20.70794 11.2178,-23.792 v -2.83937 l -3,-1.1186 c -1.65,-0.61523 -6,-1.55654 -9.6666,-2.09178 -3.6667,-0.53525 -7.2962,-1.49048 -8.0656,-2.12273 l -1.3988,-1.14955 -51.9345,-0.70527 c -28.564,-0.3879 -63.9162,-1.06527 -78.5605,-1.50528 l -26.6261,-0.80001 -13.3739,1.69967 -13.374,1.69967 -3.1238,3.54936 c -2.982,3.3882 -9.5237,17.63268 -9.5367,20.76605 -0.01,1.72284 -4.4436,13.35129 -8.1355,21.32385 -1.3955,3.01365 -2.5373,6.17558 -2.5373,7.02649 0,0.85092 -1.5,3.92328 -3.3333,6.82746 -1.8334,2.90419 -3.3334,5.68416 -3.3334,6.17772 0,0.49355 -1.7165,4.55547 -3.8145,9.02649 -2.0979,4.47102 -5.7266,13.52913 -8.0637,20.12913 -2.3371,6.6 -4.7492,12.9 -5.3604,14 l -1.1111,2 -5.8252,-0.45541 c -3.2038,-0.25047 -6.5413,-1.04588 -7.4166,-1.76758 -0.8754,-0.72169 -2.8304,-5.03488 -4.3445,-9.58487 -1.5142,-4.54999 -4.1846,-10.37943 -5.9342,-12.95431 -1.7497,-2.57487 -5.3856,-9.15675 -8.0798,-14.62638 -2.6943,-5.46963 -5.8997,-11.74479 -7.1231,-13.94479 -3.868,-6.95518 -10.3505,-19.47023 -18.8117,-36.31798 l -8.1952,-16.31797 -3.6267,-0.79339 c -1.9946,-0.43636 -4.5216,-1.08007 -5.6154,-1.43046 -3.0187,-0.96698 -12.0601,-1.77388 -33.3445,-2.97584 l -19.3334,-1.09178 -2.6666,0.93643 -2.6667,0.93643 -52,-0.49165 c -28.6,-0.27041 -54.7,-0.51468 -58,-0.54284 -3.3,-0.0282 -8.4969,0.30916 -11.5486,0.74959 l -5.5485,0.80077 -0.7135,1.85913 c -0.3923,1.02252 -0.3664,3.99692 0.058,6.60979 l 0.7709,4.75066 5.9978,10.32622 c 13.507,23.25424 18.0486,31.33749 34.0273,60.56119 1.474,2.6959 4.9306,7.7959 7.6813,11.33334 2.7507,3.53743 7.4454,11.01758 10.4328,16.62255 2.9874,5.60496 8.1397,14.00496 11.4496,18.66666 l 6.0181,8.47582 11.4723,23.12682 11.4723,23.12682 4.5486,5.03478 c 2.5018,2.76913 4.5487,5.60747 4.5487,6.30743 0,0.69995 1.55,2.72723 3.4445,4.50506 1.8945,1.77783 4.8273,6.25312 6.5172,9.94508 1.6899,3.69197 4.0944,7.56069 5.3433,8.59716 1.2488,1.03648 5.5771,8.51578 9.6183,16.62067 4.0412,8.1049 8.7283,16.23618 10.4158,18.06951 1.6874,1.83333 5.3764,7.83333 8.1978,13.33333 l 5.1297,10 0.093,90.66667 0.093,90.66666 1.6042,2.96944 c 0.8823,1.6332 2.8796,3.65204 4.4385,4.48633 l 2.8343,1.51689 34.7656,0.58859 c 19.1211,0.32372 35.0378,0.86074 35.3704,1.19338 0.5473,0.54725 87.1159,-0.29141 112.6667,-1.09149 z"
       id="path6238" />
  </g>
</svg>
