<?xml version="1.0" encoding="UTF-8" standalone="no"?>
<!-- Created with Inkscape (http://www.inkscape.org/) -->

<svg
   version="1.1"
   id="svg1"
   width="297mm"
   height="210mm"
   viewBox="0 0 297 210"
   sodipodi:docname="asobi-asobase-title-outline.svg"
   inkscape:version="1.4.4 (dcaf3e7, 2026-05-05)"
   xmlns:inkscape="http://www.inkscape.org/namespaces/inkscape"
   xmlns:sodipodi="http://sodipodi.sourceforge.net/DTD/sodipodi-0.dtd"
   xmlns="http://www.w3.org/2000/svg"
   xmlns:svg="http://www.w3.org/2000/svg">
  <defs
     id="defs1">
    <inkscape:path-effect
       effect="bspline"
       id="path-effect29"
       is_visible="true"
       lpeversion="1.3"
       weight="33.333333"
       steps="2"
       helper_size="0"
       apply_no_weight="true"
       apply_with_weight="true"
       only_selected="false"
       uniform="false" />
    <inkscape:path-effect
       effect="bspline"
       id="path-effect28"
       is_visible="true"
       lpeversion="1.3"
       weight="33.333333"
       steps="2"
       helper_size="0"
       apply_no_weight="true"
       apply_with_weight="true"
       only_selected="false"
       uniform="false" />
    <inkscape:path-effect
       effect="spiro"
       id="path-effect27"
       is_visible="false"
       lpeversion="1" />
    <inkscape:path-effect
       effect="ellipse_5pts"
       id="path-effect26"
       is_visible="false"
       lpeversion="1" />
    <inkscape:path-effect
       effect="bspline"
       id="path-effect25"
       is_visible="false"
       lpeversion="1.3"
       weight="5"
       steps="5"
       helper_size="1"
       apply_no_weight="false"
       apply_with_weight="false"
       only_selected="false"
       uniform="false" />
    <inkscape:path-effect
       effect="bspline"
       id="path-effect24"
       is_visible="true"
       lpeversion="1.3"
       weight="33.333333"
       steps="2"
       helper_size="0"
       apply_no_weight="true"
       apply_with_weight="true"
       only_selected="false"
       uniform="false" />
    <inkscape:path-effect
       effect="bspline"
       id="path-effect23"
       is_visible="true"
       lpeversion="1.3"
       weight="33.333333"
       steps="2"
       helper_size="0"
       apply_no_weight="true"
       apply_with_weight="true"
       only_selected="false"
       uniform="false" />
    <inkscape:path-effect
       effect="spiro"
       id="path-effect22"
       is_visible="false"
       lpeversion="1" />
    <inkscape:path-effect
       effect="simplify"
       id="path-effect21"
       is_visible="false"
       lpeversion="1.3"
       threshold="66.91293"
       steps="1"
       smooth_angles="54.052478"
       helper_size="2.5364431"
       simplify_individual_paths="false"
       simplify_just_coalesce="false" />
    <inkscape:path-effect
       effect="bspline"
       id="path-effect20"
       is_visible="true"
       lpeversion="1.3"
       weight="33.333333"
       steps="2"
       helper_size="0"
       apply_no_weight="true"
       apply_with_weight="true"
       only_selected="false"
       uniform="false" />
    <inkscape:path-effect
       effect="fillet_chamfer"
       id="path-effect19"
       is_visible="true"
       lpeversion="1"
       nodesatellites_param="F,0,0,1,0,0,0,1 @ F,0,0,1,0,0,0,1 @ F,0,0,1,0,0,0,1 @ F,0,0,1,0,1.1995036,0,1 @ F,0,0,1,0,0,0,1 @ F,0,0,1,0,0,0,1"
       radius="0"
       unit="px"
       method="auto"
       mode="F"
       chamfer_steps="1"
       flexible="false"
       use_knot_distance="true"
       apply_no_radius="true"
       apply_with_radius="true"
       only_selected="false"
       hide_knots="false" />
    <inkscape:path-effect
       effect="spiro"
       id="path-effect18"
       is_visible="false"
       lpeversion="1" />
    <inkscape:path-effect
       effect="powerstroke"
       message=""
       id="path-effect16"
       is_visible="true"
       lpeversion="1.3"
       scale_width="1"
       interpolator_type="CubicBezierJohan"
       interpolator_beta="0.2"
       start_linecap_type="zerowidth"
       end_linecap_type="zerowidth"
       offset_points="0,4.9921385"
       linejoin_type="extrp_arc"
       miter_limit="4"
       not_jump="false"
       sort_points="true" />
    <inkscape:path-effect
       effect="spiro"
       id="path-effect15"
       is_visible="true"
       lpeversion="1" />
    <inkscape:path-effect
       effect="powerstroke"
       message=""
       id="path-effect13"
       is_visible="true"
       lpeversion="1.3"
       scale_width="1"
       interpolator_type="CubicBezierJohan"
       interpolator_beta="0.2"
       start_linecap_type="zerowidth"
       end_linecap_type="zerowidth"
       offset_points="0,4.9921385"
       linejoin_type="extrp_arc"
       miter_limit="4"
       not_jump="false"
       sort_points="true" />
    <inkscape:path-effect
       effect="spiro"
       id="path-effect12"
       is_visible="true"
       lpeversion="1" />
    <inkscape:path-effect
       effect="powerstroke"
       message=""
       id="path-effect10"
       is_visible="true"
       lpeversion="1.3"
       scale_width="1"
       interpolator_type="CubicBezierJohan"
       interpolator_beta="0.2"
       start_linecap_type="zerowidth"
       end_linecap_type="zerowidth"
       offset_points="0,4.9921385"
       linejoin_type="extrp_arc"
       miter_limit="4"
       not_jump="false"
       sort_points="true" />
    <inkscape:path-effect
       effect="spiro"
       id="path-effect9"
       is_visible="true"
       lpeversion="1" />
    <inkscape:path-effect
       effect="powerstroke"
       message=""
       id="path-effect7"
       is_visible="true"
       lpeversion="1.3"
       scale_width="1"
       interpolator_type="CubicBezierJohan"
       interpolator_beta="0.2"
       start_linecap_type="zerowidth"
       end_linecap_type="zerowidth"
       offset_points="0,4.9921385"
       linejoin_type="extrp_arc"
       miter_limit="4"
       not_jump="false"
       sort_points="true" />
    <inkscape:path-effect
       effect="spiro"
       id="path-effect6"
       is_visible="true"
       lpeversion="1" />
    <inkscape:path-effect
       effect="bspline"
       id="path-effect4"
       is_visible="true"
       lpeversion="1.3"
       weight="33.333333"
       steps="2"
       helper_size="0"
       apply_no_weight="true"
       apply_with_weight="true"
       only_selected="false"
       uniform="false" />
    <inkscape:path-effect
       effect="spiro"
       id="path-effect3"
       is_visible="true"
       lpeversion="1" />
    <inkscape:path-effect
       effect="fill_between_many"
       method="bsplinespiro"
       autoreverse="false"
       close="false"
       join="false"
       linkedpaths="#path6,0,1"
       id="path-effect8" />
    <inkscape:path-effect
       effect="fill_between_many"
       method="bsplinespiro"
       autoreverse="false"
       close="false"
       join="false"
       linkedpaths="#path9,0,1"
       id="path-effect11" />
    <inkscape:path-effect
       effect="fill_between_many"
       method="bsplinespiro"
       autoreverse="false"
       close="false"
       join="false"
       linkedpaths="#path11,0,1"
       id="path-effect14" />
    <inkscape:path-effect
       effect="fill_between_many"
       method="bsplinespiro"
       autoreverse="false"
       close="false"
       join="false"
       linkedpaths="#path14,0,1"
       id="path-effect17" />
  </defs>
  <sodipodi:namedview
     id="namedview1"
     pagecolor="#ffffff"
     bordercolor="#000000"
     borderopacity="0.25"
     inkscape:showpageshadow="true"
     inkscape:pageopacity="0.0"
     inkscape:pagecheckerboard="false"
     inkscape:deskcolor="#d1d1d1"
     inkscape:document-units="mm"
     showborder="true"
     borderlayer="true"
     labelstyle="default"
     inkscape:antialias-rendering="true"
     inkscape:zoom="1.0567318"
     inkscape:cx="537.03316"
     inkscape:cy="364.80402"
     inkscape:window-width="2560"
     inkscape:window-height="1009"
     inkscape:window-x="-8"
     inkscape:window-y="1063"
     inkscape:window-maximized="1"
     inkscape:current-layer="layer1" />
  <g
     inkscape:groupmode="layer"
     id="layer3"
     inkscape:label="Asobi asobase"
     style="display:inline;mix-blend-mode:normal;stroke:#000000;stroke-opacity:1;stroke-width:0.37191929;stroke-dasharray:none"
     transform="matrix(1.3443777,0,0,1.3443777,-50.649588,-31.267865)">
    <path
       id="path38"
       style="display:inline;opacity:1;fill:#fc873d;fill-opacity:1;stroke:#000000;stroke-width:0.37191929;stroke-linecap:round;stroke-linejoin:round;stroke-dasharray:none;stroke-opacity:1"
       d="M 53.112958 76.86094 C 52.766138 76.874856 51.989563 79.513677 53.190605 81.994842 C 54.317718 84.323282 57.623744 86.750781 61.889718 87.998618 C 61.490846 88.821786 61.074878 89.68537 60.64545 90.58402 C 60.283604 91.341242 59.909545 92.128311 59.530337 92.930716 C 44.386184 93.613095 36.389497 106.36072 38.86288 110.10407 C 40.833409 113.08638 44.918066 112.93829 51.90021 109.85883 C 51.490775 111.24447 51.425433 112.55118 52.552903 112.94356 C 54.384162 113.58087 55.052576 112.2304 55.411606 110.56688 C 55.533581 110.00172 55.79586 109.02499 56.166546 107.80427 C 56.7245 107.51657 57.296915 107.21488 57.883998 106.89981 C 65.056791 103.05029 64.724825 97.717608 63.365773 94.656624 C 76.589426 95.405483 79.035074 104.60507 78.189359 109.15194 C 77.298482 113.94162 73.57469 120.22358 65.295791 122.80852 C 57.016892 125.39346 49.399549 124.05844 49.355169 124.91959 C 49.310789 125.78074 59.786661 126.83024 65.685946 126.03662 C 71.585232 125.243 81.007401 119.81932 81.267548 110.22785 C 81.51178 101.22318 75.609028 93.314653 62.309471 92.90919 C 62.282907 92.877477 62.256099 92.846593 62.229902 92.816937 C 62.229948 92.816845 62.229856 92.816644 62.229902 92.816552 C 62.663103 91.955277 63.127144 91.071719 63.71057 89.977069 C 63.938977 89.548521 64.175098 89.096646 64.414771 88.633629 C 68.798811 89.684534 73.611405 90.714579 74.51998 89.378575 C 75.538376 87.881086 75.078947 86.785652 73.588604 85.620786 C 72.098261 84.455921 69.800447 80.667918 69.586728 79.219936 C 69.373009 77.771955 68.688049 77.655011 68.126433 77.621261 C 67.564817 77.58751 66.916607 77.760331 66.492779 78.667953 C 66.215374 79.262012 65.104189 81.445887 63.513378 84.675573 C 58.411448 83.75759 56.681856 83.136252 54.942267 81.232983 C 53.202442 79.329455 53.463611 76.88875 53.12103 76.86094 C 53.118354 76.860722 53.115689 76.86083 53.112958 76.86094 z M 68.440095 81.646586 C 69.239772 81.588673 71.410444 84.706974 70.824077 85.16836 C 70.334193 85.553828 69.226265 85.595285 66.218325 85.132612 C 67.155865 83.338185 67.962643 81.895972 68.332466 81.678874 C 68.364671 81.659969 68.400767 81.649434 68.440095 81.646586 z M 61.357723 94.608575 C 61.668342 94.6063 61.97394 94.608547 62.274107 94.614725 C 63.299427 97.040426 63.927849 100.86071 57.473085 103.85314 C 58.021002 102.31646 58.647732 100.69256 59.320845 99.150518 C 60.181469 97.178906 60.795022 95.80316 61.357723 94.608575 z M 58.675455 94.745802 C 56.81184 98.715128 54.935621 102.78901 53.796787 105.29536 C 43.415458 109.10082 42.742521 108.24007 41.589738 107.13659 C 40.432189 106.02856 45.375345 96.039568 58.675455 94.745802 z " />
  </g>
  <g
     inkscape:groupmode="layer"
     id="layer1"
     inkscape:label="aSObi asobase"
     style="display:inline;stroke-width:0.37191929;stroke-dasharray:none;stroke:#000000;stroke-opacity:1;stroke-linecap:round;stroke-linejoin:round"
     transform="matrix(1.3443777,0,0,1.3443777,-50.649588,-31.267865)">
    <path
       style="display:inline;fill:#fb716a;fill-opacity:1;stroke:#000000;stroke-width:0.37191929;stroke-linecap:round;stroke-linejoin:round;stroke-dasharray:none;stroke-opacity:1"
       d="m 81.453514,99.530522 c 1.818765,-1.571323 2.579782,2.642498 4.44992,2.537998 1.870138,-0.1045 2.761994,-1.91696 5.226661,-3.833925 2.464667,-1.916964 3.826098,-1.807423 5.171887,-0.555528 1.345789,1.251895 1.305711,2.288305 -0.219081,3.505313 -1.524792,1.21701 -3.500945,2.8296 -6.327384,5.61805 -2.826439,2.78845 -5.643051,5.68549 -5.215971,6.18753 0.42708,0.50204 0.462477,0.19682 4.818833,-2.00027 4.356357,-2.19709 10.675591,-4.25704 12.047761,-4.53551 1.37217,-0.27847 2.47929,-0.41145 2.58013,0.94305 0.10084,1.3545 -0.38092,1.47901 -1.40916,1.70537 -1.02824,0.22636 -12.13777,3.56298 -12.284355,9.38452 -0.146585,5.82154 6.242082,5.66277 7.641981,5.63086 1.399899,-0.0319 2.829954,-0.16707 2.715124,1.34027 -0.11483,1.50734 -1.905936,1.13779 -2.744187,1.15079 -0.83825,0.013 -8.830674,-0.41369 -8.801384,-6.88032 0.02929,-6.46663 7.765528,-9.27406 7.502777,-9.89822 -0.262751,-0.62416 -1.584664,-0.21402 -7.372259,2.57557 -5.787595,2.78959 -5.596185,6.16784 -7.739023,5.06903 -2.142838,-1.09881 3.123645,-7.02867 7.240285,-11.44307 4.11664,-4.4144 7.641512,-6.76046 4.843098,-7.302268 -2.798414,-0.541808 -5.889507,5.213118 -7.727821,5.018048 -1.838314,-0.19507 -6.216598,-2.64597 -4.397832,-4.217288 z"
       id="path3"
       sodipodi:nodetypes="zzzzzzzzzzzzzzzzzzzzzzz" />
  </g>
  <g
     inkscape:groupmode="layer"
     id="layer2"
     inkscape:label="asoBI asobase"
     style="display:inline;stroke-width:0.37191929;stroke-dasharray:none;stroke:#000000;stroke-opacity:1;stroke-linecap:round;stroke-linejoin:round"
     transform="matrix(1.3443777,0,0,1.3443777,-50.649588,-31.267865)">
    <path
       style="fill:#dd44ac;fill-opacity:1;stroke:#000000;stroke-width:0.37191929;stroke-linecap:round;stroke-linejoin:round;stroke-dasharray:none;stroke-opacity:1"
       d="m 137.73969,81.404439 c 0.68532,-1.013378 -2.2019,-2.6622 -4.45986,-1.846547 -2.25796,0.815654 -5.70201,3.844493 -5.33622,4.530296 0.36579,0.685803 1.78394,-1.071936 5.39879,-1.791775 3.61485,-0.719839 3.71197,0.121403 4.39729,-0.891974 z"
       id="path29"
       sodipodi:nodetypes="zzzzz" />
    <path
       style="fill:#dd44ac;fill-opacity:1;stroke:#000000;stroke-width:0.37191929;stroke-linecap:round;stroke-linejoin:round;stroke-dasharray:none;stroke-opacity:1"
       d="m 126.25356,81.2636 c 0.66309,0.360664 1.26754,-2.049975 3.84957,-3.974764 2.58203,-1.924789 3.5679,-1.533572 3.5679,-2.644628 1e-5,-1.111057 -2.89501,-1.956085 -4.99193,0.532054 -2.09693,2.488139 -3.08863,5.726674 -2.42554,6.087338 z"
       id="path30"
       sodipodi:nodetypes="zzzzz" />
    <path
       style="fill:#dd44ac;fill-opacity:1;stroke:#000000;stroke-width:0.37191929;stroke-linecap:round;stroke-linejoin:round;stroke-dasharray:none;stroke-opacity:1"
       d="m 96.268951,90.137271 c 0.599561,-0.277933 1.893318,2.140178 4.962369,1.157136 3.06905,-0.983042 5.45951,-4.59883 6.5074,-5.838463 1.04789,-1.239633 1.87066,-2.313062 3.13756,-1.670221 1.2669,0.642841 0.54146,2.784935 -0.30474,3.986103 -0.84619,1.201169 -3.20717,6.604549 -3.65977,12.617224 -0.4526,6.01268 0.92113,15.66437 9.71639,15.48665 8.79526,-0.17772 10.32788,-10.00782 9.36381,-14.75659 -0.96406,-4.748778 -1.22358,-5.616689 -3.7801,-11.480959 -2.55652,-5.864271 -3.99763,-7.401704 -2.09814,-8.374673 1.89949,-0.972969 2.49263,1.382041 4.54783,4.359723 2.0552,2.977681 5.70016,6.071937 9.708,6.822245 4.00784,0.750309 6.33895,0.09325 5.97073,3.178555 -0.36823,3.085301 -3.35524,1.743774 -6.4311,0.527525 -3.07587,-1.21625 -6.73188,-3.811209 -8.6435,-5.80688 -1.91163,-1.995671 -1.97866,-1.193131 -1.23486,0.634155 0.74381,1.827287 2.62567,4.667087 3.70929,12.356399 1.08362,7.68931 -3.30044,16.21385 -11.0232,16.33645 -7.72277,0.1226 -11.82045,-5.98072 -11.79673,-14.09696 0.0237,-8.116238 3.06506,-14.440649 3.391,-15.082212 0.32594,-0.641563 0.50175,-1.832458 -0.57952,-0.863642 -1.08127,0.968816 -3.27266,3.030107 -6.57815,3.352783 -3.305493,0.322676 -5.48413,-2.566415 -4.884569,-2.844348 z"
       id="path5"
       sodipodi:nodetypes="zzzzzzzzzzzzzzzzzzzzzzz" />
  </g>
  <g
     inkscape:groupmode="layer"
     id="layer4"
     inkscape:label="asobi Asobase"
     style="display:inline;stroke-width:0.37191929;stroke-dasharray:none;stroke:#000000;stroke-opacity:1;stroke-linecap:round;stroke-linejoin:round"
     transform="matrix(1.3443777,0,0,1.3443777,-50.649588,-31.267865)">
    <path
       id="path38-8"
       style="display:inline;mix-blend-mode:normal;fill:#8768aa;fill-opacity:1;stroke:#000000;stroke-width:0.37191929;stroke-linecap:round;stroke-linejoin:round;stroke-dasharray:none;stroke-opacity:1"
       d="M 143.80883 96.234157 C 143.62126 96.237037 143.46206 96.315477 143.32143 96.394448 C 142.99998 96.574923 142.70392 96.900291 142.79212 97.55069 C 142.84982 97.976396 143.01174 99.573665 143.27991 101.91735 C 140.14297 103.21995 138.96977 103.49043 137.33648 103.05822 C 135.70296 102.62595 134.98163 101.18853 134.78299 101.29464 C 134.58435 101.40075 135.08763 103.15017 136.64112 104.09915 C 138.08761 104.98275 140.77003 105.14891 143.56321 104.3244 C 143.63519 104.91941 143.71194 105.5424 143.79384 106.18984 C 143.86285 106.73539 143.93595 107.30186 144.0114 107.87846 C 135.90775 113.62263 136.01923 123.48207 138.70914 124.6682 C 140.85218 125.61317 143.05079 124.08334 145.80689 119.91138 C 146.07242 120.8201 146.49947 121.56356 147.25988 121.38013 C 148.49494 121.08221 148.38472 120.10086 147.99291 119.05688 C 147.8598 118.7022 147.65821 118.07127 147.42978 117.26717 C 147.63527 116.91084 147.84372 116.54186 148.05556 116.16013 C 150.64376 111.49623 148.57068 108.67494 146.73672 107.46985 C 154.28937 103.19516 158.89783 107.3982 160.04351 110.20363 C 161.25036 113.15888 161.42506 117.94049 157.77907 122.29959 C 154.13308 126.65869 149.46224 128.623 149.74303 129.11328 C 150.02382 129.60358 156.16865 126.46861 159.13827 123.94016 C 162.10789 121.4117 165.37765 115.08289 162.12113 109.70508 C 159.06386 104.65628 153.00787 102.39052 145.53512 106.88135 C 145.50918 106.87328 145.48363 106.86575 145.45863 106.85868 C 145.39205 106.23043 145.33449 105.57926 145.26797 104.76914 C 145.24193 104.45201 145.212 104.11906 145.17995 103.77895 C 147.96839 102.80408 150.98516 101.66604 151.01229 100.60774 C 151.04268 99.421528 150.40142 98.980488 149.16722 98.866839 C 147.93303 98.753199 145.32398 97.480271 144.69293 96.75808 C 144.33797 96.351851 144.04999 96.230455 143.80883 96.234157 z M 145.21608 98.439398 C 145.9669 98.456063 147.61924 99.203634 147.48321 99.597563 C 147.34988 99.983631 146.75399 100.39921 144.9324 101.21046 C 144.81298 99.889273 144.74675 98.808517 144.87359 98.55779 C 144.91777 98.470455 145.04281 98.435553 145.21608 98.439398 z M 146.12016 107.83387 C 147.54502 108.80716 149.24535 110.68974 146.74902 114.6268 C 146.50626 113.58576 146.27585 112.46862 146.10018 111.38025 C 145.87557 109.98868 145.72651 109.01298 145.61315 108.15522 C 145.78352 108.04386 145.95256 107.93687 146.12016 107.83387 z M 144.18361 109.18154 C 144.56362 112.02952 144.97369 114.93954 145.23453 116.72441 C 140.86258 122.50135 140.18644 122.26573 139.16003 122.06627 C 138.12936 121.86598 137.31288 114.60898 144.18361 109.18154 z " />
  </g>
  <g
     inkscape:groupmode="layer"
     id="g6"
     inkscape:label="asobi aSObase"
     style="display:inline;stroke-width:0.37191929;stroke-dasharray:none;stroke:#000000;stroke-opacity:1;stroke-linecap:round;stroke-linejoin:round"
     transform="matrix(1.3443777,0,0,1.3443777,-50.649588,-31.267865)">
    <path
       style="display:inline;fill:#5d80c0;fill-opacity:1;stroke:#000000;stroke-width:0.3340903;stroke-linecap:round;stroke-linejoin:round;stroke-dasharray:none;stroke-opacity:1"
       d="m 81.542917,99.752583 c 1.938458,-1.581248 2.924758,2.681577 4.500756,2.513967 1.575998,-0.16761 2.623586,-1.91373 5.088253,-3.830698 2.464667,-1.916966 3.762553,-1.77739 5.108342,-0.525495 1.345789,1.251895 1.517892,2.324183 -0.0069,3.541193 -1.524792,1.21701 -3.435614,2.75585 -6.262053,5.5443 -2.826439,2.78845 -5.492235,5.80253 -5.16235,6.07566 0.329885,0.27313 0.333399,0.20286 4.689756,-1.99423 4.356356,-2.19709 7.439364,-3.39453 10.287617,-4.16851 2.848252,-0.77398 4.079242,-1.10543 4.214472,0.68371 0.13523,1.78914 -1.89835,1.85412 -2.94809,2.19948 -1.04974,0.34536 -10.593703,3.39407 -10.585078,9.0323 0.0086,5.63823 6.400194,5.14626 7.800093,5.11435 1.399899,-0.0319 2.641715,0.006 2.526885,1.51341 -0.11483,1.50738 -2.050696,1.14402 -2.888947,1.15702 -0.838251,0.013 -8.853836,-0.50358 -8.824546,-6.97021 0.02929,-6.46663 7.592047,-9.10678 7.329296,-9.73094 -0.262751,-0.62416 -1.088379,-0.16917 -6.875974,2.62042 -5.787595,2.78959 -5.542265,6.14236 -7.873331,5.11052 -2.331066,-1.03184 3.138951,-7.07827 7.130402,-11.55527 3.991451,-4.477 7.079907,-6.294584 4.712616,-6.926376 -2.367291,-0.631792 -5.406651,4.826166 -7.358907,4.949266 -1.952256,0.1231 -6.54077,-2.77262 -4.602312,-4.353867 z"
       id="path6"
       sodipodi:nodetypes="sssssssssssssssssssssss"
       transform="matrix(1.0064815,0.47568443,-0.47568443,1.0064815,130.27126,-59.671634)" />
  </g>
  <g
     inkscape:groupmode="layer"
     id="layer5"
     inkscape:label="asobi asoBAse"
     style="display:inline;stroke-width:0.37191929;stroke-dasharray:none;stroke:#000000;stroke-opacity:1;stroke-linecap:round;stroke-linejoin:round"
     transform="matrix(1.3443777,0,0,1.3443777,-50.649588,-31.267865)">
    <path
       style="fill:#02c1a2;fill-opacity:1;stroke:#000000;stroke-width:0.37191929;stroke-linecap:round;stroke-linejoin:round;stroke-dasharray:none;stroke-opacity:1"
       d="m 189.49781,75.830421 c 0.5025,-0.540124 4.26234,2.268842 4.11724,7.074976 -0.14509,4.806134 -5.45531,9.859982 -7.39575,17.433943 -1.94044,7.57396 -2.22571,12.32742 -2.18142,14.18639 0.0443,1.85897 0.25291,4.42343 -2.05278,4.38186 -2.30569,-0.0416 -2.24056,-1.79258 -1.68729,-4.75808 0.55327,-2.9655 3.15259,-12.86819 5.8589,-19.162017 2.7063,-6.293832 4.74561,-10.699756 4.89545,-14.305512 0.14984,-3.605757 -2.05686,-4.311436 -1.55435,-4.85156 z"
       id="path32"
       sodipodi:nodetypes="zzzzzzzzz" />
    <path
       style="fill:#02c1a2;fill-opacity:1;stroke:#000000;stroke-width:0.37191929;stroke-linecap:round;stroke-linejoin:round;stroke-dasharray:none;stroke-opacity:1"
       d="m 236.09711,90.005701 c 0.45059,-1.24811 -2.2019,-2.881285 -5.05451,-2.081281 -2.85261,0.800005 -6.24971,4.000988 -5.68049,4.592896 0.56922,0.591908 1.78394,-0.868507 5.50833,-1.463158 3.72439,-0.59465 4.77608,0.199654 5.22667,-1.048457 z"
       id="path29-7"
       sodipodi:nodetypes="zzzzz" />
    <path
       style="fill:#02c1a2;fill-opacity:1;stroke:#000000;stroke-width:0.37191929;stroke-linecap:round;stroke-linejoin:round;stroke-dasharray:none;stroke-opacity:1"
       d="m 223.57817,89.567537 c 0.58484,0.485849 1.7057,-1.924789 4.42857,-3.677443 2.72287,-1.752653 4.44421,-1.643111 4.28774,-3.035845 -0.15648,-1.392733 -3.91218,-1.7683 -5.99345,0.719839 -2.08127,2.488139 -3.30771,5.507599 -2.72286,5.993449 z"
       id="path30-6"
       sodipodi:nodetypes="zzzzz" />
    <path
       id="path38-2"
       style="display:inline;mix-blend-mode:normal;fill:#02c1a2;fill-opacity:1;stroke:#000000;stroke-width:0.37191929;stroke-linecap:round;stroke-linejoin:round;stroke-dasharray:none;stroke-opacity:1"
       d="M 213.62314 83.33982 C 213.41056 83.3349 213.20502 83.375779 213.01196 83.463209 C 211.9823 83.929502 211.28633 83.947941 211.41214 87.173334 C 211.49041 89.180086 211.59262 90.550502 211.43481 93.052952 C 208.51404 93.192211 206.80082 93.172051 204.2748 91.901706 C 201.54798 90.530378 201.66704 87.986142 201.13895 87.892142 C 200.61086 87.79814 200.66661 91.753048 203.02053 93.641836 C 204.90142 95.151059 207.84463 96.484824 211.07503 96.958347 C 210.99578 97.657447 210.90347 98.421108 210.79634 99.260454 C 209.86718 106.54072 206.51234 115.8599 204.16294 117.16876 C 204.02263 117.24693 203.89155 117.32486 203.76894 117.40209 C 202.8673 116.91955 202.13221 116.56655 201.87313 116.46341 C 201.28903 116.23087 198.87937 115.48567 198.12226 115.32639 C 197.36514 115.16714 195.99621 114.86006 194.71888 115.37674 C 193.44154 115.89341 192.92761 116.71372 192.83691 117.45744 C 192.74619 118.20116 193.09742 119.63676 195.41962 120.39494 C 197.74181 121.15311 200.25028 120.92841 202.04726 120.64211 C 202.21985 120.61461 202.38004 120.58007 202.52967 120.53947 C 203.30583 121.11724 204.70107 122.0909 206.24556 123.5477 C 207.29886 124.5412 209.2198 126.82003 210.13519 128.01469 C 210.76682 128.83902 212.42372 129.03211 213.21377 128.26608 C 214.47611 127.04213 214.02395 125.65112 212.88242 124.4491 C 211.7409 123.24709 209.21466 120.98532 207.33761 119.59195 C 206.84193 119.224 206.26761 118.84847 205.68012 118.49068 C 205.73938 118.45329 205.80038 118.41596 205.86309 118.37882 C 207.45027 117.43888 210.03327 111.57068 211.05504 108.15484 C 212.07681 104.739 212.6905 102.36288 213.32255 99.26276 C 213.47203 98.529576 213.61961 97.828461 213.76037 97.142085 C 217.8971 97.157603 223.2676 97.706182 223.86942 95.647964 C 224.48129 93.555386 223.16775 92.35796 220.73665 91.314359 C 218.30555 90.270758 217.18736 88.123006 216.30887 85.984803 C 215.5951 84.247513 214.54431 83.361142 213.62314 83.33982 z M 215.25949 87.790279 C 215.47155 87.792698 215.7644 88.176054 216.18241 88.764705 C 217.17323 90.160026 217.91431 91.093016 219.07224 91.966668 C 219.9754 92.648094 217.31411 92.802051 214.4984 92.917647 C 214.60201 92.10853 214.68172 91.271647 214.72941 90.380293 C 214.83007 88.499109 214.96889 87.786964 215.25949 87.790279 z " />
  </g>
  <g
     inkscape:groupmode="layer"
     id="layer5-7"
     inkscape:label="asobi asobaSE"
     style="display:inline;stroke-width:0.37191929;stroke-dasharray:none;stroke:#000000;stroke-opacity:1;stroke-linecap:round;stroke-linejoin:round"
     transform="matrix(1.3443777,0,0,1.3443777,-50.649588,-31.267865)">
    <path
       id="path33"
       style="fill:#61d064;fill-opacity:1;stroke:#000000;stroke-width:0.37191929;stroke-linecap:round;stroke-linejoin:round;stroke-dasharray:none;stroke-opacity:1"
       d="M 245.95643 91.067197 C 245.34212 91.066717 244.72583 91.53581 243.63433 91.544608 C 241.69389 91.560248 237.53782 90.287626 236.38898 92.049312 C 235.38822 93.583928 236.66539 96.194273 238.03532 99.107082 C 237.07611 100.31208 235.98041 101.71858 234.61425 103.33229 C 233.41766 104.74571 232.16219 106.12485 231.08479 107.27881 C 229.74076 107.00943 228.58787 106.77003 227.89129 106.60882 C 225.27784 106.00402 222.93101 104.97136 222.10162 106.00418 C 221.27223 107.037 222.14504 108.39437 224.58977 113.34332 C 224.63711 113.43917 224.68468 113.53599 224.73238 113.63392 C 223.48002 114.77183 222.16475 115.90932 221.24404 116.57335 C 219.07874 118.13499 218.29696 117.62103 216.97655 116.91622 C 215.65614 116.21141 214.69767 116.49992 214.21318 117.35827 C 213.72869 118.21662 213.10555 120.14097 216.83664 120.75127 C 220.56773 121.36157 222.32073 119.36263 223.59727 118.02672 C 224.15509 117.44296 224.86288 116.61469 225.68374 115.64428 C 227.91402 120.43145 230.63819 126.40185 234.8322 128.17267 C 239.73542 130.24294 249.70601 124.30594 253.63422 121.77067 C 257.56242 119.23539 258.71977 118.47613 257.21749 116.64523 C 255.71522 114.81432 254.96397 115.36198 251.14568 118.47607 C 247.3274 121.59016 239.63099 127.28835 235.41993 126.24112 C 232.30299 125.46598 229.04267 118.28748 227.24359 113.80344 C 227.90237 113.03193 228.60601 112.22026 229.34197 111.40331 C 230.30032 110.33949 231.02804 109.54137 231.75824 108.76563 C 235.23084 109.56985 239.16179 110.72576 240.47965 111.23456 C 242.31129 111.94172 243.16491 112.62346 244.07254 111.82537 C 244.98017 111.02728 244.10389 109.00895 242.94589 106.5208 C 242.05262 104.60145 241.10565 102.16011 240.35011 100.301 C 241.06508 99.656679 241.77102 99.037762 242.61724 98.289486 C 244.90195 96.269209 249.20509 94.658717 247.60892 92.358361 C 246.91059 91.351955 246.43422 91.06757 245.95643 91.067197 z M 239.25114 92.346829 C 240.58178 92.373752 242.22533 92.832397 242.43734 93.320871 C 242.77657 94.10243 242.19768 94.535318 240.57652 96.151129 C 240.1241 96.602054 239.66981 97.11262 239.19156 97.683305 C 238.30842 95.895353 237.14468 93.677931 237.57059 92.851532 C 237.76718 92.470095 238.45276 92.330675 239.25114 92.346829 z M 239.10123 101.44609 C 240.34845 104.278 241.02916 106.1254 241.80349 107.67858 C 242.66783 109.41231 242.43667 109.44289 240.98973 109.18077 C 240.08924 109.01764 236.24844 108.2957 232.84606 107.62784 C 233.65453 106.79452 234.58425 105.8607 235.88735 104.56233 C 237.22553 103.22902 238.22386 102.26519 239.10123 101.44609 z M 226.4579 107.90306 C 226.86417 107.89995 227.39753 107.94599 228.08771 108.04452 C 228.6689 108.12748 229.3299 108.24628 230.0381 108.39008 C 229.19769 109.27535 228.5717 109.92049 228.33756 110.18249 C 228.12848 110.41645 227.43276 111.10651 226.52632 111.96721 C 226.26603 111.28464 226.07252 110.76221 225.95858 110.47078 C 225.327 108.85539 224.6974 107.91656 226.4579 107.90306 z " />
  </g>
</svg>
